STARTFONT 2.1
COMMENT
COMMENT Converted from OpenType font "Arial.ttf" by "otf2bdf 3.0".
COMMENT
FONT -FreeType-Arial-Medium-R-Normal--44-320-100-100-P-213-ISO10646-1
SIZE 32 100 100
FONTBOUNDINGBOX 80 60 -30 -14
STARTPROPERTIES 19
FOUNDRY "FreeType"
FAMILY_NAME "Arial"
WEIGHT_NAME "Medium"
SLANT "R"
SETWIDTH_NAME "Normal"
ADD_STYLE_NAME ""
PIXEL_SIZE 44
POINT_SIZE 320
RESOLUTION_X 100
RESOLUTION_Y 100
SPACING "P"
AVERAGE_WIDTH 213
CHARSET_REGISTRY "ISO10646"
CHARSET_ENCODING "1"
FONT_ASCENT 39
FONT_DESCENT 9
COPYRIGHT "Typeface © The Monotype Corporation plc. Data © The Monotype Corporation plc/Type Solutions Inc. 1990-1992. All Rights Reserved"
_OTF_FONTFILE "Arial.ttf"
_OTF_PSNAME "ArialMT"
ENDPROPERTIES
CHARS 1186
STARTCHAR 0020
ENCODING 32
SWIDTH 270 0
DWIDTH 12 0
BBX 0 0 0 0
BITMAP
ENDCHAR
STARTCHAR 0021
ENCODING 33
SWIDTH 270 0
DWIDTH 12 0
BBX 5 32 4 0
BITMAP
F8
F8
F8
F8
F8
F8
F8
F8
F8
F8
F0
F0
F0
F0
F0
F0
F0
70
70
70
70
70
70
70
00
00
00
00
F0
F0
F0
F0
ENDCHAR
STARTCHAR 0022
ENCODING 34
SWIDTH 337 0
DWIDTH 15 0
BBX 12 11 2 21
BITMAP
F1F0
F1F0
F1F0
F1F0
F1F0
F1F0
F1F0
F0E0
70E0
70E0
70E0
ENDCHAR
STARTCHAR 0023
ENCODING 35
SWIDTH 540 0
DWIDTH 24 0
BBX 24 33 0 -1
BITMAP
00701C
00701C
00F03C
00E03C
00E038
00E038
00E038
01E078
01C078
FFFFFF
FFFFFF
FFFFFF
03C0F0
0380E0
0380E0
0380E0
0780E0
0781E0
0701C0
0701C0
FFFFFF
FFFFFF
FFFFFF
0E0380
0E0380
0E0380
1E0380
1E0780
1C0700
1C0700
1C0700
3C0700
3C0F00
ENDCHAR
STARTCHAR 0024
ENCODING 36
SWIDTH 540 0
DWIDTH 24 0
BBX 21 40 2 -5
BITMAP
006000
006000
01F800
0FFF00
1FFF80
3FEFC0
7C63E0
7861E0
7861F0
F060F0
F06000
F06000
F06000
786000
7C6000
7E6000
3FE000
1FFC00
07FF80
01FFC0
007FE0
0063F0
0061F0
0060F0
0060F8
106078
F06078
F060F8
F060F0
F860F0
7861F0
7E63E0
3FFFC0
1FFF80
07FF00
00F000
006000
006000
006000
006000
ENDCHAR
STARTCHAR 0025
ENCODING 37
SWIDTH 877 0
DWIDTH 39 0
BBX 34 33 3 -1
BITMAP
1FC001E000
3FE001C000
7DF003C000
F070038000
E078070000
E038070000
E0380E0000
E0380E0000
E0381C0000
E0381C0000
E038380000
E078380000
F070700000
78F0700000
3FE0E00000
1FC0E00000
0001C07000
0001C1FE00
000383FF00
0007878780
0007070380
000F070380
000E0F03C0
001E0F03C0
001C0F03C0
003C0F03C0
00380F03C0
00780F03C0
0070070380
00F0078780
00E003FF00
01E001FE00
01C000FC00
ENDCHAR
STARTCHAR 0026
ENCODING 38
SWIDTH 652 0
DWIDTH 29 0
BBX 26 33 2 -1
BITMAP
00FF0000
03FF8000
07FFC000
0783E000
0F01E000
0F01E000
0F01E000
0F01E000
0F81E000
0783C000
07C7C000
03FF8000
03FF0000
01FC0000
03F80000
0FFC0000
1FBE0000
3F3F0E00
7C1F8F00
780F8F00
F807DF00
F003FE00
F003FE00
F001FC00
F000FC00
F800FC00
7800FE00
7C03FF00
3E07FF80
3FFFCFC0
0FFF87C0
07FE0380
00400000
ENDCHAR
STARTCHAR 0027
ENCODING 39
SWIDTH 180 0
DWIDTH 8 0
BBX 4 11 2 21
BITMAP
F0
F0
F0
F0
F0
F0
F0
F0
F0
70
70
ENDCHAR
STARTCHAR 0028
ENCODING 40
SWIDTH 315 0
DWIDTH 14 0
BBX 10 41 3 -9
BITMAP
01C0
0380
0780
0700
0F00
0E00
1E00
1C00
3C00
3800
7800
7800
7800
F000
F000
F000
F000
F000
F000
F000
F000
F000
F000
F000
F000
F000
F000
F000
7800
7800
7800
3800
3C00
1C00
1E00
0E00
0F00
0700
0780
0380
01C0
ENDCHAR
STARTCHAR 0029
ENCODING 41
SWIDTH 315 0
DWIDTH 14 0
BBX 10 41 3 -9
BITMAP
E000
7000
7000
3800
3C00
1C00
1E00
0E00
0F00
0F00
0700
0780
0780
0780
03C0
03C0
03C0
03C0
03C0
03C0
03C0
03C0
03C0
03C0
03C0
03C0
03C0
0780
0780
0780
0700
0F00
0F00
0E00
1E00
1C00
3C00
3800
7000
7000
E000
ENDCHAR
STARTCHAR 002A
ENCODING 42
SWIDTH 382 0
DWIDTH 17 0
BBX 14 13 2 19
BITMAP
0700
0700
0700
C718
F778
FFFC
7FF0
0F80
1FC0
1DE0
38E0
78F0
1040
ENDCHAR
STARTCHAR 002B
ENCODING 43
SWIDTH 562 0
DWIDTH 25 0
BBX 21 21 2 5
BITMAP
007800
007800
007800
007800
007800
007800
007800
007800
FFFFF8
FFFFF8
FFFFF8
FFFFF8
007800
007800
007800
007800
007800
007800
007800
007800
007800
ENDCHAR
STARTCHAR 002C
ENCODING 44
SWIDTH 270 0
DWIDTH 12 0
BBX 4 10 4 -6
BITMAP
F0
F0
F0
F0
30
30
30
70
E0
C0
ENDCHAR
STARTCHAR 002D
ENCODING 45
SWIDTH 315 0
DWIDTH 14 0
BBX 12 3 1 10
BITMAP
FFF0
FFF0
FFF0
ENDCHAR
STARTCHAR 002E
ENCODING 46
SWIDTH 270 0
DWIDTH 12 0
BBX 4 4 4 0
BITMAP
F0
F0
F0
F0
ENDCHAR
STARTCHAR 002F
ENCODING 47
SWIDTH 270 0
DWIDTH 12 0
BBX 12 33 0 -1
BITMAP
0070
0070
00F0
00E0
00E0
00E0
01C0
01C0
01C0
03C0
0380
0380
0380
0700
0700
0700
0F00
0E00
0E00
0E00
1E00
1C00
1C00
1C00
3800
3800
3800
7800
7000
7000
7000
E000
E000
ENDCHAR
STARTCHAR 0030
ENCODING 48
SWIDTH 540 0
DWIDTH 24 0
BBX 21 33 2 -1
BITMAP
01F800
07FE00
0FFF80
1F8FC0
3E07C0
3C03E0
7801E0
7800E0
7800F0
F000F0
F000F0
F000F0
F000F0
F000F8
F00078
F00078
F00078
F00078
F00078
F000F0
F000F0
F000F0
F000F0
F000F0
7800F0
7801E0
7C01E0
3C03C0
3E07C0
1FFF80
0FFF00
03FE00
003000
ENDCHAR
STARTCHAR 0031
ENCODING 49
SWIDTH 540 0
DWIDTH 24 0
BBX 12 32 5 0
BITMAP
0070
00F0
01F0
03F0
07F0
0FF0
1FF0
7EF0
FCF0
F0F0
E0F0
80F0
00F0
00F0
00F0
00F0
00F0
00F0
00F0
00F0
00F0
00F0
00F0
00F0
00F0
00F0
00F0
00F0
00F0
00F0
00F0
00F0
ENDCHAR
STARTCHAR 0032
ENCODING 50
SWIDTH 540 0
DWIDTH 24 0
BBX 21 32 1 0
BITMAP
00FE00
07FF80
0FFFE0
1FC7E0
3E01F0
3C00F8
3C0078
780078
780078
180078
000078
000078
0000F8
0001F0
0001F0
0003E0
0007C0
000F80
001F00
007E00
00FC00
01F800
03F000
07C000
0F8000
1F0000
3E0000
3C0000
7FFFF8
7FFFF8
FFFFF8
FFFFF8
ENDCHAR
STARTCHAR 0033
ENCODING 51
SWIDTH 540 0
DWIDTH 24 0
BBX 21 33 2 -1
BITMAP
01F800
0FFE00
1FFF80
3F9F80
3C07C0
7803E0
7801E0
F001E0
7001E0
0001E0
0001E0
0003C0
0007C0
007F80
00FE00
00FF80
00FFC0
0003E0
0001F0
0000F0
0000F0
0000F8
000078
7000F8
F000F8
F000F0
7801F0
7C01E0
3E07E0
3FFFC0
1FFF80
07FE00
007000
ENDCHAR
STARTCHAR 0034
ENCODING 52
SWIDTH 540 0
DWIDTH 24 0
BBX 22 32 1 0
BITMAP
000380
000780
000F80
000F80
001F80
003F80
003F80
007F80
00F780
01E780
01E780
03C780
078780
070780
0F0780
1E0780
1C0780
3C0780
780780
F00780
F00780
FFFFFC
FFFFFC
FFFFFC
000780
000780
000780
000780
000780
000780
000780
000780
ENDCHAR
STARTCHAR 0035
ENCODING 53
SWIDTH 540 0
DWIDTH 24 0
BBX 21 32 2 -1
BITMAP
1FFFE0
1FFFE0
1FFFE0
1E0000
1E0000
1C0000
3C0000
3C0000
3C0000
3C0000
38FE00
7BFF80
7FFFC0
7F9FE0
7C03E0
7801F0
0000F0
0000F8
000078
000078
000078
000078
300078
F000F8
F800F0
F801F0
7C01E0
7E07E0
3FFFC0
1FFF80
07FE00
006000
ENDCHAR
STARTCHAR 0036
ENCODING 54
SWIDTH 540 0
DWIDTH 24 0
BBX 21 33 2 -1
BITMAP
00FC00
03FF00
0FFFC0
1F8FC0
3E03E0
3C01F0
7C00F0
7800F0
780000
F00000
F00000
F03800
F1FF00
F7FF80
FFFFC0
FF07E0
FC01F0
F801F0
F800F0
F000F8
F00078
F00078
F00078
F00078
7800F0
7800F0
7C00F0
3C01E0
3F03E0
1FFFC0
0FFF80
03FE00
006000
ENDCHAR
STARTCHAR 0037
ENCODING 55
SWIDTH 540 0
DWIDTH 24 0
BBX 21 31 2 0
BITMAP
FFFFF8
FFFFF8
FFFFF8
0000F0
0001E0
0003C0
0007C0
000780
000F00
001F00
001E00
003E00
003C00
007C00
007800
00F800
00F000
01F000
01E000
01E000
03E000
03C000
03C000
03C000
078000
078000
078000
078000
078000
078000
078000
ENDCHAR
STARTCHAR 0038
ENCODING 56
SWIDTH 540 0
DWIDTH 24 0
BBX 21 33 2 -1
BITMAP
01F800
07FF00
0FFF80
1F8FC0
3E03C0
3C01E0
7801E0
7801E0
7801E0
7801E0
7C01E0
3C03E0
3E07C0
1FFF80
07FE00
0FFF80
3FDFC0
7E03E0
7801F0
F800F0
F000F0
F000F8
F00078
F00078
F00078
F000F0
F800F0
7C01F0
3E03E0
3FFFC0
0FFF80
07FE00
003000
ENDCHAR
STARTCHAR 0039
ENCODING 57
SWIDTH 540 0
DWIDTH 24 0
BBX 21 33 2 -1
BITMAP
01F800
07FE00
1FFF80
3F8FC0
3E03C0
7C01E0
7801E0
F800F0
F000F0
F000F0
F000F0
F000F8
F000F8
F000F8
F800F8
7801F8
7C03F8
3F8FF8
1FFF78
0FFE78
03F870
0000F0
0000F0
0000F0
3000F0
7001E0
7801E0
7803C0
3C07C0
3FFF80
1FFF00
07FC00
006000
ENDCHAR
STARTCHAR 003A
ENCODING 58
SWIDTH 270 0
DWIDTH 12 0
BBX 4 23 4 0
BITMAP
F0
F0
F0
F0
00
00
00
00
00
00
00
00
00
00
00
00
00
00
00
F0
F0
F0
F0
ENDCHAR
STARTCHAR 003B
ENCODING 59
SWIDTH 270 0
DWIDTH 12 0
BBX 4 29 4 -6
BITMAP
F0
F0
F0
F0
00
00
00
00
00
00
00
00
00
00
00
00
00
00
00
F0
F0
F0
F0
30
30
30
70
E0
C0
ENDCHAR
STARTCHAR 003C
ENCODING 60
SWIDTH 562 0
DWIDTH 25 0
BBX 22 21 2 5
BITMAP
00001C
00007C
0003FC
000FF8
003FE0
01FF00
07FC00
1FF000
FF8000
FE0000
F80000
FF0000
7FC000
0FF800
03FE00
00FF80
001FF0
0007FC
0001FC
00003C
00000C
ENDCHAR
STARTCHAR 003D
ENCODING 61
SWIDTH 562 0
DWIDTH 25 0
BBX 21 13 2 9
BITMAP
FFFFF8
FFFFF8
FFFFF8
000000
000000
000000
000000
000000
000000
FFFFF8
FFFFF8
FFFFF8
FFFFF8
ENDCHAR
STARTCHAR 003E
ENCODING 62
SWIDTH 562 0
DWIDTH 25 0
BBX 22 21 2 5
BITMAP
E00000
F80000
FE0000
7FC000
1FF000
07FE00
00FF80
003FE0
0007FC
0001FC
00007C
0003FC
000FF8
007FC0
01FF00
07FC00
3FE000
FF8000
FE0000
F00000
C00000
ENDCHAR
STARTCHAR 003F
ENCODING 63
SWIDTH 540 0
DWIDTH 24 0
BBX 20 32 2 0
BITMAP
03FE00
0FFF80
1FFFC0
3F07E0
7C01F0
7801F0
F800F0
F000F0
F000F0
0000F0
0000F0
0001F0
0001E0
0007E0
000FC0
001F80
003F00
003E00
007C00
007800
00F000
00F000
00F000
00F000
000000
000000
000000
000000
00F000
00F000
00F000
00F000
ENDCHAR
STARTCHAR 0040
ENCODING 64
SWIDTH 1012 0
DWIDTH 45 0
BBX 41 41 2 -9
BITMAP
0001FFF00000
000FFFFE0000
003FFFFF8000
007F001FC000
00FC0007E000
01F00001F000
03C000007800
078000003C00
0F0008001C00
0E00FF1E1E00
1E03FF9E0E00
1C07FFDE0F00
3C0F81FC0700
380F00FC0700
781E007C0700
783E007C0700
703C007C0700
703C00780700
707800780700
F07800780700
F07800780700
F07800700F00
F07800F00E00
F07800F01E00
707801F01C00
707801F03C00
707C03E07800
703C07E1F000
783F1FFFE000
381FFDFFC000
3C0FF8FF8000
1C03E07E0000
1E0000000780
0F0000000F00
078000001F00
03E000007C00
01F80001F800
00FF000FF000
003FFFFFC000
000FFFFF8000
0001FFFC0000
ENDCHAR
STARTCHAR 0041
ENCODING 65
SWIDTH 652 0
DWIDTH 29 0
BBX 30 32 0 0
BITMAP
000F8000
000F8000
001FC000
001FC000
003DC000
003DE000
003DE000
0078F000
0078F000
0078F800
00F07800
00F07800
01F07C00
01E03C00
01E03E00
03C01E00
03C01E00
07C01F00
07800F00
07FFFF80
0FFFFF80
0FFFFF80
0F0007C0
1E0003C0
1E0003E0
3E0003E0
3C0001E0
3C0001F0
7C0000F0
780000F8
F80000F8
F800007C
ENDCHAR
STARTCHAR 0042
ENCODING 66
SWIDTH 652 0
DWIDTH 29 0
BBX 24 32 3 0
BITMAP
FFFF00
FFFFE0
FFFFF0
FFFFF8
F000FC
F0007C
F0003C
F0003E
F0001E
F0001E
F0003C
F0003C
F00078
F00FF8
FFFFE0
FFFFE0
FFFFF8
F001FC
F0003E
F0001F
F0001F
F0000F
F0000F
F0000F
F0000F
F0001F
F0001F
F0007E
FFFFFC
FFFFFC
FFFFF0
FFFF80
ENDCHAR
STARTCHAR 0043
ENCODING 67
SWIDTH 720 0
DWIDTH 32 0
BBX 28 33 2 -1
BITMAP
003FF000
00FFFC00
03FFFF00
07F87F80
0FC00FC0
1F0007C0
3E0003E0
3E0001E0
7C0001F0
7C000180
78000000
78000000
F8000000
F8000000
F8000000
F8000000
F8000000
F8000000
F8000000
F8000000
78000000
780000E0
7C0000F0
3C0001F0
3E0001E0
3E0003E0
1F0007C0
0FC00FC0
0FF03F80
07FFFF00
01FFFE00
007FF800
00078000
ENDCHAR
STARTCHAR 0044
ENCODING 68
SWIDTH 720 0
DWIDTH 32 0
BBX 27 32 3 0
BITMAP
FFFE0000
FFFFF000
FFFFF800
FFFFFC00
F800FE00
F8003F00
F8001F80
F8000F80
F80007C0
F80007C0
F80003C0
F80003C0
F80003C0
F80003E0
F80003E0
F80003E0
F80003E0
F80003E0
F80003E0
F80003C0
F80003C0
F80003C0
F80007C0
F8000780
F8000F80
F8000F80
F8001F00
F8007E00
FFFFFC00
FFFFF800
FFFFF000
FFFF8000
ENDCHAR
STARTCHAR 0045
ENCODING 69
SWIDTH 652 0
DWIDTH 29 0
BBX 23 32 4 0
BITMAP
FFFFFE
FFFFFE
FFFFFE
FFFFFE
F00000
F00000
F00000
F00000
F00000
F00000
F00000
F00000
F00000
F00000
FFFFF8
FFFFF8
FFFFF8
F00000
F00000
F00000
F00000
F00000
F00000
F00000
F00000
F00000
F00000
F00000
FFFFFE
FFFFFE
FFFFFE
FFFFFE
ENDCHAR
STARTCHAR 0046
ENCODING 70
SWIDTH 607 0
DWIDTH 27 0
BBX 21 32 4 0
BITMAP
FFFFF8
FFFFF8
FFFFF8
FFFFF8
F00000
F00000
F00000
F00000
F00000
F00000
F00000
F00000
F00000
F00000
FFFFE0
FFFFE0
FFFFE0
FFFFE0
F00000
F00000
F00000
F00000
F00000
F00000
F00000
F00000
F00000
F00000
F00000
F00000
F00000
F00000
ENDCHAR
STARTCHAR 0047
ENCODING 71
SWIDTH 765 0
DWIDTH 34 0
BBX 30 33 2 -1
BITMAP
001FFC00
00FFFF00
03FFFFC0
07F81FE0
0FE003E0
0F8001F0
1F0000F0
3E0000F8
3C000078
7C000070
7C000000
78000000
78000000
78000000
F8000000
F8000000
F800FFFC
F800FFFC
F800FFFC
7800FFFC
7800003C
7800003C
7C00003C
3C00003C
3E00003C
1F00003C
1F8000FC
0FE003FC
07FC1FF8
03FFFFE0
00FFFF80
003FFE00
00008000
ENDCHAR
STARTCHAR 0048
ENCODING 72
SWIDTH 720 0
DWIDTH 32 0
BBX 25 32 4 0
BITMAP
F0000F80
F0000F80
F0000F80
F0000F80
F0000F80
F0000F80
F0000F80
F0000F80
F0000F80
F0000F80
F0000F80
F0000F80
F0000F80
FFFFFF80
FFFFFF80
FFFFFF80
FFFFFF80
F0000F80
F0000F80
F0000F80
F0000F80
F0000F80
F0000F80
F0000F80
F0000F80
F0000F80
F0000F80
F0000F80
F0000F80
F0000F80
F0000F80
F0000F80
ENDCHAR
STARTCHAR 0049
ENCODING 73
SWIDTH 270 0
DWIDTH 12 0
BBX 4 32 4 0
BITMAP
F0
F0
F0
F0
F0
F0
F0
F0
F0
F0
F0
F0
F0
F0
F0
F0
F0
F0
F0
F0
F0
F0
F0
F0
F0
F0
F0
F0
F0
F0
F0
F0
ENDCHAR
STARTCHAR 004A
ENCODING 74
SWIDTH 495 0
DWIDTH 22 0
BBX 18 33 1 -1
BITMAP
0003C0
0003C0
0003C0
0003C0
0003C0
0003C0
0003C0
0003C0
0003C0
0003C0
0003C0
0003C0
0003C0
0003C0
0003C0
0003C0
0003C0
0003C0
0003C0
0003C0
0003C0
0003C0
0003C0
F003C0
F007C0
F007C0
780780
7C0F80
7E1F80
3FFF00
1FFE00
0FFC00
018000
ENDCHAR
STARTCHAR 004B
ENCODING 75
SWIDTH 652 0
DWIDTH 29 0
BBX 26 32 3 0
BITMAP
F0000FC0
F0001F80
F0003F00
F0007E00
F000FC00
F001F000
F003E000
F007C000
F00F8000
F01F0000
F03E0000
F07C0000
F0F80000
F1F80000
F3FC0000
F7FC0000
FFBE0000
FF1F0000
FE1F8000
FC0F8000
F807C000
F003E000
F003F000
F001F000
F000F800
F000FC00
F0007E00
F0003E00
F0001F00
F0001F80
F0000F80
F00007C0
ENDCHAR
STARTCHAR 004C
ENCODING 76
SWIDTH 540 0
DWIDTH 24 0
BBX 20 32 3 0
BITMAP
F00000
F00000
F00000
F00000
F00000
F00000
F00000
F00000
F00000
F00000
F00000
F00000
F00000
F00000
F00000
F00000
F00000
F00000
F00000
F00000
F00000
F00000
F00000
F00000
F00000
F00000
F00000
F00000
FFFFF0
FFFFF0
FFFFF0
FFFFF0
ENDCHAR
STARTCHAR 004D
ENCODING 77
SWIDTH 832 0
DWIDTH 37 0
BBX 31 32 3 0
BITMAP
FE00007E
FE00007E
FE0000FE
FF0000FE
FF0001FE
F70001FE
F78001DE
F78003DE
F38003DE
F3C0039E
F3C0079E
F1C0071E
F1E0071E
F1E00F1E
F0E00E1E
F0F00E1E
F0F01E1E
F0701C1E
F0781C1E
F0783C1E
F038381E
F03C381E
F03C781E
F01C701E
F01E701E
F01EF01E
F00EE01E
F00FE01E
F00FE01E
F007C01E
F007C01E
F007C01E
ENDCHAR
STARTCHAR 004E
ENCODING 78
SWIDTH 720 0
DWIDTH 32 0
BBX 25 32 3 0
BITMAP
F8000780
FC000780
FC000780
FE000780
FF000780
FF000780
FF800780
F7C00780
F7C00780
F3E00780
F1F00780
F1F00780
F0F80780
F07C0780
F07C0780
F03E0780
F01F0780
F01F0780
F00F8780
F007C780
F007C780
F003E780
F001F780
F001F780
F000FF80
F0007F80
F0007F80
F0003F80
F0001F80
F0001F80
F0000F80
F0000780
ENDCHAR
STARTCHAR 004F
ENCODING 79
SWIDTH 765 0
DWIDTH 34 0
BBX 31 33 2 -1
BITMAP
003FF800
00FFFE00
03FFFF00
07F87FC0
0FC00FE0
1F8003E0
1F0001F0
3E0000F8
3C0000F8
7C000078
7800007C
7800003C
F800003C
F800003C
F800003C
F800003E
F000003E
F000003E
F800003C
F800003C
7800003C
7800007C
7C00007C
3C000078
3E0000F8
1E0001F0
1F0003F0
0FC007E0
07F01FC0
03FFFF80
00FFFE00
007FF800
00010000
ENDCHAR
STARTCHAR 0050
ENCODING 80
SWIDTH 652 0
DWIDTH 29 0
BBX 25 32 3 0
BITMAP
FFFF8000
FFFFF000
FFFFFC00
FFFFFE00
F8007E00
F8001F00
F8000F00
F8000F80
F8000F80
F8000F80
F8000F80
F8000F80
F8000F00
F8001F00
F8003E00
FFFFFE00
FFFFFC00
FFFFF800
FFFFC000
F8000000
F8000000
F8000000
F8000000
F8000000
F8000000
F8000000
F8000000
F8000000
F8000000
F8000000
F8000000
F8000000
ENDCHAR
STARTCHAR 0051
ENCODING 81
SWIDTH 765 0
DWIDTH 34 0
BBX 31 34 2 -2
BITMAP
003FF000
00FFFE00
03FFFF00
07F87F80
0FC00FC0
1F0003E0
3E0001F0
3C0000F0
7C0000F8
78000078
7800007C
F800007C
F800003C
F000003C
F000003C
F000003C
F000003C
F000003C
F000003C
F800003C
F800007C
7800007C
78000078
7C0080F8
3C00F0F8
3E01F9F0
1F00FFE0
0FC03FE0
07F03FC0
03FFFFE0
01FFFFF8
007FF8FE
0007803E
0000001C
ENDCHAR
STARTCHAR 0052
ENCODING 82
SWIDTH 720 0
DWIDTH 32 0
BBX 28 32 3 0
BITMAP
FFFFE000
FFFFFC00
FFFFFE00
FFFFFF00
F8001F80
F8000F80
F80007C0
F80007C0
F80003C0
F80003C0
F80007C0
F80007C0
F8000F80
F8001F80
FFFFFF00
FFFFFE00
FFFFF800
FFFF8000
F807E000
F801F000
F800F800
F800FC00
F8007C00
F8003E00
F8003F00
F8001F00
F8000F80
F8000FC0
F80007C0
F80003E0
F80003F0
F80001F0
ENDCHAR
STARTCHAR 0053
ENCODING 83
SWIDTH 652 0
DWIDTH 29 0
BBX 25 33 2 -1
BITMAP
01FFC000
07FFF000
0FFFF800
1FE3FC00
3E003E00
3C001F00
7C001F00
78000F00
78000F00
78000000
7C000000
3E000000
3FC00000
1FFC0000
0FFFC000
03FFF000
007FFC00
000FFE00
0000FF00
00001F80
00000F80
10000780
F0000780
F0000780
F8000780
78000780
7C000F80
3F001F00
3FE0FE00
1FFFFC00
07FFF800
01FFE000
00040000
ENDCHAR
STARTCHAR 0054
ENCODING 84
SWIDTH 607 0
DWIDTH 27 0
BBX 25 32 1 0
BITMAP
FFFFFF80
FFFFFF80
FFFFFF80
FFFFFF80
001E0000
001E0000
001E0000
001E0000
001E0000
001E0000
001E0000
001E0000
001E0000
001E0000
001E0000
001E0000
001E0000
001E0000
001E0000
001E0000
001E0000
001E0000
001E0000
001E0000
001E0000
001E0000
001E0000
001E0000
001E0000
001E0000
001E0000
001E0000
ENDCHAR
STARTCHAR 0055
ENCODING 85
SWIDTH 720 0
DWIDTH 32 0
BBX 26 33 3 -1
BITMAP
F80007C0
F80007C0
F80007C0
F80007C0
F80007C0
F80007C0
F80007C0
F80007C0
F80007C0
F80007C0
F80007C0
F80007C0
F80007C0
F80007C0
F80007C0
F80007C0
F80007C0
F80007C0
F80007C0
F8000780
78000780
78000780
78000780
78000780
78000780
7C000F80
3E001F00
3F003F00
1FC1FE00
0FFFFC00
07FFF800
01FFE000
00060000
ENDCHAR
STARTCHAR 0056
ENCODING 86
SWIDTH 652 0
DWIDTH 29 0
BBX 29 32 0 0
BITMAP
F8000078
780000F8
7C0000F0
7C0000F0
3C0001F0
3E0001E0
1E0001E0
1E0003C0
1F0003C0
0F0003C0
0F000780
07800780
07800F00
07C00F00
03C00F00
03C01E00
01E01E00
01E01E00
01E03C00
00F03C00
00F07800
00F07800
00787800
0078F000
0038F000
003CE000
003DE000
001DE000
001FC000
000FC000
000F8000
000F8000
ENDCHAR
STARTCHAR 0057
ENCODING 87
SWIDTH 922 0
DWIDTH 41 0
BBX 40 32 1 0
BITMAP
F0007E000F
F0007E000F
F0007E000F
F8007F001F
7800FF001E
7800FF001E
7800E7001E
7C01E7803C
3C01E7803C
3C01E7803C
3C01C3C03C
1C03C3C078
1E03C3C078
1E0381C078
1E0781E078
0E0781E0F0
0F0781E0F0
0F0700E0F0
0F0F00F0E0
070F00F1E0
078F00F1E0
078E0071E0
079E0079C0
039E0079C0
039C003BC0
03DC003BC0
01FC003B80
01FC003F80
01F8001F80
01F8001F00
00F8001F00
00F0000F00
ENDCHAR
STARTCHAR 0058
ENCODING 88
SWIDTH 652 0
DWIDTH 29 0
BBX 28 32 1 0
BITMAP
7C0001E0
3E0003E0
3E0007C0
1F000F80
0F800F00
0F801F00
07C03E00
03E07C00
01F07800
01F0F800
00F9F000
007FE000
007FC000
003FC000
001F8000
001F8000
001F8000
003FC000
007FE000
00FBE000
00F1F000
01F0F800
03E0FC00
07C07C00
07C03E00
0F801F00
1F001F00
1F000F80
3E0007C0
7C0007E0
F80003E0
F80001F0
ENDCHAR
STARTCHAR 0059
ENCODING 89
SWIDTH 652 0
DWIDTH 29 0
BBX 29 32 0 0
BITMAP
F80000F8
7C0000F0
3E0001F0
3E0003E0
1F0003C0
0F8007C0
0F800F80
07C00F00
03E01F00
03E03E00
01F03C00
00F87800
00F8F800
007CF000
003DE000
003FE000
001FC000
000F8000
000F8000
000F8000
000F8000
000F8000
000F8000
000F8000
000F8000
000F8000
000F8000
000F8000
000F8000
000F8000
000F8000
000F8000
ENDCHAR
STARTCHAR 005A
ENCODING 90
SWIDTH 607 0
DWIDTH 27 0
BBX 25 32 1 0
BITMAP
3FFFFF80
3FFFFF80
3FFFFF80
3FFFFF80
00001F00
00003E00
00007C00
0000FC00
0000F800
0001F000
0003E000
0007C000
000FC000
000F8000
001F0000
003E0000
007C0000
00FC0000
00F80000
01F00000
03E00000
07C00000
0FC00000
0F800000
1F000000
3E000000
7C000000
F8000000
FFFFFF80
FFFFFF80
FFFFFF80
FFFFFF80
ENDCHAR
STARTCHAR 005B
ENCODING 91
SWIDTH 270 0
DWIDTH 12 0
BBX 9 41 3 -9
BITMAP
FF80
FF80
FF80
F000
F000
F000
F000
F000
F000
F000
F000
F000
F000
F000
F000
F000
F000
F000
F000
F000
F000
F000
F000
F000
F000
F000
F000
F000
F000
F000
F000
F000
F000
F000
F000
F000
F000
F000
FF80
FF80
FF80
ENDCHAR
STARTCHAR 005C
ENCODING 92
SWIDTH 270 0
DWIDTH 12 0
BBX 12 33 0 -1
BITMAP
E000
7000
7000
7000
7000
3800
3800
3800
3C00
1C00
1C00
1C00
0E00
0E00
0E00
0F00
0700
0700
0700
0380
0380
0380
03C0
01C0
01C0
01C0
00E0
00E0
00E0
00E0
0070
0070
0070
ENDCHAR
STARTCHAR 005D
ENCODING 93
SWIDTH 270 0
DWIDTH 12 0
BBX 8 41 1 -9
BITMAP
FF
FF
FF
07
07
07
07
07
07
07
07
07
07
07
07
07
07
07
07
07
07
07
07
07
07
07
07
07
07
07
07
07
07
07
07
07
07
07
FF
FF
FF
ENDCHAR
STARTCHAR 005E
ENCODING 94
SWIDTH 450 0
DWIDTH 20 0
BBX 18 17 1 15
BITMAP
01E000
01F000
01F000
03F800
03B800
07BC00
073C00
0F1C00
0F1E00
1E0E00
1E0F00
1C0F00
3C0780
3C0780
7803C0
7803C0
F001C0
ENDCHAR
STARTCHAR 005F
ENCODING 95
SWIDTH 540 0
DWIDTH 24 0
BBX 26 3 -1 -9
BITMAP
FFFFFFC0
FFFFFFC0
FFFFFFC0
ENDCHAR
STARTCHAR 0060
ENCODING 96
SWIDTH 315 0
DWIDTH 14 0
BBX 8 6 2 26
BITMAP
F8
7C
3C
1E
0E
0F
ENDCHAR
STARTCHAR 0061
ENCODING 97
SWIDTH 540 0
DWIDTH 24 0
BBX 21 25 2 -1
BITMAP
007000
07FF00
1FFFC0
3FFFE0
7C03E0
7801E0
7801F0
F000F0
0000F0
0001F0
003FF0
07FFF0
1FFEF0
7FF0F0
7C00F0
F800F0
F001F0
F001F0
F001F0
F003F0
F80FF0
7FFFF0
7FFCF0
1FF078
030000
ENDCHAR
STARTCHAR 0062
ENCODING 98
SWIDTH 540 0
DWIDTH 24 0
BBX 20 33 3 -1
BITMAP
F00000
F00000
F00000
F00000
F00000
F00000
F00000
F00000
F02000
F3FE00
F7FF00
FFFF80
FE07C0
FC03C0
F801E0
F001E0
F001E0
F000F0
F000F0
F000F0
F000F0
F000F0
F000F0
F000F0
F001E0
F001E0
F803E0
FC03C0
FE0FC0
FFFF80
F7FF00
F3FC00
002000
ENDCHAR
STARTCHAR 0063
ENCODING 99
SWIDTH 495 0
DWIDTH 22 0
BBX 20 24 2 -1
BITMAP
003000
07FE00
0FFF80
1FFFC0
3E07C0
7C03E0
7801E0
F801E0
F00000
F00000
F00000
F00000
F00000
F00000
F00000
F00000
F000F0
F801E0
7801E0
7C03E0
3E07C0
1FFF80
0FFF00
07FE00
ENDCHAR
STARTCHAR 0064
ENCODING 100
SWIDTH 540 0
DWIDTH 24 0
BBX 20 33 2 -1
BITMAP
0000F0
0000F0
0000F0
0000F0
0000F0
0000F0
0000F0
0000F0
0040F0
07F8F0
1FFEF0
3FFFF0
3E07F0
7C03F0
7801F0
F001F0
F001F0
F000F0
F000F0
F000F0
F000F0
F000F0
F000F0
F000F0
F001F0
F001F0
7801F0
7C03F0
3E07F0
1FFFF0
0FFEF0
07F8F0
004000
ENDCHAR
STARTCHAR 0065
ENCODING 101
SWIDTH 540 0
DWIDTH 24 0
BBX 21 25 2 -1
BITMAP
002000
07FE00
0FFF80
1FFFC0
3E03E0
7C01E0
7800F0
F800F0
F000F0
F00078
FFFFF8
FFFFF8
FFFFF8
F00000
F00000
F00000
F00000
F800F8
7800F0
7C01F0
3E03E0
1FFFC0
0FFF80
03FF00
003000
ENDCHAR
STARTCHAR 0066
ENCODING 102
SWIDTH 270 0
DWIDTH 12 0
BBX 14 32 0 0
BITMAP
03FC
07FC
07F8
0F80
0F00
0F00
0F00
0F00
0F00
FFF0
FFF0
FFF0
0F00
0F00
0F00
0F00
0F00
0F00
0F00
0F00
0F00
0F00
0F00
0F00
0F00
0F00
0F00
0F00
0F00
0F00
0F00
0F00
ENDCHAR
STARTCHAR 0067
ENCODING 103
SWIDTH 540 0
DWIDTH 24 0
BBX 21 33 1 -9
BITMAP
007000
03FE78
0FFF78
1FFFF8
1F03F8
3E01F8
3C00F8
7800F8
780078
780078
780078
F00078
F00078
F00078
780078
780078
7800F8
7800F8
3C01F8
3E03F8
1F8FF8
0FFF78
07FE78
01F878
000078
000070
7800F0
7800F0
3C01F0
3E03E0
1FFFC0
0FFF80
07FE00
ENDCHAR
STARTCHAR 0068
ENCODING 104
SWIDTH 540 0
DWIDTH 24 0
BBX 19 32 3 0
BITMAP
F00000
F00000
F00000
F00000
F00000
F00000
F00000
F00000
F02000
F3FE00
F7FF80
FFFF80
FE07C0
FC03C0
F803E0
F001E0
F001E0
F001E0
F001E0
F001E0
F001E0
F001E0
F001E0
F001E0
F001E0
F001E0
F001E0
F001E0
F001E0
F001E0
F001E0
F001E0
ENDCHAR
STARTCHAR 0069
ENCODING 105
SWIDTH 202 0
DWIDTH 9 0
BBX 4 32 3 0
BITMAP
F0
F0
F0
F0
F0
00
00
00
00
F0
F0
F0
F0
F0
F0
F0
F0
F0
F0
F0
F0
F0
F0
F0
F0
F0
F0
F0
F0
F0
F0
F0
ENDCHAR
STARTCHAR 006A
ENCODING 106
SWIDTH 202 0
DWIDTH 9 0
BBX 9 41 -2 -9
BITMAP
0780
0780
0780
0780
0780
0000
0000
0000
0000
0780
0780
0780
0780
0780
0780
0780
0780
0780
0780
0780
0780
0780
0780
0780
0780
0780
0780
0780
0780
0780
0780
0780
0780
0780
0780
0780
0780
0F00
FF00
FE00
FC00
ENDCHAR
STARTCHAR 006B
ENCODING 107
SWIDTH 495 0
DWIDTH 22 0
BBX 19 32 3 0
BITMAP
F00000
F00000
F00000
F00000
F00000
F00000
F00000
F00000
F00000
F007C0
F00F80
F01F00
F03E00
F07800
F0F000
F1E000
F3C000
F78000
FFC000
FFE000
FDE000
F9F000
F0F800
F07800
F07C00
F03E00
F01E00
F01F00
F00F80
F00780
F007C0
F003E0
ENDCHAR
STARTCHAR 006C
ENCODING 108
SWIDTH 202 0
DWIDTH 9 0
BBX 4 32 3 0
BITMAP
F0
F0
F0
F0
F0
F0
F0
F0
F0
F0
F0
F0
F0
F0
F0
F0
F0
F0
F0
F0
F0
F0
F0
F0
F0
F0
F0
F0
F0
F0
F0
F0
ENDCHAR
STARTCHAR 006D
ENCODING 109
SWIDTH 832 0
DWIDTH 37 0
BBX 31 24 3 0
BITMAP
00300000
E3FE0FF0
E7FF1FF8
EFFF3FFC
FE0FF03E
FC07E01E
F807C01E
F003C01E
F003C01E
F003C01E
F003C01E
F003C01E
F003C01E
F003C01E
F003C01E
F003C01E
F003C01E
F003C01E
F003C01E
F003C01E
F003C01E
F003C01E
F003C01E
F003C01E
ENDCHAR
STARTCHAR 006E
ENCODING 110
SWIDTH 540 0
DWIDTH 24 0
BBX 19 24 3 0
BITMAP
002000
E3FE00
E7FF80
EFFF80
FE07C0
FC03C0
F803E0
F001E0
F001E0
F001E0
F001E0
F001E0
F001E0
F001E0
F001E0
F001E0
F001E0
F001E0
F001E0
F001E0
F001E0
F001E0
F001E0
F001E0
ENDCHAR
STARTCHAR 006F
ENCODING 111
SWIDTH 540 0
DWIDTH 24 0
BBX 22 24 1 -1
BITMAP
001800
03FF00
07FFC0
1FFFE0
1F03F0
3E00F8
3C0078
780078
78003C
78003C
78003C
F8003C
F0003C
F0003C
78003C
78003C
78007C
780078
3C0078
3E00F8
1F03F0
0FFFE0
07FFC0
03FF00
ENDCHAR
STARTCHAR 0070
ENCODING 112
SWIDTH 540 0
DWIDTH 24 0
BBX 20 33 3 -9
BITMAP
002000
E3FE00
E7FF00
EFFF80
FE07C0
FC03C0
F801E0
F001E0
F001E0
F000F0
F000F0
F000F0
E000F0
E000F0
F000F0
F000F0
F001E0
F001E0
F801E0
FC03C0
FE07C0
FFFF80
F7FF00
F3FC00
F02000
F00000
F00000
F00000
F00000
F00000
F00000
F00000
F00000
ENDCHAR
STARTCHAR 0071
ENCODING 113
SWIDTH 540 0
DWIDTH 24 0
BBX 20 33 2 -9
BITMAP
004000
07F8F0
1FFEF0
3FFFF0
3E07F0
7C03F0
7801F0
F001F0
F001F0
F000F0
F000F0
F000F0
F000F0
F000F0
F000F0
F000F0
F000F0
F001F0
7801F0
7C03F0
3E07F0
1FFFF0
0FFEF0
07F8F0
0040F0
0000F0
0000F0
0000F0
0000F0
0000F0
0000F0
0000F0
0000F0
ENDCHAR
STARTCHAR 0072
ENCODING 114
SWIDTH 315 0
DWIDTH 14 0
BBX 12 24 3 0
BITMAP
0080
E3F0
E7F0
EFF0
FFE0
FC00
F800
F000
F000
F000
F000
F000
F000
F000
F000
F000
F000
F000
F000
F000
F000
F000
F000
F000
ENDCHAR
STARTCHAR 0073
ENCODING 115
SWIDTH 495 0
DWIDTH 22 0
BBX 19 24 1 -1
BITMAP
004000
07FE00
1FFF00
3FFF80
3C07C0
7803C0
7801E0
780000
7C0000
3F0000
3FF000
1FFE00
07FF80
00FFC0
001FE0
0003E0
0001E0
F001E0
7801E0
7801E0
3E03E0
3FFFC0
1FFF80
07FE00
ENDCHAR
STARTCHAR 0074
ENCODING 116
SWIDTH 270 0
DWIDTH 12 0
BBX 11 31 1 0
BITMAP
0200
0E00
1E00
1E00
1E00
1E00
1E00
1E00
FFC0
FFC0
FFC0
1E00
1E00
1E00
1E00
1E00
1E00
1E00
1E00
1E00
1E00
1E00
1E00
1E00
1E00
1E00
1E00
1F00
1FE0
1FE0
07E0
ENDCHAR
STARTCHAR 0075
ENCODING 117
SWIDTH 540 0
DWIDTH 24 0
BBX 19 24 3 -1
BITMAP
F001E0
F001E0
F001E0
F001E0
F001E0
F001E0
F001E0
F001E0
F001E0
F001E0
F001E0
F001E0
F001E0
F001E0
F003E0
F003E0
F003E0
F003E0
F807E0
7C1FE0
7FFDE0
3FF9E0
1FF1E0
008000
ENDCHAR
STARTCHAR 0076
ENCODING 118
SWIDTH 495 0
DWIDTH 22 0
BBX 21 23 1 0
BITMAP
F000F8
F000F0
7800F0
7801E0
7801E0
3C01E0
3C03C0
3C03C0
1E0380
1E0780
0E0780
0F0F00
0F0F00
078F00
079E00
079E00
03DC00
03FC00
01FC00
01F800
01F800
00F800
00F000
ENDCHAR
STARTCHAR 0077
ENCODING 119
SWIDTH 720 0
DWIDTH 32 0
BBX 32 23 0 0
BITMAP
F003C00F
7803C01E
7807E01E
7807E01E
3807E01C
3C07F03C
3C0FF03C
3C0EF038
1E0E7078
1E1E7878
1E1E7870
0E1C7870
0F1C38F0
0F3C3CF0
073C3CE0
07383DE0
07B81DE0
07F81FC0
03F01FC0
03F00FC0
03F00F80
01F00F80
01E00F80
ENDCHAR
STARTCHAR 0078
ENCODING 120
SWIDTH 495 0
DWIDTH 22 0
BBX 21 23 1 0
BITMAP
F801F0
7C03E0
3E03C0
3E07C0
1F0F80
0F0F00
079E00
07FE00
03FC00
01F800
01F800
01F800
01FC00
03FC00
07FE00
079F00
0F0F00
1F0F80
3E07C0
3C03C0
7C03E0
F801F0
F000F8
ENDCHAR
STARTCHAR 0079
ENCODING 121
SWIDTH 495 0
DWIDTH 22 0
BBX 21 32 1 -9
BITMAP
F00078
F000F0
7800F0
7800F0
7C01E0
3C01E0
3C01C0
1E03C0
1E03C0
1E0780
0F0780
0F0780
0F0F00
078F00
078E00
039E00
03DE00
03DC00
01FC00
01FC00
01F800
00F800
00F000
00F000
00F000
00E000
01E000
03C000
6FC000
7F8000
3F8000
3E0000
ENDCHAR
STARTCHAR 007A
ENCODING 122
SWIDTH 495 0
DWIDTH 22 0
BBX 20 23 1 0
BITMAP
7FFFF0
7FFFF0
7FFFF0
0003E0
0007C0
000F80
001F00
001E00
003C00
007C00
00F800
01F000
03E000
07C000
0F8000
0F8000
1F0000
3E0000
7C0000
F80000
FFFFF0
FFFFF0
FFFFF0
ENDCHAR
STARTCHAR 007B
ENCODING 123
SWIDTH 315 0
DWIDTH 14 0
BBX 13 41 1 -9
BITMAP
01F8
03F8
03F8
07C0
0780
0780
0700
0700
0700
0700
0700
0700
0700
0700
0F00
0F00
0F00
1E00
3E00
FC00
F000
FC00
3E00
1E00
0F00
0F00
0700
0700
0700
0700
0700
0700
0700
0700
0700
0780
0780
07C0
03F8
03F8
01F8
ENDCHAR
STARTCHAR 007C
ENCODING 124
SWIDTH 247 0
DWIDTH 11 0
BBX 3 41 4 -9
BITMAP
E0
E0
E0
E0
E0
E0
E0
E0
E0
E0
E0
E0
E0
E0
E0
E0
E0
E0
E0
E0
E0
E0
E0
E0
E0
E0
E0
E0
E0
E0
E0
E0
E0
E0
E0
E0
E0
E0
E0
E0
E0
ENDCHAR
STARTCHAR 007D
ENCODING 125
SWIDTH 315 0
DWIDTH 14 0
BBX 13 41 1 -9
BITMAP
F800
FE00
FE00
1F00
0F00
0F00
0F00
0F00
0F00
0F00
0F00
0F00
0F00
0700
0700
0700
0780
03C0
03E0
01F8
0078
01F8
03E0
03C0
0780
0700
0700
0700
0F00
0F00
0F00
0F00
0F00
0F00
0F00
0F00
0F00
1F00
FE00
FE00
F800
ENDCHAR
STARTCHAR 007E
ENCODING 126
SWIDTH 562 0
DWIDTH 25 0
BBX 22 7 2 12
BITMAP
1FC004
7FF00C
FFFE3C
FFFFFC
E0FFFC
C01FF8
0007E0
ENDCHAR
STARTCHAR 00A0
ENCODING 160
SWIDTH 270 0
DWIDTH 12 0
BBX 0 0 0 0
BITMAP
ENDCHAR
STARTCHAR 00A1
ENCODING 161
SWIDTH 315 0
DWIDTH 14 0
BBX 5 32 5 -9
BITMAP
F8
F8
F8
F8
00
00
00
00
70
70
70
70
70
70
70
70
70
F0
F0
F8
F8
F8
F8
F8
F8
F8
F8
F8
F8
F8
F8
F8
ENDCHAR
STARTCHAR 00A2
ENCODING 162
SWIDTH 540 0
DWIDTH 24 0
BBX 20 41 2 -9
BITMAP
000100
000180
000380
000380
000380
000300
000700
000700
007600
03FF00
0FFF80
1FFFC0
3E0FE0
3C1DE0
7C1CF0
7818F0
783800
783800
F03000
F03000
F07000
F07000
F06000
78E000
78E0F0
78C0F0
7DC0F0
3DC1E0
3FC3E0
1FFFC0
0FFF80
03FE00
033000
070000
070000
070000
060000
0E0000
0E0000
0C0000
040000
ENDCHAR
STARTCHAR 00A3
ENCODING 163
SWIDTH 540 0
DWIDTH 24 0
BBX 22 33 1 -1
BITMAP
00FF00
03FFC0
07FFE0
0F81F0
1F00F8
1E0078
3E0078
3C003C
3C0000
3C0000
3E0000
3E0000
1E0000
1E0000
FFFC00
FFFC00
FFFC00
FFFC00
0F8000
078000
078000
0F0000
0F0000
0F0000
0E0000
1E0000
3C0000
7BC000
FFFE1C
FFFFFC
FFFFFC
600FFC
000040
ENDCHAR
STARTCHAR 00A4
ENCODING 164
SWIDTH 540 0
DWIDTH 24 0
BBX 21 21 2 5
BITMAP
600020
F1F870
FFFEF8
7FFFF0
3FFFE0
3E07C0
3C03E0
7801E0
7800E0
7800E0
7800E0
7800E0
7801E0
3C01E0
3E03C0
3F0FC0
7FFFE0
FFFFF0
F3FCF8
600070
200020
ENDCHAR
STARTCHAR 00A5
ENCODING 165
SWIDTH 540 0
DWIDTH 24 0
BBX 24 32 0 0
BITMAP
F0000F
78001F
7C001E
3C003E
3E003C
1E007C
0F0078
0F00F0
0781F0
0781E0
03C3E0
03E3C0
01E7C0
00F780
00FF00
007F00
7FFFFE
7FFFFE
7FFFFE
003C00
003C00
003C00
7FFFFE
7FFFFE
7FFFFE
003C00
003C00
003C00
003C00
003C00
003C00
003C00
ENDCHAR
STARTCHAR 00A6
ENCODING 166
SWIDTH 247 0
DWIDTH 11 0
BBX 3 41 4 -9
BITMAP
E0
E0
E0
E0
E0
E0
E0
E0
E0
E0
E0
E0
E0
E0
E0
E0
E0
00
00
00
00
00
00
00
E0
E0
E0
E0
E0
E0
E0
E0
E0
E0
E0
E0
E0
E0
E0
E0
E0
ENDCHAR
STARTCHAR 00A7
ENCODING 167
SWIDTH 540 0
DWIDTH 24 0
BBX 21 41 2 -9
BITMAP
03FC00
0FFF00
1FFF80
1F07C0
3C03C0
3C03C0
3C01E0
3C0100
3E0000
1F0000
1F8000
0FC000
1FF000
3DFC00
78FE00
F03F80
E01FC0
E007E0
E003F0
F001F0
F800F8
7C0078
7E0078
3F8070
1FC0F0
07F0F0
03FFE0
00FF80
003F00
001F80
000FC0
0003E0
0001E0
7801E0
7801E0
3C01E0
3E03E0
3F07C0
1FFFC0
0FFF80
03FE00
ENDCHAR
STARTCHAR 00A8
ENCODING 168
SWIDTH 315 0
DWIDTH 14 0
BBX 13 4 1 28
BITMAP
F0F8
F0F8
F0F8
F0F8
ENDCHAR
STARTCHAR 00A9
ENCODING 169
SWIDTH 720 0
DWIDTH 32 0
BBX 33 32 0 0
BITMAP
001FFC0000
007FFF0000
01FE3FC000
03E003E000
078000F000
0F00007800
1E00003C00
3C07F01C00
381FFC0E00
703E3E0E00
70780E0700
7070070700
E0E0040300
E0E0000380
E0E0000380
E0E0000380
E0E0000380
E0E0000380
E0E0000380
E0E0070300
7070070700
70780F0700
703E3E0E00
381FFC0E00
3C0FF01C00
1E00003C00
0F00007800
078000F000
03E003E000
01FE3FC000
007FFF0000
001FFC0000
ENDCHAR
STARTCHAR 00AA
ENCODING 170
SWIDTH 360 0
DWIDTH 16 0
BBX 14 16 1 16
BITMAP
1FF0
3FF8
7878
703C
301C
001C
07FC
3FFC
7F1C
F03C
E03C
E03C
F07C
7FFC
7FDC
1F00
ENDCHAR
STARTCHAR 00AB
ENCODING 171
SWIDTH 540 0
DWIDTH 24 0
BBX 18 19 3 2
BITMAP
03C1C0
038380
070780
0F0700
1E0F00
1E1E00
3C3E00
7C3C00
787800
F0F800
787800
783C00
3C3C00
1E1E00
1E0F00
0F0700
070780
078380
03C1C0
ENDCHAR
STARTCHAR 00AC
ENCODING 172
SWIDTH 562 0
DWIDTH 25 0
BBX 21 13 2 9
BITMAP
FFFFF8
FFFFF8
FFFFF8
000038
000038
000038
000038
000038
000038
000038
000038
000038
000038
ENDCHAR
STARTCHAR 00AD
ENCODING 173
SWIDTH 315 0
DWIDTH 14 0
BBX 12 3 1 10
BITMAP
FFF0
FFF0
FFF0
ENDCHAR
STARTCHAR 00AE
ENCODING 174
SWIDTH 720 0
DWIDTH 32 0
BBX 33 32 0 0
BITMAP
001FFC0000
007FFF0000
01FE3FC000
03E003E000
078000F000
0F00007800
1E00003C00
3C7F001C00
387FF80E00
707FFC0E00
70701C0700
70700E0700
E0700E0300
E0700E0380
E0701C0380
E07FFC0380
E07FF00380
E07FC00380
E070F00380
E070700300
7070380700
70701C0700
70701C0E00
38700E0E00
3C700F1C00
1E00003C00
0F00007800
078000F000
03E003E000
01FE3FC000
007FFF0000
001FFC0000
ENDCHAR
STARTCHAR 00AF
ENCODING 175
SWIDTH 540 0
DWIDTH 24 0
BBX 26 3 -1 34
BITMAP
FFFFFFC0
FFFFFFC0
FFFFFFC0
ENDCHAR
STARTCHAR 00B0
ENCODING 176
SWIDTH 382 0
DWIDTH 17 0
BBX 12 12 3 20
BITMAP
1F80
7FC0
70E0
E060
C070
C070
C070
E070
F0E0
7FC0
3F80
0600
ENDCHAR
STARTCHAR 00B1
ENCODING 177
SWIDTH 540 0
DWIDTH 24 0
BBX 21 27 2 0
BITMAP
00F000
00F000
00F000
00F000
00F000
00F000
00F000
00F000
00F000
FFFFF8
FFFFF8
FFFFF8
FFFFF8
00F000
00F000
00F000
00F000
00F000
00F000
00F000
00F000
000000
000000
FFFFF8
FFFFF8
FFFFF8
FFFFF8
ENDCHAR
STARTCHAR 00B2
ENCODING 178
SWIDTH 315 0
DWIDTH 14 0
BBX 13 16 1 16
BITMAP
1FE0
3FF0
78F8
F078
E038
0078
0070
00F0
03E0
07C0
0F00
1E00
7C00
7FF8
FFF8
FFF8
ENDCHAR
STARTCHAR 00B3
ENCODING 179
SWIDTH 315 0
DWIDTH 14 0
BBX 13 16 1 16
BITMAP
1FC0
7FE0
78F0
F070
0070
00F0
07E0
07C0
07F0
0078
0038
0038
E078
F0F8
7FF0
3FE0
ENDCHAR
STARTCHAR 00B4
ENCODING 180
SWIDTH 315 0
DWIDTH 14 0
BBX 7 6 5 26
BITMAP
3E
3E
3C
78
70
F0
ENDCHAR
STARTCHAR 00B5
ENCODING 181
SWIDTH 562 0
DWIDTH 25 0
BBX 19 32 3 -9
BITMAP
F001E0
F001E0
F001E0
F001E0
F001E0
F001E0
F001E0
F001E0
F001E0
F001E0
F001E0
F001E0
F001E0
F001E0
F801E0
F801E0
F801E0
F803E0
FC07E0
FE0FE0
FFFEE0
F7FEE0
F3FCE0
F04000
F00000
F00000
F00000
F00000
F00000
F00000
F00000
F00000
ENDCHAR
STARTCHAR 00B6
ENCODING 182
SWIDTH 517 0
DWIDTH 23 0
BBX 24 41 0 -9
BITMAP
01FFFF
0FFFFF
1FFFFF
3FFFFF
7FF078
7FF078
FFF078
FFF078
FFF078
FFF078
FFF078
FFF078
FFF078
7FF078
7FF078
3FF078
0FF078
07F078
007078
007078
007078
007078
007078
007078
007078
007078
007078
007078
007078
007078
007078
007078
007078
007078
007078
007078
007078
007078
007078
007078
007078
ENDCHAR
STARTCHAR 00B7
ENCODING 183
SWIDTH 270 0
DWIDTH 12 0
BBX 4 5 4 13
BITMAP
F0
F0
F0
F0
F0
ENDCHAR
STARTCHAR 00B8
ENCODING 184
SWIDTH 315 0
DWIDTH 14 0
BBX 10 10 2 -9
BITMAP
0E00
0C00
1C00
1F00
0F80
03C0
03C0
7F80
FF80
FE00
ENDCHAR
STARTCHAR 00B9
ENCODING 185
SWIDTH 315 0
DWIDTH 14 0
BBX 8 16 2 16
BITMAP
07
0F
1F
7F
FF
E7
07
07
07
07
07
07
07
07
07
07
ENDCHAR
STARTCHAR 00BA
ENCODING 186
SWIDTH 360 0
DWIDTH 16 0
BBX 14 16 1 16
BITMAP
0FE0
3FF0
7FF8
7838
F03C
E01C
E01C
E01C
E01C
E01C
F01C
703C
7878
3FF0
1FE0
07C0
ENDCHAR
STARTCHAR 00BB
ENCODING 187
SWIDTH 540 0
DWIDTH 24 0
BBX 18 19 4 2
BITMAP
E0E000
F07000
707800
783800
3C3C00
3C1E00
1E1F00
0F0F00
0F0780
0787C0
0F0780
0F0F00
1E1F00
3C1E00
3C3C00
783800
707800
F07000
E0E000
ENDCHAR
STARTCHAR 00BC
ENCODING 188
SWIDTH 832 0
DWIDTH 37 0
BBX 34 33 2 -1
BITMAP
0700001C00
0F00003800
1F00007800
7F00007000
FF0000E000
E70001E000
070003C000
0700038000
0700070000
07000F0000
07000E0000
07001C0000
07003C0000
0700780000
0700700000
0700F00000
0001E00700
0001C00700
0003800F00
0007801F00
0007003F00
000E007F00
001E00F700
003C01E700
003801C700
0070038700
00F0070700
00E007FFC0
01C007FFC0
03C0000700
0780000700
0700000700
0E00000700
ENDCHAR
STARTCHAR 00BD
ENCODING 189
SWIDTH 832 0
DWIDTH 37 0
BBX 34 33 2 -1
BITMAP
0700003C00
0F00007800
1F00007000
7F0000F000
FF0001E000
E70001C000
0700038000
0700078000
0700070000
07000E0000
07001E0000
07003C0000
0700380000
0700700000
0700F00000
0700E00000
0001C01800
0003C1FF00
000783FF80
000703C3C0
000E0781C0
001E0001C0
001C0003C0
0038000380
0078000F80
00F0001F00
00E0003C00
01C000F800
03C001F000
038003E000
070003FFC0
0F0007FFC0
1E0007FFC0
ENDCHAR
STARTCHAR 00BE
ENCODING 190
SWIDTH 832 0
DWIDTH 37 0
BBX 35 33 1 -1
BITMAP
1FC0000E00
7FE0001C00
78F0003C00
F070003800
0070007000
00F000F000
07E001E000
07C001C000
07F0038000
0078078000
0038070000
00380E0000
E0781E0000
F0F83C0000
7FF0380000
3FE0780000
0000F00380
0000E00380
0001C00780
0003C00F80
0003801F80
0007003F80
000F007B80
001E00F380
001C00E380
003801C380
0078038380
007003FFE0
00E003FFE0
01E0000380
03C0000380
0380000380
0700000380
ENDCHAR
STARTCHAR 00BF
ENCODING 191
SWIDTH 607 0
DWIDTH 27 0
BBX 21 32 3 -9
BITMAP
00F800
00F800
00F800
00F800
000000
000000
000000
000000
007800
007800
007800
00F000
00F000
01F000
03E000
07C000
0FC000
1F0000
3E0000
3C0000
780000
780000
F80000
F00078
F800F8
7800F0
7800F0
7C01F0
3F07E0
1FFFC0
0FFF80
03FE00
ENDCHAR
STARTCHAR 00C0
ENCODING 192
SWIDTH 652 0
DWIDTH 29 0
BBX 30 40 0 0
BITMAP
003E0000
001F0000
000F0000
000F8000
00078000
0003C000
00000000
00000000
000F8000
000F8000
001FC000
001FC000
003DC000
003DE000
003DE000
0078F000
0078F000
0078F800
00F07800
00F07800
01F07C00
01E03C00
01E03E00
03C01E00
03C01E00
07C01F00
07800F00
07FFFF80
0FFFFF80
0FFFFF80
0F0007C0
1E0003C0
1E0003E0
3E0003E0
3C0001E0
3C0001F0
7C0000F0
780000F8
F80000F8
F800007C
ENDCHAR
STARTCHAR 00C1
ENCODING 193
SWIDTH 652 0
DWIDTH 29 0
BBX 30 40 0 0
BITMAP
0003E000
0003E000
0007C000
00078000
00070000
000F0000
00000000
00000000
000F8000
000F8000
001FC000
001FC000
003DC000
003DE000
003DE000
0078F000
0078F000
0078F800
00F07800
00F07800
01F07C00
01E03C00
01E03E00
03C01E00
03C01E00
07C01F00
07800F00
07FFFF80
0FFFFF80
0FFFFF80
0F0007C0
1E0003C0
1E0003E0
3E0003E0
3C0001E0
3C0001F0
7C0000F0
780000F8
F80000F8
F800007C
ENDCHAR
STARTCHAR 00C2
ENCODING 194
SWIDTH 652 0
DWIDTH 29 0
BBX 30 40 0 0
BITMAP
000F8000
001F8000
003FC000
003DE000
0078F000
00F0F800
00000000
00000000
000F8000
000F8000
001FC000
001FC000
003DC000
003DE000
003DE000
0078F000
0078F000
0078F800
00F07800
00F07800
01F07C00
01E03C00
01E03E00
03C01E00
03C01E00
07C01F00
07800F00
07FFFF80
0FFFFF80
0FFFFF80
0F0007C0
1E0003C0
1E0003E0
3E0003E0
3C0001E0
3C0001F0
7C0000F0
780000F8
F80000F8
F800007C
ENDCHAR
STARTCHAR 00C3
ENCODING 195
SWIDTH 652 0
DWIDTH 29 0
BBX 30 39 0 0
BITMAP
00181C00
007F1C00
00FFFC00
00E7F800
00E1F000
00000000
00000000
000F8000
000F8000
001FC000
001FC000
003DC000
003DE000
003DE000
0078F000
0078F000
0078F800
00F07800
00F07800
01F07C00
01E03C00
01E03E00
03C01E00
03C01E00
07C01F00
07800F00
07FFFF80
0FFFFF80
0FFFFF80
0F0007C0
1E0003C0
1E0003E0
3E0003E0
3C0001E0
3C0001F0
7C0000F0
780000F8
F80000F8
F800007C
ENDCHAR
STARTCHAR 00C4
ENCODING 196
SWIDTH 652 0
DWIDTH 29 0
BBX 30 38 0 0
BITMAP
00F0F000
00F0F000
00F0F000
00F0F000
00000000
00000000
000F8000
000F8000
001FC000
001FC000
003DC000
003DE000
003DE000
0078F000
0078F000
0078F800
00F07800
00F07800
01F07C00
01E03C00
01E03E00
03C01E00
03C01E00
07C01F00
07800F00
07FFFF80
0FFFFF80
0FFFFF80
0F0007C0
1E0003C0
1E0003E0
3E0003E0
3C0001E0
3C0001F0
7C0000F0
780000F8
F80000F8
F800007C
ENDCHAR
STARTCHAR 00C5
ENCODING 197
SWIDTH 652 0
DWIDTH 29 0
BBX 30 39 0 0
BITMAP
00020000
000F8000
0018C000
00304000
00304000
0010C000
001DC000
000F8000
000F8000
001FC000
001FC000
003DC000
003DE000
003DE000
0078F000
0078F000
0078F800
00F07800
00F07800
01F07C00
01E03C00
01E03E00
03C01E00
03C01E00
07C01F00
07800F00
07FFFF80
0FFFFF80
0FFFFF80
0F0007C0
1E0003C0
1E0003E0
3E0003E0
3C0001E0
3C0001F0
7C0000F0
780000F8
F80000F8
F800007C
ENDCHAR
STARTCHAR 00C6
ENCODING 198
SWIDTH 990 0
DWIDTH 44 0
BBX 42 32 0 0
BITMAP
0001FFFFFF80
0001FFFFFF80
0003FFFFFF80
0003FFFFFF80
0007C7800000
000787800000
000F87800000
000F07800000
001F07800000
001E07800000
003E07800000
003C07800000
007C07800000
007807800000
00F807FFFF00
00F007FFFF00
01F007FFFF00
01E007800000
03E007800000
03FFFF800000
03FFFF800000
07FFFF800000
07FFFF800000
0F8007800000
0F0007800000
1F0007800000
1E0007800000
3E0007800000
3C0007FFFFC0
7C0007FFFFC0
780007FFFFC0
F80007FFFFC0
ENDCHAR
STARTCHAR 00C7
ENCODING 199
SWIDTH 720 0
DWIDTH 32 0
BBX 28 41 2 -9
BITMAP
003FF000
00FFFC00
03FFFF00
07F87F80
0FC00FC0
1F0007C0
3E0003E0
3E0001E0
7C0001F0
7C000180
78000000
78000000
F8000000
F8000000
F8000000
F8000000
F8000000
F8000000
F8000000
F8000000
78000000
780000E0
7C0000F0
3C0001F0
3E0001E0
3E0003E0
1F0007C0
0FC00FC0
0FF03F80
07FFFF00
01FFFE00
007FF800
000F8000
000E0000
000F8000
0007C000
0001C000
0001C000
007FC000
007F8000
007F0000
ENDCHAR
STARTCHAR 00C8
ENCODING 200
SWIDTH 652 0
DWIDTH 29 0
BBX 23 40 4 0
BITMAP
01F000
01F000
00F800
007800
003C00
001C00
000000
000000
FFFFFE
FFFFFE
FFFFFE
FFFFFE
F00000
F00000
F00000
F00000
F00000
F00000
F00000
F00000
F00000
F00000
FFFFF8
FFFFF8
FFFFF8
F00000
F00000
F00000
F00000
F00000
F00000
F00000
F00000
F00000
F00000
F00000
FFFFFE
FFFFFE
FFFFFE
FFFFFE
ENDCHAR
STARTCHAR 00C9
ENCODING 201
SWIDTH 652 0
DWIDTH 29 0
BBX 23 40 4 0
BITMAP
001F00
003E00
003C00
007C00
007800
007000
000000
000000
FFFFFE
FFFFFE
FFFFFE
FFFFFE
F00000
F00000
F00000
F00000
F00000
F00000
F00000
F00000
F00000
F00000
FFFFF8
FFFFF8
FFFFF8
F00000
F00000
F00000
F00000
F00000
F00000
F00000
F00000
F00000
F00000
F00000
FFFFFE
FFFFFE
FFFFFE
FFFFFE
ENDCHAR
STARTCHAR 00CA
ENCODING 202
SWIDTH 652 0
DWIDTH 29 0
BBX 23 40 4 0
BITMAP
007C00
00FC00
01FE00
01EF00
03C780
0787C0
000000
000000
FFFFFE
FFFFFE
FFFFFE
FFFFFE
F00000
F00000
F00000
F00000
F00000
F00000
F00000
F00000
F00000
F00000
FFFFF8
FFFFF8
FFFFF8
F00000
F00000
F00000
F00000
F00000
F00000
F00000
F00000
F00000
F00000
F00000
FFFFFE
FFFFFE
FFFFFE
FFFFFE
ENDCHAR
STARTCHAR 00CB
ENCODING 203
SWIDTH 652 0
DWIDTH 29 0
BBX 23 38 4 0
BITMAP
078780
078780
078780
078780
000000
000000
FFFFFE
FFFFFE
FFFFFE
FFFFFE
F00000
F00000
F00000
F00000
F00000
F00000
F00000
F00000
F00000
F00000
FFFFF8
FFFFF8
FFFFF8
F00000
F00000
F00000
F00000
F00000
F00000
F00000
F00000
F00000
F00000
F00000
FFFFFE
FFFFFE
FFFFFE
FFFFFE
ENDCHAR
STARTCHAR 00CC
ENCODING 204
SWIDTH 270 0
DWIDTH 12 0
BBX 8 40 1 0
BITMAP
FC
7C
3E
1E
0F
07
00
00
1E
1E
1E
1E
1E
1E
1E
1E
1E
1E
1E
1E
1E
1E
1E
1E
1E
1E
1E
1E
1E
1E
1E
1E
1E
1E
1E
1E
1E
1E
1E
1E
ENDCHAR
STARTCHAR 00CD
ENCODING 205
SWIDTH 270 0
DWIDTH 12 0
BBX 8 40 3 0
BITMAP
1F
3E
3C
78
78
F0
00
00
78
78
78
78
78
78
78
78
78
78
78
78
78
78
78
78
78
78
78
78
78
78
78
78
78
78
78
78
78
78
78
78
ENDCHAR
STARTCHAR 00CE
ENCODING 206
SWIDTH 270 0
DWIDTH 12 0
BBX 13 40 0 0
BITMAP
0F00
1F80
3FC0
7DE0
79F0
F0F0
0008
0000
0F00
0F00
0F00
0F00
0F00
0F00
0F00
0F00
0F00
0F00
0F00
0F00
0F00
0F00
0F00
0F00
0F00
0F00
0F00
0F00
0F00
0F00
0F00
0F00
0F00
0F00
0F00
0F00
0F00
0F00
0F00
0F00
ENDCHAR
STARTCHAR 00CF
ENCODING 207
SWIDTH 270 0
DWIDTH 12 0
BBX 12 38 0 0
BITMAP
F0F0
F0F0
F0F0
F0F0
0000
0000
0F00
0F00
0F00
0F00
0F00
0F00
0F00
0F00
0F00
0F00
0F00
0F00
0F00
0F00
0F00
0F00
0F00
0F00
0F00
0F00
0F00
0F00
0F00
0F00
0F00
0F00
0F00
0F00
0F00
0F00
0F00
0F00
ENDCHAR
STARTCHAR 00D0
ENCODING 208
SWIDTH 720 0
DWIDTH 32 0
BBX 30 32 0 0
BITMAP
1FFFC000
1FFFFE00
1FFFFF00
1FFFFF80
1F001FC0
1F0007E0
1F0001F0
1F0001F0
1F0000F8
1F0000F8
1F000078
1F000078
1F000078
1F00007C
1F00007C
FFFF007C
FFFF007C
FFFF007C
1F00007C
1F000078
1F000078
1F000078
1F0000F8
1F0000F0
1F0001F0
1F0001F0
1F0003E0
1F000FC0
1FFFFF80
1FFFFF00
1FFFFE00
1FFFF000
ENDCHAR
STARTCHAR 00D1
ENCODING 209
SWIDTH 720 0
DWIDTH 32 0
BBX 25 39 3 0
BITMAP
00303800
00FC3800
01FFF000
01CFF000
0383E000
00000000
00000000
F8000780
FC000780
FC000780
FE000780
FF000780
FF000780
FF800780
F7C00780
F7C00780
F3E00780
F1F00780
F1F00780
F0F80780
F07C0780
F07C0780
F03E0780
F01F0780
F01F0780
F00F8780
F007C780
F007C780
F003E780
F001F780
F001F780
F000FF80
F0007F80
F0007F80
F0003F80
F0001F80
F0001F80
F0000F80
F0000780
ENDCHAR
STARTCHAR 00D2
ENCODING 210
SWIDTH 765 0
DWIDTH 34 0
BBX 31 41 2 -1
BITMAP
003E0000
001F0000
000F0000
000F8000
00078000
0003C000
00000000
00000000
003FF800
00FFFE00
03FFFF00
07F87FC0
0FC00FE0
1F8003E0
1F0001F0
3E0000F8
3C0000F8
7C000078
7800007C
7800003C
F800003C
F800003C
F800003C
F800003E
F000003E
F000003E
F800003C
F800003C
7800003C
7800007C
7C00007C
3C000078
3E0000F8
1E0001F0
1F0003F0
0FC007E0
07F01FC0
03FFFF80
00FFFE00
007FF800
00010000
ENDCHAR
STARTCHAR 00D3
ENCODING 211
SWIDTH 765 0
DWIDTH 34 0
BBX 31 41 2 -1
BITMAP
0001F000
0001F000
0003E000
0003C000
00078000
00078000
00000000
00000000
003FF800
00FFFE00
03FFFF00
07F87FC0
0FC00FE0
1F8003E0
1F0001F0
3E0000F8
3C0000F8
7C000078
7800007C
7800003C
F800003C
F800003C
F800003C
F800003E
F000003E
F000003E
F800003C
F800003C
7800003C
7800007C
7C00007C
3C000078
3E0000F8
1E0001F0
1F0003F0
0FC007E0
07F01FC0
03FFFF80
00FFFE00
007FF800
00010000
ENDCHAR
STARTCHAR 00D4
ENCODING 212
SWIDTH 765 0
DWIDTH 34 0
BBX 31 41 2 -1
BITMAP
0007C000
000FC000
001FE000
003EF000
003C7800
00787C00
00000000
00000000
003FF800
00FFFE00
03FFFF00
07F87FC0
0FC00FE0
1F8003E0
1F0001F0
3E0000F8
3C0000F8
7C000078
7800007C
7800003C
F800003C
F800003C
F800003C
F800003E
F000003E
F000003E
F800003C
F800003C
7800003C
7800007C
7C00007C
3C000078
3E0000F8
1E0001F0
1F0003F0
0FC007E0
07F01FC0
03FFFF80
00FFFE00
007FF800
00010000
ENDCHAR
STARTCHAR 00D5
ENCODING 213
SWIDTH 765 0
DWIDTH 34 0
BBX 31 40 2 -1
BITMAP
001C0E00
007F1C00
007FFC00
00F3FC00
00E0F800
00000000
00000000
003FF800
00FFFE00
03FFFF00
07F87FC0
0FC00FE0
1F8003E0
1F0001F0
3E0000F8
3C0000F8
7C000078
7800007C
7800003C
F800003C
F800003C
F800003C
F800003E
F000003E
F000003E
F800003C
F800003C
7800003C
7800007C
7C00007C
3C000078
3E0000F8
1E0001F0
1F0003F0
0FC007E0
07F01FC0
03FFFF80
00FFFE00
007FF800
00010000
ENDCHAR
STARTCHAR 00D6
ENCODING 214
SWIDTH 765 0
DWIDTH 34 0
BBX 31 39 2 -1
BITMAP
00787800
00787800
00787800
00787800
00000000
00000000
003FF800
00FFFE00
03FFFF00
07F87FC0
0FC00FE0
1F8003E0
1F0001F0
3E0000F8
3C0000F8
7C000078
7800007C
7800003C
F800003C
F800003C
F800003C
F800003E
F000003E
F000003E
F800003C
F800003C
7800003C
7800007C
7C00007C
3C000078
3E0000F8
1E0001F0
1F0003F0
0FC007E0
07F01FC0
03FFFF80
00FFFE00
007FF800
00010000
ENDCHAR
STARTCHAR 00D7
ENCODING 215
SWIDTH 562 0
DWIDTH 25 0
BBX 18 18 4 6
BITMAP
600100
F00380
F807C0
7C0F80
3E1F00
1F3E00
0FFC00
07F800
03F000
03F000
07F800
0FFC00
1F3E00
3E1F00
7C0F80
F807C0
F003C0
600180
ENDCHAR
STARTCHAR 00D8
ENCODING 216
SWIDTH 765 0
DWIDTH 34 0
BBX 31 34 2 -1
BITMAP
00000008
003FF81E
00FFFE1C
03FFFF38
07F83FF8
0FC00FF0
1F8003E0
1E0003F0
3E0007F8
7C000FF8
7C001E78
78001C7C
7800383C
F800783C
F800F03C
F001E03C
F003C03C
F007803C
F00F003C
F81E003C
F83C003C
F838003C
7870007C
7CF00078
7DE00078
3FC000F8
1F8001F0
1F0003F0
1FC007E0
3FF03FC0
3BFFFF80
71FFFE00
F07FF800
60010000
ENDCHAR
STARTCHAR 00D9
ENCODING 217
SWIDTH 720 0
DWIDTH 32 0
BBX 26 41 3 -1
BITMAP
00F80000
00F80000
007C0000
003C0000
001E0000
000E0000
00000000
00000000
F80007C0
F80007C0
F80007C0
F80007C0
F80007C0
F80007C0
F80007C0
F80007C0
F80007C0
F80007C0
F80007C0
F80007C0
F80007C0
F80007C0
F80007C0
F80007C0
F80007C0
F80007C0
F80007C0
F8000780
78000780
78000780
78000780
78000780
78000780
7C000F80
3E001F00
3F003F00
1FC1FE00
0FFFFC00
07FFF800
01FFE000
00060000
ENDCHAR
STARTCHAR 00DA
ENCODING 218
SWIDTH 720 0
DWIDTH 32 0
BBX 26 41 3 -1
BITMAP
0007C000
00078000
000F8000
000F0000
001E0000
001C0000
00000000
00000000
F80007C0
F80007C0
F80007C0
F80007C0
F80007C0
F80007C0
F80007C0
F80007C0
F80007C0
F80007C0
F80007C0
F80007C0
F80007C0
F80007C0
F80007C0
F80007C0
F80007C0
F80007C0
F80007C0
F8000780
78000780
78000780
78000780
78000780
78000780
7C000F80
3E001F00
3F003F00
1FC1FE00
0FFFFC00
07FFF800
01FFE000
00060000
ENDCHAR
STARTCHAR 00DB
ENCODING 219
SWIDTH 720 0
DWIDTH 32 0
BBX 26 41 3 -1
BITMAP
003E0000
003F0000
007F8000
00F3C000
01F3C000
01E1E000
00000000
00000000
F80007C0
F80007C0
F80007C0
F80007C0
F80007C0
F80007C0
F80007C0
F80007C0
F80007C0
F80007C0
F80007C0
F80007C0
F80007C0
F80007C0
F80007C0
F80007C0
F80007C0
F80007C0
F80007C0
F8000780
78000780
78000780
78000780
78000780
78000780
7C000F80
3E001F00
3F003F00
1FC1FE00
0FFFFC00
07FFF800
01FFE000
00060000
ENDCHAR
STARTCHAR 00DC
ENCODING 220
SWIDTH 720 0
DWIDTH 32 0
BBX 26 39 3 -1
BITMAP
01E1E000
01E1E000
01E1E000
01E1E000
00000000
00000000
F80007C0
F80007C0
F80007C0
F80007C0
F80007C0
F80007C0
F80007C0
F80007C0
F80007C0
F80007C0
F80007C0
F80007C0
F80007C0
F80007C0
F80007C0
F80007C0
F80007C0
F80007C0
F80007C0
F8000780
78000780
78000780
78000780
78000780
78000780
7C000F80
3E001F00
3F003F00
1FC1FE00
0FFFFC00
07FFF800
01FFE000
00060000
ENDCHAR
STARTCHAR 00DD
ENCODING 221
SWIDTH 652 0
DWIDTH 29 0
BBX 29 40 0 0
BITMAP
0001F000
0003E000
0003C000
00078000
00078000
000F0000
00000000
00000000
F80000F8
7C0000F0
3E0001F0
3E0003E0
1F0003C0
0F8007C0
0F800F80
07C00F00
03E01F00
03E03E00
01F03C00
00F87800
00F8F800
007CF000
003DE000
003FE000
001FC000
000F8000
000F8000
000F8000
000F8000
000F8000
000F8000
000F8000
000F8000
000F8000
000F8000
000F8000
000F8000
000F8000
000F8000
000F8000
ENDCHAR
STARTCHAR 00DE
ENCODING 222
SWIDTH 652 0
DWIDTH 29 0
BBX 25 32 3 0
BITMAP
F8000000
F8000000
F8000000
F8000000
F8000000
F8000000
F8000000
FFFFE000
FFFFF800
FFFFFC00
F803FE00
F8003F00
F8001F00
F8000F00
F8000F80
F8000F80
F8000F80
F8000F80
F8000F00
F8001F00
F8003F00
F801FE00
FFFFFC00
FFFFF800
FFFFF000
FFF80000
F8000000
F8000000
F8000000
F8000000
F8000000
F8000000
ENDCHAR
STARTCHAR 00DF
ENCODING 223
SWIDTH 607 0
DWIDTH 27 0
BBX 23 33 3 -1
BITMAP
07FC00
1FFE00
3FFF00
3E0F80
7C0780
7803C0
7803C0
F00380
F00780
F00780
F00F00
F00F00
F01E00
F01E00
F03C00
F03C00
F03E00
F01F00
F00FC0
F007E0
F003F8
F000FC
F0007C
F0003E
F0001E
F0001E
F0601E
F1E03C
F0F07C
F0FFF8
F07FF0
F01FE0
000200
ENDCHAR
STARTCHAR 00E0
ENCODING 224
SWIDTH 540 0
DWIDTH 24 0
BBX 21 33 2 -1
BITMAP
03E000
01E000
01F000
00F000
007800
003800
000000
000000
007000
07FF00
1FFFC0
3FFFE0
7C03E0
7801E0
7801F0
F000F0
0000F0
0001F0
003FF0
07FFF0
1FFEF0
7FF0F0
7C00F0
F800F0
F001F0
F001F0
F001F0
F003F0
F80FF0
7FFFF0
7FFCF0
1FF078
030000
ENDCHAR
STARTCHAR 00E1
ENCODING 225
SWIDTH 540 0
DWIDTH 24 0
BBX 21 33 2 -1
BITMAP
001F00
003E00
003C00
007800
007800
00F000
000000
000000
007000
07FF00
1FFFC0
3FFFE0
7C03E0
7801E0
7801F0
F000F0
0000F0
0001F0
003FF0
07FFF0
1FFEF0
7FF0F0
7C00F0
F800F0
F001F0
F001F0
F001F0
F003F0
F80FF0
7FFFF0
7FFCF0
1FF078
030000
ENDCHAR
STARTCHAR 00E2
ENCODING 226
SWIDTH 540 0
DWIDTH 24 0
BBX 21 33 2 -1
BITMAP
00F800
01F800
03FC00
07DE00
078F00
0F0F80
000000
000000
007000
07FF00
1FFFC0
3FFFE0
7C03E0
7801E0
7801F0
F000F0
0000F0
0001F0
003FF0
07FFF0
1FFEF0
7FF0F0
7C00F0
F800F0
F001F0
F001F0
F001F0
F003F0
F80FF0
7FFFF0
7FFCF0
1FF078
030000
ENDCHAR
STARTCHAR 00E3
ENCODING 227
SWIDTH 540 0
DWIDTH 24 0
BBX 21 32 2 -1
BITMAP
07C380
0FFF80
1EFF80
1C3F00
1C0000
000000
000000
007000
07FF00
1FFFC0
3FFFE0
7C03E0
7801E0
7801F0
F000F0
0000F0
0001F0
003FF0
07FFF0
1FFEF0
7FF0F0
7C00F0
F800F0
F001F0
F001F0
F001F0
F003F0
F80FF0
7FFFF0
7FFCF0
1FF078
030000
ENDCHAR
STARTCHAR 00E4
ENCODING 228
SWIDTH 540 0
DWIDTH 24 0
BBX 21 33 2 -1
BITMAP
0F0F00
0F0F00
0F0F00
0F0F00
000000
000000
000000
000000
007000
07FF00
1FFFC0
3FFFE0
7C03E0
7801E0
7801F0
F000F0
0000F0
0001F0
003FF0
07FFF0
1FFEF0
7FF0F0
7C00F0
F800F0
F001F0
F001F0
F001F0
F003F0
F80FF0
7FFFF0
7FFCF0
1FF078
030000
ENDCHAR
STARTCHAR 00E5
ENCODING 229
SWIDTH 540 0
DWIDTH 24 0
BBX 21 34 2 -1
BITMAP
00F000
01F800
018C00
030C00
030400
010C00
01F800
00F000
000000
007000
07FF00
1FFFC0
3FFFE0
7C03E0
7801E0
7801F0
F000F0
0000F0
0001F0
003FF0
07FFF0
1FFEF0
7FF0F0
7C00F0
F800F0
F001F0
F001F0
F001F0
F003F0
F80FF0
7FFFF0
7FFCF0
1FF078
030000
ENDCHAR
STARTCHAR 00E6
ENCODING 230
SWIDTH 877 0
DWIDTH 39 0
BBX 37 25 1 -1
BITMAP
0038006000
03FF83FE00
0FFFCFFF80
1FFFFFFFC0
3E01FE03E0
3C00FC01E0
7800F800F0
7800F800F0
0000F000F0
0000F00070
001FFFFFF8
03FFFFFFF8
1FFFFFFFF8
3FF0F00000
7E00F00000
7800F00000
7800F00000
F800F800F0
F801F800F0
7803FC01F0
7C07FE03E0
3FFF1FFFC0
3FFE0FFF80
0FF803FE00
0080006000
ENDCHAR
STARTCHAR 00E7
ENCODING 231
SWIDTH 495 0
DWIDTH 22 0
BBX 20 33 2 -9
BITMAP
003000
07FE00
0FFF80
1FFFC0
3E07C0
7C03E0
7801E0
F801E0
F00000
F00000
F00000
F00000
F00000
F00000
F00000
F00000
F000F0
F801E0
7801E0
7C03E0
3E07C0
1FFF80
0FFF00
07FE00
00E000
01E000
01F800
003C00
003C00
007C00
07F800
07F000
078000
ENDCHAR
STARTCHAR 00E8
ENCODING 232
SWIDTH 540 0
DWIDTH 24 0
BBX 21 33 2 -1
BITMAP
07C000
03E000
01E000
00F000
00F000
007800
000000
000000
002000
07FE00
0FFF80
1FFFC0
3E03E0
7C01E0
7800F0
F800F0
F000F0
F00078
FFFFF8
FFFFF8
FFFFF8
F00000
F00000
F00000
F00000
F800F8
7800F0
7C01F0
3E03E0
1FFFC0
0FFF80
03FF00
003000
ENDCHAR
STARTCHAR 00E9
ENCODING 233
SWIDTH 540 0
DWIDTH 24 0
BBX 21 33 2 -1
BITMAP
001F00
003E00
003C00
007800
007800
00F000
000000
000000
002000
07FE00
0FFF80
1FFFC0
3E03E0
7C01E0
7800F0
F800F0
F000F0
F00078
FFFFF8
FFFFF8
FFFFF8
F00000
F00000
F00000
F00000
F800F8
7800F0
7C01F0
3E03E0
1FFFC0
0FFF80
03FF00
003000
ENDCHAR
STARTCHAR 00EA
ENCODING 234
SWIDTH 540 0
DWIDTH 24 0
BBX 21 33 2 -1
BITMAP
00F800
01F800
03FC00
07DE00
078F00
0F0F80
000000
000000
002000
07FE00
0FFF80
1FFFC0
3E03E0
7C01E0
7800F0
F800F0
F000F0
F00078
FFFFF8
FFFFF8
FFFFF8
F00000
F00000
F00000
F00000
F800F8
7800F0
7C01F0
3E03E0
1FFFC0
0FFF80
03FF00
003000
ENDCHAR
STARTCHAR 00EB
ENCODING 235
SWIDTH 540 0
DWIDTH 24 0
BBX 21 33 2 -1
BITMAP
0F0F00
0F0F00
0F0F00
0F0F00
000000
000000
000000
000000
002000
07FE00
0FFF80
1FFFC0
3E03E0
7C01E0
7800F0
F800F0
F000F0
F00078
FFFFF8
FFFFF8
FFFFF8
F00000
F00000
F00000
F00000
F800F8
7800F0
7C01F0
3E03E0
1FFFC0
0FFF80
03FF00
003000
ENDCHAR
STARTCHAR 00EC
ENCODING 236
SWIDTH 270 0
DWIDTH 12 0
BBX 8 32 1 0
BITMAP
F8
7C
3C
1E
1E
0F
00
00
00
1E
1E
1E
1E
1E
1E
1E
1E
1E
1E
1E
1E
1E
1E
1E
1E
1E
1E
1E
1E
1E
1E
1E
ENDCHAR
STARTCHAR 00ED
ENCODING 237
SWIDTH 270 0
DWIDTH 12 0
BBX 8 32 4 0
BITMAP
1F
3E
3C
78
78
F0
00
00
00
F0
F0
F0
F0
F0
F0
F0
F0
F0
F0
F0
F0
F0
F0
F0
F0
F0
F0
F0
F0
F0
F0
F0
ENDCHAR
STARTCHAR 00EE
ENCODING 238
SWIDTH 270 0
DWIDTH 12 0
BBX 13 32 0 0
BITMAP
0F80
1FC0
3FC0
3DE0
78F0
F878
0000
0000
0000
0F00
0F00
0F00
0F00
0F00
0F00
0F00
0F00
0F00
0F00
0F00
0F00
0F00
0F00
0F00
0F00
0F00
0F00
0F00
0F00
0F00
0F00
0F00
ENDCHAR
STARTCHAR 00EF
ENCODING 239
SWIDTH 270 0
DWIDTH 12 0
BBX 12 32 0 0
BITMAP
F0F0
F0F0
F0F0
F0F0
0000
0000
0000
0000
0000
0F00
0F00
0F00
0F00
0F00
0F00
0F00
0F00
0F00
0F00
0F00
0F00
0F00
0F00
0F00
0F00
0F00
0F00
0F00
0F00
0F00
0F00
0F00
ENDCHAR
STARTCHAR 00F0
ENCODING 240
SWIDTH 540 0
DWIDTH 24 0
BBX 21 33 2 -1
BITMAP
07C080
03E380
00FFC0
007E00
00FC00
07FE00
0F8F00
060F80
000780
03F3C0
0FFFC0
1FFFE0
3F07E0
7C03F0
7801F0
F800F0
F000F8
F00078
F00078
F00078
F00078
F00078
F00078
F00078
F000F8
F000F0
7801F0
7C01E0
3E07E0
1FFFC0
0FFF80
07FE00
002000
ENDCHAR
STARTCHAR 00F1
ENCODING 241
SWIDTH 540 0
DWIDTH 24 0
BBX 19 31 3 0
BITMAP
0FC380
1FFF80
1FFF80
1C3F00
1C0000
000000
000000
002000
E3FE00
E7FF80
EFFF80
FE07C0
FC03C0
F803E0
F001E0
F001E0
F001E0
F001E0
F001E0
F001E0
F001E0
F001E0
F001E0
F001E0
F001E0
F001E0
F001E0
F001E0
F001E0
F001E0
F001E0
ENDCHAR
STARTCHAR 00F2
ENCODING 242
SWIDTH 540 0
DWIDTH 24 0
BBX 22 32 1 -1
BITMAP
03E000
01F000
00F000
007800
007800
003C00
000000
000000
001800
03FF00
07FFC0
1FFFE0
1F03F0
3E00F8
3C0078
780078
78003C
78003C
78003C
F8003C
F0003C
F0003C
78003C
78003C
78007C
780078
3C0078
3E00F8
1F03F0
0FFFE0
07FFC0
03FF00
ENDCHAR
STARTCHAR 00F3
ENCODING 243
SWIDTH 540 0
DWIDTH 24 0
BBX 22 32 1 -1
BITMAP
000F80
001F00
001E00
003C00
003C00
007800
000000
000000
001800
03FF00
07FFC0
1FFFE0
1F03F0
3E00F8
3C0078
780078
78003C
78003C
78003C
F8003C
F0003C
F0003C
78003C
78003C
78007C
780078
3C0078
3E00F8
1F03F0
0FFFE0
07FFC0
03FF00
ENDCHAR
STARTCHAR 00F4
ENCODING 244
SWIDTH 540 0
DWIDTH 24 0
BBX 22 32 1 -1
BITMAP
007C00
00FC00
01FE00
03EF00
03C780
0787C0
000000
000000
001800
03FF00
07FFC0
1FFFE0
1F03F0
3E00F8
3C0078
780078
78003C
78003C
78003C
F8003C
F0003C
F0003C
78003C
78003C
78007C
780078
3C0078
3E00F8
1F03F0
0FFFE0
07FFC0
03FF00
ENDCHAR
STARTCHAR 00F5
ENCODING 245
SWIDTH 540 0
DWIDTH 24 0
BBX 22 31 1 -1
BITMAP
03F1C0
07FFC0
0F7FC0
0E1F80
0E0000
000000
000000
001800
03FF00
07FFC0
1FFFE0
1F03F0
3E00F8
3C0078
780078
78003C
78003C
78003C
F8003C
F0003C
F0003C
78003C
78003C
78007C
780078
3C0078
3E00F8
1F03F0
0FFFE0
07FFC0
03FF00
ENDCHAR
STARTCHAR 00F6
ENCODING 246
SWIDTH 540 0
DWIDTH 24 0
BBX 22 32 1 -1
BITMAP
078780
078780
078780
078780
000000
000000
000000
000000
001800
03FF00
07FFC0
1FFFE0
1F03F0
3E00F8
3C0078
780078
78003C
78003C
78003C
F8003C
F0003C
F0003C
78003C
78003C
78007C
780078
3C0078
3E00F8
1F03F0
0FFFE0
07FFC0
03FF00
ENDCHAR
STARTCHAR 00F7
ENCODING 247
SWIDTH 540 0
DWIDTH 24 0
BBX 21 17 2 7
BITMAP
00F000
00F000
00F000
00F000
000000
000000
FFFFF8
FFFFF8
FFFFF8
FFFFF8
000000
000000
000000
00F000
00F000
00F000
00F000
ENDCHAR
STARTCHAR 00F8
ENCODING 248
SWIDTH 607 0
DWIDTH 27 0
BBX 21 25 3 -2
BITMAP
002030
03FE38
0FFFF0
1FFFE0
3E03E0
7C03F0
7803F0
F807F8
F00E78
F01E78
F01C78
F03878
F07078
F0F078
F0E078
F1C078
F38078
FF80F8
7F00F0
7E01F0
3E03E0
3FFFC0
7FFF80
73FE00
602000
ENDCHAR
STARTCHAR 00F9
ENCODING 249
SWIDTH 540 0
DWIDTH 24 0
BBX 19 33 3 -1
BITMAP
07C000
03E000
01E000
01F000
00F000
007800
000000
000000
000000
F001E0
F001E0
F001E0
F001E0
F001E0
F001E0
F001E0
F001E0
F001E0
F001E0
F001E0
F001E0
F001E0
F001E0
F003E0
F003E0
F003E0
F003E0
F807E0
7C1FE0
7FFDE0
3FF9E0
1FF1E0
008000
ENDCHAR
STARTCHAR 00FA
ENCODING 250
SWIDTH 540 0
DWIDTH 24 0
BBX 19 33 3 -1
BITMAP
007C00
007C00
007800
00F000
00E000
01E000
000000
000000
000000
F001E0
F001E0
F001E0
F001E0
F001E0
F001E0
F001E0
F001E0
F001E0
F001E0
F001E0
F001E0
F001E0
F001E0
F003E0
F003E0
F003E0
F003E0
F807E0
7C1FE0
7FFDE0
3FF9E0
1FF1E0
008000
ENDCHAR
STARTCHAR 00FB
ENCODING 251
SWIDTH 540 0
DWIDTH 24 0
BBX 19 33 3 -1
BITMAP
01F000
03F000
07F800
0FBC00
0F1E00
1E1F00
000000
000000
000000
F001E0
F001E0
F001E0
F001E0
F001E0
F001E0
F001E0
F001E0
F001E0
F001E0
F001E0
F001E0
F001E0
F001E0
F003E0
F003E0
F003E0
F003E0
F807E0
7C1FE0
7FFDE0
3FF9E0
1FF1E0
008000
ENDCHAR
STARTCHAR 00FC
ENCODING 252
SWIDTH 540 0
DWIDTH 24 0
BBX 19 33 3 -1
BITMAP
1E1E00
1E1E00
1E1E00
1E1E00
000000
000000
000000
000000
000000
F001E0
F001E0
F001E0
F001E0
F001E0
F001E0
F001E0
F001E0
F001E0
F001E0
F001E0
F001E0
F001E0
F001E0
F003E0
F003E0
F003E0
F003E0
F807E0
7C1FE0
7FFDE0
3FF9E0
1FF1E0
008000
ENDCHAR
STARTCHAR 00FD
ENCODING 253
SWIDTH 495 0
DWIDTH 22 0
BBX 21 41 1 -9
BITMAP
001F00
003E00
003C00
007800
007800
00F000
000000
000000
000000
F00078
F000F0
7800F0
7800F0
7C01E0
3C01E0
3C01C0
1E03C0
1E03C0
1E0780
0F0780
0F0780
0F0F00
078F00
078E00
039E00
03DE00
03DC00
01FC00
01FC00
01F800
00F800
00F000
00F000
00F000
00E000
01E000
03C000
6FC000
7F8000
3F8000
3E0000
ENDCHAR
STARTCHAR 00FE
ENCODING 254
SWIDTH 540 0
DWIDTH 24 0
BBX 20 41 3 -9
BITMAP
F00000
F00000
F00000
F00000
F00000
F00000
F00000
F00000
F02000
F3FE00
F7FF00
FFFF80
FE07C0
FC03C0
F801E0
F001E0
F001E0
F000F0
F000F0
F000F0
E000F0
E000F0
F000F0
F000F0
F001E0
F001E0
F801E0
FC03C0
FE07C0
FFFF80
F7FF00
F3FC00
F02000
F00000
F00000
F00000
F00000
F00000
F00000
F00000
F00000
ENDCHAR
STARTCHAR 00FF
ENCODING 255
SWIDTH 495 0
DWIDTH 22 0
BBX 21 41 1 -9
BITMAP
0F0F00
0F0F00
0F0F00
0F0F00
000000
000000
000000
000000
000000
F00078
F000F0
7800F0
7800F0
7C01E0
3C01E0
3C01C0
1E03C0
1E03C0
1E0780
0F0780
0F0780
0F0F00
078F00
078E00
039E00
03DE00
03DC00
01FC00
01FC00
01F800
00F800
00F000
00F000
00F000
00E000
01E000
03C000
6FC000
7F8000
3F8000
3E0000
ENDCHAR
STARTCHAR 0100
ENCODING 256
SWIDTH 652 0
DWIDTH 29 0
BBX 30 37 0 0
BITMAP
00FFF800
00FFF800
00FFF800
00000000
00000000
000F8000
000F8000
001FC000
001FC000
003DC000
003DE000
003DE000
0078F000
0078F000
0078F800
00F07800
00F07800
01F07C00
01E03C00
01E03E00
03C01E00
03C01E00
07C01F00
07800F00
07FFFF80
0FFFFF80
0FFFFF80
0F0007C0
1E0003C0
1E0003E0
3E0003E0
3C0001E0
3C0001F0
7C0000F0
780000F8
F80000F8
F800007C
ENDCHAR
STARTCHAR 0101
ENCODING 257
SWIDTH 540 0
DWIDTH 24 0
BBX 21 31 2 -1
BITMAP
0FFF80
0FFF80
0FFF80
000000
000000
000000
007000
07FF00
1FFFC0
3FFFE0
7C03E0
7801E0
7801F0
F000F0
0000F0
0001F0
003FF0
07FFF0
1FFEF0
7FF0F0
7C00F0
F800F0
F001F0
F001F0
F001F0
F003F0
F80FF0
7FFFF0
7FFCF0
1FF078
030000
ENDCHAR
STARTCHAR 0102
ENCODING 258
SWIDTH 652 0
DWIDTH 29 0
BBX 30 39 0 0
BITMAP
00E03800
00703800
007DF000
003FE000
001FC000
00000000
00000000
000F8000
000F8000
001FC000
001FC000
003DC000
003DE000
003DE000
0078F000
0078F000
0078F800
00F07800
00F07800
01F07C00
01E03C00
01E03E00
03C01E00
03C01E00
07C01F00
07800F00
07FFFF80
0FFFFF80
0FFFFF80
0F0007C0
1E0003C0
1E0003E0
3E0003E0
3C0001E0
3C0001F0
7C0000F0
780000F8
F80000F8
F800007C
ENDCHAR
STARTCHAR 0103
ENCODING 259
SWIDTH 540 0
DWIDTH 24 0
BBX 21 33 2 -1
BITMAP
0E0380
060380
070780
07FF00
03FE00
00F800
000000
000000
007000
07FF00
1FFFC0
3FFFE0
7C03E0
7801E0
7801F0
F000F0
0000F0
0001F0
003FF0
07FFF0
1FFEF0
7FF0F0
7C00F0
F800F0
F001F0
F001F0
F001F0
F003F0
F80FF0
7FFFF0
7FFCF0
1FF078
030000
ENDCHAR
STARTCHAR 0104
ENCODING 260
SWIDTH 652 0
DWIDTH 29 0
BBX 34 41 0 -9
BITMAP
000F800000
000F800000
001FC00000
001FC00000
003DC00000
003DE00000
003DE00000
0078F00000
0078F00000
0078F80000
00F0780000
00F0780000
01F07C0000
01E03C0000
01E03E0000
03C01E0000
03C01E0000
07C01F0000
07800F0000
07FFFF8000
0FFFFF8000
0FFFFF8000
0F0007C000
1E0003C000
1E0003E000
3E0003E000
3C0001E000
3C0001F000
7C0000F000
780000F800
F80000F800
F800007C00
0000006000
000000E000
000000E000
000000E000
000000E000
000000F040
0000007FC0
0000007FC0
0000003F00
ENDCHAR
STARTCHAR 0105
ENCODING 261
SWIDTH 540 0
DWIDTH 24 0
BBX 26 33 2 -9
BITMAP
00700000
07FF0000
1FFFC000
3FFFE000
7C03E000
7801E000
7801F000
F000F000
0000F000
0001F000
003FF000
07FFF000
1FFEF000
7FF0F000
7C00F000
F800F000
F001F000
F001F000
F001F000
F003F000
F80FF000
7FFFF000
7FFCF000
1FF07800
0300E000
0000E000
0000E000
0000E000
0000E000
0000F8C0
00007FC0
00007F80
00001C00
ENDCHAR
STARTCHAR 0106
ENCODING 262
SWIDTH 720 0
DWIDTH 32 0
BBX 28 41 2 -1
BITMAP
0001F000
0001E000
0003E000
0003C000
00078000
00070000
00000000
00000000
003FF000
00FFFC00
03FFFF00
07F87F80
0FC00FC0
1F0007C0
3E0003E0
3E0001E0
7C0001F0
7C000180
78000000
78000000
F8000000
F8000000
F8000000
F8000000
F8000000
F8000000
F8000000
F8000000
78000000
780000E0
7C0000F0
3C0001F0
3E0001E0
3E0003E0
1F0007C0
0FC00FC0
0FF03F80
07FFFF00
01FFFE00
007FF800
00078000
ENDCHAR
STARTCHAR 0107
ENCODING 263
SWIDTH 495 0
DWIDTH 22 0
BBX 20 32 2 -1
BITMAP
003E00
007C00
007800
00F000
00F000
01E000
000000
000000
003000
07FE00
0FFF80
1FFFC0
3E07C0
7C03E0
7801E0
F801E0
F00000
F00000
F00000
F00000
F00000
F00000
F00000
F00000
F000F0
F801E0
7801E0
7C03E0
3E07C0
1FFF80
0FFF00
07FE00
ENDCHAR
STARTCHAR 0108
ENCODING 264
SWIDTH 720 0
DWIDTH 32 0
BBX 28 41 2 -1
BITMAP
000F8000
000FC000
001FE000
003DE000
007CF000
00787800
00800000
00000000
003FF000
00FFFC00
03FFFF00
07F87F80
0FC00FC0
1F0007C0
3E0003E0
3E0001E0
7C0001F0
7C000180
78000000
78000000
F8000000
F8000000
F8000000
F8000000
F8000000
F8000000
F8000000
F8000000
78000000
780000E0
7C0000F0
3C0001F0
3E0001E0
3E0003E0
1F0007C0
0FC00FC0
0FF03F80
07FFFF00
01FFFE00
007FF800
00078000
ENDCHAR
STARTCHAR 0109
ENCODING 265
SWIDTH 495 0
DWIDTH 22 0
BBX 20 32 2 -1
BITMAP
00F800
01FC00
01FE00
03CF00
07CF00
0F8780
000000
000000
003000
07FE00
0FFF80
1FFFC0
3E07C0
7C03E0
7801E0
F801E0
F00000
F00000
F00000
F00000
F00000
F00000
F00000
F00000
F000F0
F801E0
7801E0
7C03E0
3E07C0
1FFF80
0FFF00
07FE00
ENDCHAR
STARTCHAR 010A
ENCODING 266
SWIDTH 720 0
DWIDTH 32 0
BBX 28 40 2 -1
BITMAP
000F8000
000F8000
000F8000
000F8000
00000000
00000000
00000000
003FF000
00FFFC00
03FFFF00
07F87F80
0FC00FC0
1F0007C0
3E0003E0
3E0001E0
7C0001F0
7C000180
78000000
78000000
F8000000
F8000000
F8000000
F8000000
F8000000
F8000000
F8000000
F8000000
78000000
780000E0
7C0000F0
3C0001F0
3E0001E0
3E0003E0
1F0007C0
0FC00FC0
0FF03F80
07FFFF00
01FFFE00
007FF800
00078000
ENDCHAR
STARTCHAR 010B
ENCODING 267
SWIDTH 495 0
DWIDTH 22 0
BBX 20 31 2 -1
BITMAP
00F800
00F800
00F800
00F800
00F800
000000
000000
003000
07FE00
0FFF80
1FFFC0
3E07C0
7C03E0
7801E0
F801E0
F00000
F00000
F00000
F00000
F00000
F00000
F00000
F00000
F000F0
F801E0
7801E0
7C03E0
3E07C0
1FFF80
0FFF00
07FE00
ENDCHAR
STARTCHAR 010C
ENCODING 268
SWIDTH 720 0
DWIDTH 32 0
BBX 28 41 2 -1
BITMAP
00F87C00
007C7800
003CF000
001FE000
001FE000
000FC000
00000000
00000000
003FF000
00FFFC00
03FFFF00
07F87F80
0FC00FC0
1F0007C0
3E0003E0
3E0001E0
7C0001F0
7C000180
78000000
78000000
F8000000
F8000000
F8000000
F8000000
F8000000
F8000000
F8000000
F8000000
78000000
780000E0
7C0000F0
3C0001F0
3E0001E0
3E0003E0
1F0007C0
0FC00FC0
0FF03F80
07FFFF00
01FFFE00
007FF800
00078000
ENDCHAR
STARTCHAR 010D
ENCODING 269
SWIDTH 495 0
DWIDTH 22 0
BBX 20 32 2 -1
BITMAP
0F0F80
0F8F00
079E00
03FC00
01F800
01F800
000000
000000
003000
07FE00
0FFF80
1FFFC0
3E07C0
7C03E0
7801E0
F801E0
F00000
F00000
F00000
F00000
F00000
F00000
F00000
F00000
F000F0
F801E0
7801E0
7C03E0
3E07C0
1FFF80
0FFF00
07FE00
ENDCHAR
STARTCHAR 010E
ENCODING 270
SWIDTH 720 0
DWIDTH 32 0
BBX 27 40 3 0
BITMAP
1F0F8000
0F0F0000
079E0000
03FC0000
03F80000
01F80000
00000000
00000000
FFFE0000
FFFFF000
FFFFF800
FFFFFC00
F800FE00
F8003F00
F8001F80
F8000F80
F80007C0
F80007C0
F80003C0
F80003C0
F80003C0
F80003E0
F80003E0
F80003E0
F80003E0
F80003E0
F80003E0
F80003C0
F80003C0
F80003C0
F80007C0
F8000780
F8000F80
F8000F80
F8001F00
F8007E00
FFFFFC00
FFFFF800
FFFFF000
FFFF8000
ENDCHAR
STARTCHAR 010F
ENCODING 271
SWIDTH 607 0
DWIDTH 27 0
BBX 25 33 2 -1
BITMAP
0000F780
0000F780
0000F780
0000F780
0000F180
0000F180
0000F180
0000F380
0040F700
07F8F200
1FFEF000
3FFFF000
3E07F000
7C03F000
7801F000
F001F000
F001F000
F000F000
F000F000
F000F000
F000F000
F000F000
F000F000
F000F000
F000F000
F001F000
7801F000
7C03F000
3E07F000
1FFFF000
0FFEF000
07FCF000
00400000
ENDCHAR
STARTCHAR 0110
ENCODING 272
SWIDTH 720 0
DWIDTH 32 0
BBX 30 32 0 0
BITMAP
1FFFC000
1FFFFE00
1FFFFF00
1FFFFF80
1F001FC0
1F0007E0
1F0001F0
1F0001F0
1F0000F8
1F0000F8
1F000078
1F000078
1F000078
1F00007C
1F00007C
FFFF007C
FFFF007C
FFFF007C
1F00007C
1F000078
1F000078
1F000078
1F0000F8
1F0000F0
1F0001F0
1F0001F0
1F0003E0
1F000FC0
1FFFFF80
1FFFFF00
1FFFFE00
1FFFF000
ENDCHAR
STARTCHAR 0111
ENCODING 273
SWIDTH 540 0
DWIDTH 24 0
BBX 23 33 2 -1
BITMAP
0000F0
0000F0
0000F0
00FFFE
00FFFE
00FFFE
0000F0
0000F0
0040F0
07F8F0
1FFEF0
3FFFF0
3E07F0
7C03F0
7801F0
F001F0
F001F0
F000F0
F000F0
F000F0
F000F0
F000F0
F000F0
F000F0
F001F0
F001F0
7801F0
7C03F0
3E07F0
1FFFF0
0FFEF0
07F8F0
004000
ENDCHAR
STARTCHAR 0112
ENCODING 274
SWIDTH 652 0
DWIDTH 29 0
BBX 23 38 4 0
BITMAP
07FFE0
07FFE0
07FFE0
07FFE0
000000
000000
FFFFFE
FFFFFE
FFFFFE
FFFFFE
F00000
F00000
F00000
F00000
F00000
F00000
F00000
F00000
F00000
F00000
FFFFF8
FFFFF8
FFFFF8
F00000
F00000
F00000
F00000
F00000
F00000
F00000
F00000
F00000
F00000
F00000
FFFFFE
FFFFFE
FFFFFE
FFFFFE
ENDCHAR
STARTCHAR 0113
ENCODING 275
SWIDTH 540 0
DWIDTH 24 0
BBX 21 31 2 -1
BITMAP
1FFF80
1FFF80
1FFF80
000000
000000
000000
002000
07FE00
0FFF80
1FFFC0
3E03E0
7C01E0
7800F0
F800F0
F000F0
F00078
FFFFF8
FFFFF8
FFFFF8
F00000
F00000
F00000
F00000
F800F8
7800F0
7C01F0
3E03E0
1FFFC0
0FFF80
03FF00
003000
ENDCHAR
STARTCHAR 0114
ENCODING 276
SWIDTH 652 0
DWIDTH 29 0
BBX 23 40 4 0
BITMAP
0701C0
070180
078380
03FF80
01FF00
00FC00
000000
000000
FFFFFE
FFFFFE
FFFFFE
FFFFFE
F00000
F00000
F00000
F00000
F00000
F00000
F00000
F00000
F00000
F00000
FFFFF8
FFFFF8
FFFFF8
F00000
F00000
F00000
F00000
F00000
F00000
F00000
F00000
F00000
F00000
F00000
FFFFFE
FFFFFE
FFFFFE
FFFFFE
ENDCHAR
STARTCHAR 0115
ENCODING 277
SWIDTH 540 0
DWIDTH 24 0
BBX 21 33 2 -1
BITMAP
0E0380
060380
070780
07FF00
03FE00
00F800
000000
000000
002000
07FE00
0FFF80
1FFFC0
3E03E0
7C01E0
7800F0
F800F0
F000F0
F00078
FFFFF8
FFFFF8
FFFFF8
F00000
F00000
F00000
F00000
F800F8
7800F0
7C01F0
3E03E0
1FFFC0
0FFF80
03FF00
003000
ENDCHAR
STARTCHAR 0116
ENCODING 278
SWIDTH 652 0
DWIDTH 29 0
BBX 23 39 4 0
BITMAP
007C00
007C00
007C00
007C00
007C00
000000
000000
FFFFFE
FFFFFE
FFFFFE
FFFFFE
F00000
F00000
F00000
F00000
F00000
F00000
F00000
F00000
F00000
F00000
FFFFF8
FFFFF8
FFFFF8
F00000
F00000
F00000
F00000
F00000
F00000
F00000
F00000
F00000
F00000
F00000
FFFFFE
FFFFFE
FFFFFE
FFFFFE
ENDCHAR
STARTCHAR 0117
ENCODING 279
SWIDTH 540 0
DWIDTH 24 0
BBX 21 32 2 -1
BITMAP
00F800
00F800
00F800
00F800
00F800
000000
000000
002000
07FE00
0FFF80
1FFFC0
3E03E0
7C01E0
7800F0
F800F0
F000F0
F00078
FFFFF8
FFFFF8
FFFFF8
F00000
F00000
F00000
F00000
F800F8
7800F0
7C01F0
3E03E0
1FFFC0
0FFF80
03FF00
003000
ENDCHAR
STARTCHAR 0118
ENCODING 280
SWIDTH 652 0
DWIDTH 29 0
BBX 23 41 4 -9
BITMAP
FFFFFE
FFFFFE
FFFFFE
FFFFFE
F00000
F00000
F00000
F00000
F00000
F00000
F00000
F00000
F00000
F00000
FFFFF8
FFFFF8
FFFFF8
F00000
F00000
F00000
F00000
F00000
F00000
F00000
F00000
F00000
F00000
F00000
FFFFFE
FFFFFE
FFFFFE
FFFFFE
000380
000380
000300
000380
000380
000380
0003FE
0001FE
0000FC
ENDCHAR
STARTCHAR 0119
ENCODING 281
SWIDTH 540 0
DWIDTH 24 0
BBX 21 33 2 -9
BITMAP
002000
07FE00
0FFF80
1FFFC0
3E03E0
7C01E0
7800F0
F800F0
F000F0
F00078
FFFFF8
FFFFF8
FFFFF8
F00000
F00000
F00000
F00000
F800F8
7800F0
7C01F0
3E03E0
1FFFC0
0FFF80
03FF00
007000
007000
007000
007000
007000
007800
007FC0
003FC0
001F80
ENDCHAR
STARTCHAR 011A
ENCODING 282
SWIDTH 652 0
DWIDTH 29 0
BBX 23 40 4 0
BITMAP
0F0780
0F8F00
079F00
03DE00
01FC00
00F800
000000
000000
FFFFFE
FFFFFE
FFFFFE
FFFFFE
F00000
F00000
F00000
F00000
F00000
F00000
F00000
F00000
F00000
F00000
FFFFF8
FFFFF8
FFFFF8
F00000
F00000
F00000
F00000
F00000
F00000
F00000
F00000
F00000
F00000
F00000
FFFFFE
FFFFFE
FFFFFE
FFFFFE
ENDCHAR
STARTCHAR 011B
ENCODING 283
SWIDTH 540 0
DWIDTH 24 0
BBX 21 33 2 -1
BITMAP
0F8780
078F00
03DE00
03FE00
01FC00
00F800
000000
000000
002000
07FE00
0FFF80
1FFFC0
3E03E0
7C01E0
7800F0
F800F0
F000F0
F00078
FFFFF8
FFFFF8
FFFFF8
F00000
F00000
F00000
F00000
F800F8
7800F0
7C01F0
3E03E0
1FFFC0
0FFF80
03FF00
003000
ENDCHAR
STARTCHAR 011C
ENCODING 284
SWIDTH 765 0
DWIDTH 34 0
BBX 30 41 2 -1
BITMAP
0001E000
0003F000
0007F000
000F7800
001F3C00
001E1E00
00200000
00000000
001FFC00
00FFFF00
03FFFFC0
07F81FE0
0FE003E0
0F8001F0
1F0000F0
3E0000F8
3C000078
7C000070
7C000000
78000000
78000000
78000000
F8000000
F8000000
F800FFFC
F800FFFC
F800FFFC
7800FFFC
7800003C
7800003C
7C00003C
3C00003C
3E00003C
1F00003C
1F8000FC
0FE003FC
07FC1FF8
03FFFFE0
00FFFF80
003FFE00
00008000
ENDCHAR
STARTCHAR 011D
ENCODING 285
SWIDTH 540 0
DWIDTH 24 0
BBX 21 41 1 -9
BITMAP
00F800
01FC00
01FE00
03CF00
078F00
0F8780
000000
000000
007000
03FE78
0FFF78
1FFFF8
1F03F8
3E01F8
3C00F8
7800F8
780078
780078
780078
F00078
F00078
F00078
780078
780078
7800F8
7800F8
3C01F8
3E03F8
1F8FF8
0FFF78
07FE78
01F878
000078
000070
7800F0
7800F0
3C01F0
3E03E0
1FFFC0
0FFF80
07FE00
ENDCHAR
STARTCHAR 011E
ENCODING 286
SWIDTH 765 0
DWIDTH 34 0
BBX 30 40 2 -1
BITMAP
00180E00
001C0E00
001F7C00
000FFC00
0007F000
00000000
00000000
001FFC00
00FFFF00
03FFFFC0
07F81FE0
0FE003E0
0F8001F0
1F0000F0
3E0000F8
3C000078
7C000070
7C000000
78000000
78000000
78000000
F8000000
F8000000
F800FFFC
F800FFFC
F800FFFC
7800FFFC
7800003C
7800003C
7C00003C
3C00003C
3E00003C
1F00003C
1F8000FC
0FE003FC
07FC1FF8
03FFFFE0
00FFFF80
003FFE00
00008000
ENDCHAR
STARTCHAR 011F
ENCODING 287
SWIDTH 540 0
DWIDTH 24 0
BBX 21 41 1 -9
BITMAP
0701C0
0701C0
038380
03FF80
01FF00
007C00
000000
000000
007000
03FE78
0FFF78
1FFFF8
1F03F8
3E01F8
3C00F8
7800F8
780078
780078
780078
F00078
F00078
F00078
780078
780078
7800F8
7800F8
3C01F8
3E03F8
1F8FF8
0FFF78
07FE78
01F878
000078
000070
7800F0
7800F0
3C01F0
3E03E0
1FFFC0
0FFF80
07FE00
ENDCHAR
STARTCHAR 0120
ENCODING 288
SWIDTH 765 0
DWIDTH 34 0
BBX 30 39 2 -1
BITMAP
0003E000
0003E000
0003E000
0003E000
00000000
00000000
001FFC00
00FFFF00
03FFFFC0
07F81FE0
0FE003E0
0F8001F0
1F0000F0
3E0000F8
3C000078
7C000070
7C000000
78000000
78000000
78000000
F8000000
F8000000
F800FFFC
F800FFFC
F800FFFC
7800FFFC
7800003C
7800003C
7C00003C
3C00003C
3E00003C
1F00003C
1F8000FC
0FE003FC
07FC1FF8
03FFFFE0
00FFFF80
003FFE00
00008000
ENDCHAR
STARTCHAR 0121
ENCODING 289
SWIDTH 540 0
DWIDTH 24 0
BBX 21 40 1 -9
BITMAP
007C00
007C00
007C00
007C00
007C00
000000
000000
007000
03FE78
0FFF78
1FFFF8
1F03F8
3E01F8
3C00F8
7800F8
780078
780078
780078
F00078
F00078
F00078
780078
780078
7800F8
7800F8
3C01F8
3E03F8
1F8FF8
0FFF78
07FE78
01F878
000078
000070
7800F0
7800F0
3C01F0
3E03E0
1FFFC0
0FFF80
07FE00
ENDCHAR
STARTCHAR 0122
ENCODING 290
SWIDTH 765 0
DWIDTH 34 0
BBX 30 41 2 -9
BITMAP
001FFC00
00FFFF00
03FFFFC0
07F81FE0
0FE003E0
0F8001F0
1F0000F0
3E0000F8
3C000078
7C000070
7C000000
78000000
78000000
78000000
F8000000
F8000000
F800FFFC
F800FFFC
F800FFFC
7800FFFC
7800003C
7800003C
7C00003C
3C00003C
3E00003C
1F00003C
1F8000FC
0FE003FC
07FC1FF8
03FFFFE0
00FFFF80
003FFE00
0001C000
0001C000
0003F000
0000F800
00003800
00007800
000FF800
000FF000
000FE000
ENDCHAR
STARTCHAR 0123
ENCODING 291
SWIDTH 540 0
DWIDTH 24 0
BBX 21 43 1 -9
BITMAP
003000
007800
007000
00E000
00E000
00F800
00F800
00F800
00F800
000000
007000
03FE78
0FFF78
1FFFF8
1F03F8
3E01F8
7C00F8
7800F8
780078
780078
780078
F00078
F00078
F00078
780078
780078
7800F8
7800F8
3C01F8
3E03F8
1F8FF8
0FFF78
07FE78
01F878
000078
000070
7800F0
7800F0
3C01F0
3E03E0
1FFFC0
0FFF80
07FE00
ENDCHAR
STARTCHAR 0124
ENCODING 292
SWIDTH 720 0
DWIDTH 32 0
BBX 25 40 4 0
BITMAP
003E0000
003F0000
007F8000
00F78000
01F3C000
03E1E000
00000000
00000000
F0000F80
F0000F80
F0000F80
F0000F80
F0000F80
F0000F80
F0000F80
F0000F80
F0000F80
F0000F80
F0000F80
F0000F80
F0000F80
FFFFFF80
FFFFFF80
FFFFFF80
FFFFFF80
F0000F80
F0000F80
F0000F80
F0000F80
F0000F80
F0000F80
F0000F80
F0000F80
F0000F80
F0000F80
F0000F80
F0000F80
F0000F80
F0000F80
F0000F80
ENDCHAR
STARTCHAR 0125
ENCODING 293
SWIDTH 540 0
DWIDTH 24 0
BBX 19 40 3 0
BITMAP
00F800
00FC00
01FE00
03CF00
07CF00
078780
000000
000000
F00000
F00000
F00000
F00000
F00000
F00000
F00000
F00000
F02000
F3FE00
F7FF80
FFFF80
FE07C0
FC03C0
F803E0
F001E0
F001E0
F001E0
F001E0
F001E0
F001E0
F001E0
F001E0
F001E0
F001E0
F001E0
F001E0
F001E0
F001E0
F001E0
F001E0
F001E0
ENDCHAR
STARTCHAR 0126
ENCODING 294
SWIDTH 720 0
DWIDTH 32 0
BBX 30 32 1 0
BITMAP
1E0001F0
1E0001F0
1E0001F0
1E0001F0
1E0001F0
FFFFFFFC
FFFFFFFC
FFFFFFFC
1E0001F0
1E0001F0
1E0001F0
1E0001F0
1E0001F0
1FFFFFF0
1FFFFFF0
1FFFFFF0
1FFFFFF0
1E0001F0
1E0001F0
1E0001F0
1E0001F0
1E0001F0
1E0001F0
1E0001F0
1E0001F0
1E0001F0
1E0001F0
1E0001F0
1E0001F0
1E0001F0
1E0001F0
1E0001F0
ENDCHAR
STARTCHAR 0127
ENCODING 295
SWIDTH 540 0
DWIDTH 24 0
BBX 22 32 0 0
BITMAP
1E0000
1E0000
1E0000
FFFE00
FFFE00
FFFE00
1E0000
1E0000
1E0400
1E7FC0
1EFFF0
1FFFF8
1FC0F8
1F8078
1F0078
1E003C
1E003C
1E003C
1E003C
1E003C
1E003C
1E003C
1E003C
1E003C
1E003C
1E003C
1E003C
1E003C
1E003C
1E003C
1E003C
1E003C
ENDCHAR
STARTCHAR 0128
ENCODING 296
SWIDTH 270 0
DWIDTH 12 0
BBX 14 39 -1 0
BITMAP
3E1C
7FBC
FFFC
E3F8
E060
0000
0000
0780
0780
0780
0780
0780
0780
0780
0780
0780
0780
0780
0780
0780
0780
0780
0780
0780
0780
0780
0780
0780
0780
0780
0780
0780
0780
0780
0780
0780
0780
0780
0780
ENDCHAR
STARTCHAR 0129
ENCODING 297
SWIDTH 270 0
DWIDTH 12 0
BBX 14 31 -1 0
BITMAP
3F1C
7FFC
F7FC
E1F8
E000
0000
0000
0000
0780
0780
0780
0780
0780
0780
0780
0780
0780
0780
0780
0780
0780
0780
0780
0780
0780
0780
0780
0780
0780
0780
0780
ENDCHAR
STARTCHAR 012A
ENCODING 298
SWIDTH 270 0
DWIDTH 12 0
BBX 14 37 -1 0
BITMAP
FFFC
FFFC
FFFC
0000
0000
0780
0780
0780
0780
0780
0780
0780
0780
0780
0780
0780
0780
0780
0780
0780
0780
0780
0780
0780
0780
0780
0780
0780
0780
0780
0780
0780
0780
0780
0780
0780
0780
ENDCHAR
STARTCHAR 012B
ENCODING 299
SWIDTH 270 0
DWIDTH 12 0
BBX 14 30 -1 0
BITMAP
FFFC
FFFC
FFFC
0000
0000
0000
0000
0780
0780
0780
0780
0780
0780
0780
0780
0780
0780
0780
0780
0780
0780
0780
0780
0780
0780
0780
0780
0780
0780
0780
ENDCHAR
STARTCHAR 012C
ENCODING 300
SWIDTH 270 0
DWIDTH 12 0
BBX 13 39 0 0
BITMAP
E038
E030
70F0
7FE0
3FC0
0200
0000
0F00
0F00
0F00
0F00
0F00
0F00
0F00
0F00
0F00
0F00
0F00
0F00
0F00
0F00
0F00
0F00
0F00
0F00
0F00
0F00
0F00
0F00
0F00
0F00
0F00
0F00
0F00
0F00
0F00
0F00
0F00
0F00
ENDCHAR
STARTCHAR 012D
ENCODING 301
SWIDTH 270 0
DWIDTH 12 0
BBX 13 32 0 0
BITMAP
E038
E030
F070
7FF0
3FE0
0F80
0000
0000
0000
0F00
0F00
0F00
0F00
0F00
0F00
0F00
0F00
0F00
0F00
0F00
0F00
0F00
0F00
0F00
0F00
0F00
0F00
0F00
0F00
0F00
0F00
0F00
ENDCHAR
STARTCHAR 012E
ENCODING 302
SWIDTH 270 0
DWIDTH 12 0
BBX 9 41 4 -9
BITMAP
F800
F800
F800
F800
F800
F800
F800
F800
F800
F800
F800
F800
F800
F800
F800
F800
F800
F800
F800
F800
F800
F800
F800
F800
F800
F800
F800
F800
F800
F800
F800
F800
E000
C000
C000
C000
E000
E000
FF80
FF80
3F00
ENDCHAR
STARTCHAR 012F
ENCODING 303
SWIDTH 202 0
DWIDTH 9 0
BBX 10 41 2 -9
BITMAP
7800
7800
7800
7800
7800
0000
0000
0000
0000
7800
7800
7800
7800
7800
7800
7800
7800
7800
7800
7800
7800
7800
7800
7800
7800
7800
7800
7800
7800
7800
7800
7800
6000
6000
E000
E000
E000
F040
7FC0
7FC0
3F00
ENDCHAR
STARTCHAR 0130
ENCODING 304
SWIDTH 270 0
DWIDTH 12 0
BBX 5 39 4 0
BITMAP
F8
F8
F8
F8
F8
00
00
F0
F0
F0
F0
F0
F0
F0
F0
F0
F0
F0
F0
F0
F0
F0
F0
F0
F0
F0
F0
F0
F0
F0
F0
F0
F0
F0
F0
F0
F0
F0
F0
ENDCHAR
STARTCHAR 0131
ENCODING 305
SWIDTH 270 0
DWIDTH 12 0
BBX 4 23 4 0
BITMAP
F0
F0
F0
F0
F0
F0
F0
F0
F0
F0
F0
F0
F0
F0
F0
F0
F0
F0
F0
F0
F0
F0
F0
ENDCHAR
STARTCHAR 0132
ENCODING 306
SWIDTH 720 0
DWIDTH 32 0
BBX 26 33 4 -1
BITMAP
F00003C0
F00003C0
F00003C0
F00003C0
F00003C0
F00003C0
F00003C0
F00003C0
F00003C0
F00003C0
F00003C0
F00003C0
F00003C0
F00003C0
F00003C0
F00003C0
F00003C0
F00003C0
F00003C0
F00003C0
F00003C0
F00003C0
F00803C0
F07803C0
F07803C0
F07803C0
F07803C0
F07C07C0
F03F1F80
F03FFF80
F01FFF00
F007FC00
00006000
ENDCHAR
STARTCHAR 0133
ENCODING 307
SWIDTH 427 0
DWIDTH 19 0
BBX 14 41 3 -9
BITMAP
F03C
F03C
F03C
F03C
F03C
0000
0000
0000
0000
F03C
F03C
F03C
F03C
F03C
F03C
F03C
F03C
F03C
F03C
F03C
F03C
F03C
F03C
F03C
F03C
F03C
F03C
F03C
F03C
F03C
F03C
F03C
003C
003C
003C
003C
003C
007C
03F8
03F8
07F0
ENDCHAR
STARTCHAR 0134
ENCODING 308
SWIDTH 495 0
DWIDTH 22 0
BBX 23 41 1 -1
BITMAP
0003C0
0007E0
000FF0
001F78
001E7C
003C3C
000002
000000
0003C0
0003C0
0003C0
0003C0
0003C0
0003C0
0003C0
0003C0
0003C0
0003C0
0003C0
0003C0
0003C0
0003C0
0003C0
0003C0
0003C0
0003C0
0003C0
0003C0
0003C0
0003C0
0003C0
F003C0
F007C0
F007C0
780780
7C0F80
7E1F80
3FFF00
1FFE00
0FFC00
018000
ENDCHAR
STARTCHAR 0135
ENCODING 309
SWIDTH 202 0
DWIDTH 9 0
BBX 13 41 -2 -9
BITMAP
0F80
0FC0
1FE0
3CF0
7CF8
7878
0000
0000
0000
0780
0780
0780
0780
0780
0780
0780
0780
0780
0780
0780
0780
0780
0780
0780
0780
0780
0780
0780
0780
0780
0780
0780
0780
0780
0780
0780
0780
0F00
FF00
FF00
FE00
ENDCHAR
STARTCHAR 0136
ENCODING 310
SWIDTH 652 0
DWIDTH 29 0
BBX 26 41 3 -9
BITMAP
F0000FC0
F0001F80
F0003F00
F0007E00
F000FC00
F001F000
F003E000
F007C000
F00F8000
F01F0000
F03E0000
F07C0000
F0F80000
F1F80000
F3FC0000
F7FC0000
FFBE0000
FF1F0000
FE1F8000
FC0F8000
F807C000
F003E000
F003F000
F001F000
F000F800
F000FC00
F0007E00
F0003E00
F0001F00
F0001F80
F0000F80
F00007C0
00000000
000F0000
000FC000
0007C000
0001E000
0001E000
003FC000
007FC000
007F0000
ENDCHAR
STARTCHAR 0137
ENCODING 311
SWIDTH 495 0
DWIDTH 22 0
BBX 19 41 3 -9
BITMAP
F00000
F00000
F00000
F00000
F00000
F00000
F00000
F00000
F00000
F007C0
F00F80
F01F00
F03E00
F07800
F0F000
F1E000
F3C000
F78000
FFC000
FFE000
FDE000
F9F000
F0F800
F07800
F07C00
F03E00
F01E00
F01F00
F00F80
F00780
F007C0
F003E0
000000
00F000
00FC00
003E00
001E00
001E00
03FE00
03FC00
03F000
ENDCHAR
STARTCHAR 0138
ENCODING 312
SWIDTH 495 0
DWIDTH 22 0
BBX 19 23 3 0
BITMAP
F007C0
F00F80
F01F00
F03C00
F07800
F0F000
F1E000
F3C000
F78000
FFC000
FFE000
FDE000
F9F000
F0F800
F07800
F07C00
F03E00
F01E00
F01F00
F00F80
F00780
F007C0
F003E0
ENDCHAR
STARTCHAR 0139
ENCODING 313
SWIDTH 540 0
DWIDTH 24 0
BBX 20 40 3 0
BITMAP
03E000
03E000
07C000
078000
0F0000
0E0000
000000
000000
F00000
F00000
F00000
F00000
F00000
F00000
F00000
F00000
F00000
F00000
F00000
F00000
F00000
F00000
F00000
F00000
F00000
F00000
F00000
F00000
F00000
F00000
F00000
F00000
F00000
F00000
F00000
F00000
FFFFF0
FFFFF0
FFFFF0
FFFFF0
ENDCHAR
STARTCHAR 013A
ENCODING 314
SWIDTH 202 0
DWIDTH 9 0
BBX 8 40 1 0
BITMAP
1F
1F
3E
3C
78
78
F0
00
3C
3C
3C
3C
3C
3C
3C
3C
3C
3C
3C
3C
3C
3C
3C
3C
3C
3C
3C
3C
3C
3C
3C
3C
3C
3C
3C
3C
3C
3C
3C
3C
ENDCHAR
STARTCHAR 013B
ENCODING 315
SWIDTH 540 0
DWIDTH 24 0
BBX 20 41 3 -9
BITMAP
F00000
F00000
F00000
F00000
F00000
F00000
F00000
F00000
F00000
F00000
F00000
F00000
F00000
F00000
F00000
F00000
F00000
F00000
F00000
F00000
F00000
F00000
F00000
F00000
F00000
F00000
F00000
F00000
FFFFF0
FFFFF0
FFFFF0
FFFFF0
000000
007C00
007E00
001F00
000F00
000F00
01FF00
01FE00
01FC00
ENDCHAR
STARTCHAR 013C
ENCODING 316
SWIDTH 202 0
DWIDTH 9 0
BBX 9 41 0 -9
BITMAP
1E00
1E00
1E00
1E00
1E00
1E00
1E00
1E00
1E00
1E00
1E00
1E00
1E00
1E00
1E00
1E00
1E00
1E00
1E00
1E00
1E00
1E00
1E00
1E00
1E00
1E00
1E00
1E00
1E00
1E00
1E00
1E00
0000
3E00
3F00
0F80
0380
0780
FF80
FF00
FE00
ENDCHAR
STARTCHAR 013D
ENCODING 317
SWIDTH 540 0
DWIDTH 24 0
BBX 20 32 3 0
BITMAP
F00F80
F00F80
F00F80
F00F80
F00F80
F00180
F00380
F00380
F00700
F00E00
F00400
F00000
F00000
F00000
F00000
F00000
F00000
F00000
F00000
F00000
F00000
F00000
F00000
F00000
F00000
F00000
F00000
F00000
FFFFF0
FFFFF0
FFFFF0
FFFFF0
ENDCHAR
STARTCHAR 013E
ENCODING 318
SWIDTH 270 0
DWIDTH 12 0
BBX 10 32 3 0
BITMAP
F3C0
F3C0
F3C0
F3C0
F0C0
F0C0
F1C0
F180
F380
F200
F000
F000
F000
F000
F000
F000
F000
F000
F000
F000
F000
F000
F000
F000
F000
F000
F000
F000
F000
F000
F000
F000
ENDCHAR
STARTCHAR 013F
ENCODING 319
SWIDTH 540 0
DWIDTH 24 0
BBX 20 32 3 0
BITMAP
F00000
F00000
F00000
F00000
F00000
F00000
F00000
F00000
F00000
F00000
F00000
F00000
F00000
F00000
F00780
F00780
F00780
F00780
F00000
F00000
F00000
F00000
F00000
F00000
F00000
F00000
F00000
F00000
FFFFF0
FFFFF0
FFFFF0
FFFFF0
ENDCHAR
STARTCHAR 0140
ENCODING 320
SWIDTH 315 0
DWIDTH 14 0
BBX 12 32 3 0
BITMAP
F000
F000
F000
F000
F000
F000
F000
F000
F000
F000
F000
F000
F000
F000
F1F0
F1F0
F1F0
F1F0
F000
F000
F000
F000
F000
F000
F000
F000
F000
F000
F000
F000
F000
F000
ENDCHAR
STARTCHAR 0141
ENCODING 321
SWIDTH 540 0
DWIDTH 24 0
BBX 23 32 0 0
BITMAP
1E0000
1E0000
1E0000
1E0000
1E0000
1E0000
1E0200
1E0600
1E0E00
1E1E00
1E3C00
1E7800
1FF000
1FE000
1F8000
1F0000
1E0000
7E0000
FE0000
FE0000
DE0000
9E0000
1E0000
1E0000
1E0000
1E0000
1E0000
1E0000
1FFFFE
1FFFFE
1FFFFE
1FFFFE
ENDCHAR
STARTCHAR 0142
ENCODING 322
SWIDTH 202 0
DWIDTH 9 0
BBX 10 32 0 0
BITMAP
1E00
1E00
1E00
1E00
1E00
1E00
1E00
1E00
1E00
1E00
1E40
1EC0
1FC0
1FC0
1F80
1F00
3E00
7E00
FE00
FE00
DE00
9E00
1E00
1E00
1E00
1E00
1E00
1E00
1E00
1E00
1E00
1E00
ENDCHAR
STARTCHAR 0143
ENCODING 323
SWIDTH 720 0
DWIDTH 32 0
BBX 25 40 3 0
BITMAP
000F8000
000F0000
001F0000
001E0000
003C0000
00380000
00000000
00000000
F8000780
FC000780
FC000780
FE000780
FF000780
FF000780
FF800780
F7C00780
F7C00780
F3E00780
F1F00780
F1F00780
F0F80780
F07C0780
F07C0780
F03E0780
F01F0780
F01F0780
F00F8780
F007C780
F007C780
F003E780
F001F780
F001F780
F000FF80
F0007F80
F0007F80
F0003F80
F0001F80
F0001F80
F0000F80
F0000780
ENDCHAR
STARTCHAR 0144
ENCODING 324
SWIDTH 540 0
DWIDTH 24 0
BBX 19 32 3 0
BITMAP
007C00
007C00
00F800
00F000
01E000
01C000
000000
000000
002000
E3FE00
E7FF80
EFFF80
FE07C0
FC03C0
F803E0
F001E0
F001E0
F001E0
F001E0
F001E0
F001E0
F001E0
F001E0
F001E0
F001E0
F001E0
F001E0
F001E0
F001E0
F001E0
F001E0
F001E0
ENDCHAR
STARTCHAR 0145
ENCODING 325
SWIDTH 720 0
DWIDTH 32 0
BBX 25 41 3 -9
BITMAP
F8000780
FC000780
FC000780
FE000780
FF000780
FF000780
FF800780
F7C00780
F7C00780
F3E00780
F1F00780
F1F00780
F0F80780
F07C0780
F07C0780
F03E0780
F01F0780
F01F0780
F00F8780
F007C780
F007C780
F003E780
F001F780
F001F780
F000FF80
F0007F80
F0007F80
F0003F80
F0001F80
F0001F80
F0000F80
F0000780
00000000
000F8000
000FC000
0003E000
0000E000
0001E000
003FE000
003FC000
003F8000
ENDCHAR
STARTCHAR 0146
ENCODING 326
SWIDTH 540 0
DWIDTH 24 0
BBX 19 33 3 -9
BITMAP
002000
E3FE00
E7FF80
EFFF80
FE07C0
FC03C0
F803E0
F001E0
F001E0
F001E0
F001E0
F001E0
F001E0
F001E0
F001E0
F001E0
F001E0
F001E0
F001E0
F001E0
F001E0
F001E0
F001E0
F001E0
000000
01F000
01F800
007C00
003C00
003C00
07FC00
07F800
07F000
ENDCHAR
STARTCHAR 0147
ENCODING 327
SWIDTH 720 0
DWIDTH 32 0
BBX 25 40 3 0
BITMAP
03E1E000
01E3E000
00F3C000
007F8000
007F0000
003E0000
00000000
00000000
F8000780
FC000780
FC000780
FE000780
FF000780
FF000780
FF800780
F7C00780
F7C00780
F3E00780
F1F00780
F1F00780
F0F80780
F07C0780
F07C0780
F03E0780
F01F0780
F01F0780
F00F8780
F007C780
F007C780
F003E780
F001F780
F001F780
F000FF80
F0007F80
F0007F80
F0003F80
F0001F80
F0001F80
F0000F80
F0000780
ENDCHAR
STARTCHAR 0148
ENCODING 328
SWIDTH 540 0
DWIDTH 24 0
BBX 19 32 3 0
BITMAP
1F0F00
0F1E00
07BE00
07FC00
03F800
01F000
000000
000000
002000
E3FE00
E7FF80
EFFF80
FE07C0
FC03C0
F803E0
F001E0
F001E0
F001E0
F001E0
F001E0
F001E0
F001E0
F001E0
F001E0
F001E0
F001E0
F001E0
F001E0
F001E0
F001E0
F001E0
F001E0
ENDCHAR
STARTCHAR 0149
ENCODING 329
SWIDTH 585 0
DWIDTH 26 0
BBX 25 32 -1 0
BITMAP
F8000000
F8000000
F8000000
F8000000
18000000
38000000
30000000
30000000
60008000
438FF800
039FFE00
03BFFE00
03F81F00
03F00F00
03E00F80
03C00780
03C00780
03C00780
03C00780
03C00780
03C00780
03C00780
03C00780
03C00780
03C00780
03C00780
03C00780
03C00780
03C00780
03C00780
03C00780
03C00780
ENDCHAR
STARTCHAR 014A
ENCODING 330
SWIDTH 720 0
DWIDTH 32 0
BBX 26 33 4 -1
BITMAP
F07FE000
F1FFF000
F7FFFC00
FFC1FE00
FF007E00
FC001F00
FC001F00
F8000F80
F0000F80
F0000780
F0000780
F00007C0
F00007C0
F00007C0
F00007C0
F00003C0
F00007C0
F00007C0
F00007C0
F00007C0
F00007C0
F0000780
F0000780
F0000780
F0000F80
F0000F00
F0001F00
F0003E00
F01C7E00
F01FFC00
F03FF800
F01FF000
00010000
ENDCHAR
STARTCHAR 014B
ENCODING 331
SWIDTH 540 0
DWIDTH 24 0
BBX 19 33 3 -9
BITMAP
002000
F3FE00
F7FF80
FFFFC0
FE07C0
FC03C0
F803E0
F001E0
F001E0
F001E0
F001E0
F001E0
F001E0
F001E0
F001E0
F001E0
F001E0
F001E0
F001E0
F001E0
F001E0
F001E0
F001E0
F001E0
0001E0
0001E0
0001E0
0001E0
0003C0
0003C0
003FC0
003F80
003F00
ENDCHAR
STARTCHAR 014C
ENCODING 332
SWIDTH 765 0
DWIDTH 34 0
BBX 31 39 2 -1
BITMAP
007FFC00
007FFC00
007FFC00
00000000
00000000
00000000
003FF800
00FFFE00
03FFFF00
07F87FC0
0FC00FE0
1F8003E0
1F0001F0
3E0000F8
3C0000F8
7C000078
7800007C
7800003C
F800003C
F800003C
F800003C
F800003E
F000003E
F000003E
F800003C
F800003C
7800003C
7800007C
7C00007C
3C000078
3E0000F8
1E0001F0
1F0003F0
0FC007E0
07F01FC0
03FFFF80
00FFFE00
007FF800
00010000
ENDCHAR
STARTCHAR 014D
ENCODING 333
SWIDTH 540 0
DWIDTH 24 0
BBX 22 30 1 -1
BITMAP
07FFC0
07FFC0
07FFC0
000000
000000
000000
001800
03FF00
07FFC0
1FFFE0
1F03F0
3E00F8
3C0078
780078
78003C
78003C
78003C
F8003C
F0003C
F0003C
78003C
78003C
78007C
780078
3C0078
3E00F8
1F03F0
0FFFE0
07FFC0
03FF00
ENDCHAR
STARTCHAR 014E
ENCODING 334
SWIDTH 765 0
DWIDTH 34 0
BBX 31 41 2 -1
BITMAP
00701C00
00301C00
00383C00
003FF800
001FF000
0007E000
00000000
00000000
003FF800
00FFFE00
03FFFF00
07F87FC0
0FC00FE0
1F8003E0
1F0001F0
3E0000F8
3C0000F8
7C000078
7800007C
7800003C
F800003C
F800003C
F800003C
F800003E
F000003E
F000003E
F800003C
F800003C
7800003C
7800007C
7C00007C
3C000078
3E0000F8
1E0001F0
1F0003F0
0FC007E0
07F01FC0
03FFFF80
00FFFE00
007FF800
00010000
ENDCHAR
STARTCHAR 014F
ENCODING 335
SWIDTH 540 0
DWIDTH 24 0
BBX 22 32 1 -1
BITMAP
0701C0
0701C0
038380
03FF80
01FF00
007C00
000000
000000
001800
03FF00
07FFC0
1FFFE0
1F03F0
3E00F8
3C0078
780078
78003C
78003C
78003C
F8003C
F0003C
F0003C
78003C
78003C
78007C
780078
3C0078
3E00F8
1F03F0
0FFFE0
07FFC0
03FF00
ENDCHAR
STARTCHAR 0150
ENCODING 336
SWIDTH 765 0
DWIDTH 34 0
BBX 31 41 2 -1
BITMAP
001F3E00
003E3E00
003C7C00
00787800
00787000
0070F000
00000000
00000000
003FF800
00FFFE00
03FFFF00
07F87FC0
0FC00FE0
1F8003E0
1F0001F0
3E0000F8
3C0000F8
7C000078
7800007C
7800003C
F800003C
F800003C
F800003C
F800003E
F000003E
F000003E
F800003C
F800003C
7800003C
7800007C
7C00007C
3C000078
3E0000F8
1E0001F0
1F0003F0
0FC007E0
07F01FC0
03FFFF80
00FFFE00
007FF800
00010000
ENDCHAR
STARTCHAR 0151
ENCODING 337
SWIDTH 540 0
DWIDTH 24 0
BBX 22 32 1 -1
BITMAP
00F1F0
01F1E0
01E3E0
03C3C0
038780
078700
000000
000000
001800
03FF00
07FFC0
1FFFE0
1F03F0
3E00F8
3C0078
780078
78003C
78003C
78003C
F8003C
F0003C
F0003C
78003C
78003C
78007C
780078
3C0078
3E00F8
1F03F0
0FFFE0
07FFC0
03FF00
ENDCHAR
STARTCHAR 0152
ENCODING 338
SWIDTH 990 0
DWIDTH 44 0
BBX 40 33 3 -1
BITMAP
00FF87FFFE
03FFE7FFFE
0FFFF7FFFE
1FC1FFFFFE
1F007F8000
3E003F8000
3C001F8000
7C001F8000
78000F8000
78000F8000
F800078000
F800078000
F000078000
F000078000
F00007FFFC
F00007FFFC
F00007FFFC
F000078000
F000078000
F000078000
F000078000
F800078000
78000F8000
78000F8000
7C000F8000
3C001F8000
3E003F8000
1F007F8000
1FC0FFFFFF
0FFFF7FFFF
03FFE7FFFF
01FF87FFFF
0008000000
ENDCHAR
STARTCHAR 0153
ENCODING 339
SWIDTH 922 0
DWIDTH 41 0
BBX 38 25 2 -1
BITMAP
0060001000
03FF01FF00
0FFF87FFC0
1FFFCFFFE0
3E03FF81F0
7C01FE00F8
7800FE0078
7800FC0038
F0007C003C
F0007C003C
F0007FFFFC
F0007FFFFC
F0007FFFFC
F0007FFFFC
F000780000
F000780000
F0007C0000
F800FC003C
7800FE007C
7C01FF00F8
3E03FF81F0
1FFFCFFFF0
0FFF87FFE0
03FE01FF80
0020000000
ENDCHAR
STARTCHAR 0154
ENCODING 340
SWIDTH 720 0
DWIDTH 32 0
BBX 28 40 3 0
BITMAP
001F0000
003E0000
003C0000
00780000
00780000
00F00000
00000000
00000000
FFFFE000
FFFFFC00
FFFFFE00
FFFFFF00
F8001F80
F8000F80
F80007C0
F80007C0
F80003C0
F80003C0
F80007C0
F80007C0
F8000F80
F8001F80
FFFFFF00
FFFFFE00
FFFFF800
FFFF8000
F807E000
F801F000
F800F800
F800FC00
F8007C00
F8003E00
F8003F00
F8001F00
F8000F80
F8000FC0
F80007C0
F80003E0
F80003F0
F80001F0
ENDCHAR
STARTCHAR 0155
ENCODING 341
SWIDTH 315 0
DWIDTH 14 0
BBX 12 32 3 0
BITMAP
07C0
0F80
0F00
1F00
1E00
1C00
0000
0000
0080
E3F0
E7F0
EFF0
FFE0
FC00
F800
F000
F000
F000
F000
F000
F000
F000
F000
F000
F000
F000
F000
F000
F000
F000
F000
F000
ENDCHAR
STARTCHAR 0156
ENCODING 342
SWIDTH 720 0
DWIDTH 32 0
BBX 28 41 3 -9
BITMAP
FFFFE000
FFFFFC00
FFFFFE00
FFFFFF00
F8001F80
F8000F80
F80007C0
F80007C0
F80003C0
F80003C0
F80007C0
F80007C0
F8000F80
F8001F80
FFFFFF00
FFFFFE00
FFFFF800
FFFF8000
F807E000
F801F000
F800F800
F800FC00
F8007C00
F8003E00
F8003F00
F8001F00
F8000F80
F8000FC0
F80007C0
F80003E0
F80003F0
F80001F0
00000000
000F8000
000FC000
0003E000
0000E000
0001E000
003FE000
003FC000
003F8000
ENDCHAR
STARTCHAR 0157
ENCODING 343
SWIDTH 315 0
DWIDTH 14 0
BBX 12 33 3 -9
BITMAP
0080
E3F0
E7F0
EFF0
FFE0
FC00
F800
F000
F000
F000
F000
F000
F000
F000
F000
F000
F000
F000
F000
F000
F000
F000
F000
F000
0000
3E00
3F00
0F80
0380
0380
FF80
FF00
FE00
ENDCHAR
STARTCHAR 0158
ENCODING 344
SWIDTH 720 0
DWIDTH 32 0
BBX 28 40 3 0
BITMAP
0F87C000
07878000
03CF0000
01FE0000
01FE0000
00FC0000
00000000
00000000
FFFFE000
FFFFFC00
FFFFFE00
FFFFFF00
F8001F80
F8000F80
F80007C0
F80007C0
F80003C0
F80003C0
F80007C0
F80007C0
F8000F80
F8001F80
FFFFFF00
FFFFFE00
FFFFF800
FFFF8000
F807E000
F801F000
F800F800
F800FC00
F8007C00
F8003E00
F8003F00
F8001F00
F8000F80
F8000FC0
F80007C0
F80003E0
F80003F0
F80001F0
ENDCHAR
STARTCHAR 0159
ENCODING 345
SWIDTH 315 0
DWIDTH 14 0
BBX 13 32 2 0
BITMAP
F0F8
F8F0
79E0
3FC0
1F80
0F80
0000
0000
0040
71F8
73F8
77F8
7FF0
7E00
7C00
7800
7800
7800
7800
7800
7800
7800
7800
7800
7800
7800
7800
7800
7800
7800
7800
7800
ENDCHAR
STARTCHAR 015A
ENCODING 346
SWIDTH 652 0
DWIDTH 29 0
BBX 25 41 2 -1
BITMAP
001F0000
001F0000
003E0000
003C0000
00780000
00780000
00000000
00000000
01FFC000
07FFF000
0FFFF800
1FE3FC00
3E003E00
3C001F00
7C001F00
78000F00
78000F00
78000000
7C000000
3E000000
3FC00000
1FFC0000
0FFFC000
03FFF000
007FFC00
000FFE00
0000FF00
00001F80
00000F80
10000780
F0000780
F0000780
F8000780
78000780
7C000F80
3F001F00
3FE0FE00
1FFFFC00
07FFF800
01FFE000
00040000
ENDCHAR
STARTCHAR 015B
ENCODING 347
SWIDTH 495 0
DWIDTH 22 0
BBX 19 32 1 -1
BITMAP
003E00
003C00
007C00
007800
00F000
00E000
000000
000000
004000
07FE00
1FFF00
3FFF80
3C07C0
7803C0
7801E0
780000
7C0000
3F0000
3FF000
1FFE00
07FF80
00FFC0
001FE0
0003E0
0001E0
F001E0
7801E0
7801E0
3E03E0
3FFFC0
1FFF80
07FE00
ENDCHAR
STARTCHAR 015C
ENCODING 348
SWIDTH 652 0
DWIDTH 29 0
BBX 25 41 2 -1
BITMAP
003E0000
007F0000
007F0000
00F78000
01E3C000
03E3E000
00000000
00000000
01FFC000
07FFF000
0FFFF800
1FE3FC00
3E003E00
3C001F00
7C001F00
78000F00
78000F00
78000000
7C000000
3E000000
3FC00000
1FFC0000
0FFFC000
03FFF000
007FFC00
000FFE00
0000FF00
00001F80
00000F80
10000780
F0000780
F0000780
F8000780
78000780
7C000F80
3F001F00
3FE0FE00
1FFFFC00
07FFF800
01FFE000
00040000
ENDCHAR
STARTCHAR 015D
ENCODING 349
SWIDTH 495 0
DWIDTH 22 0
BBX 19 32 1 -1
BITMAP
00F800
01FC00
03FE00
03DE00
078F00
0F8780
000000
000000
004000
07FE00
1FFF00
3FFF80
3C07C0
7803C0
7801E0
780000
7C0000
3F0000
3FF000
1FFE00
07FF80
00FFC0
001FE0
0003E0
0001E0
F001E0
7801E0
7801E0
3E03E0
3FFFC0
1FFF80
07FE00
ENDCHAR
STARTCHAR 015E
ENCODING 350
SWIDTH 652 0
DWIDTH 29 0
BBX 25 41 2 -9
BITMAP
01FFC000
07FFF000
0FFFF800
1FE3FC00
3E003E00
3C001F00
7C001F00
78000F00
78000F00
78000000
7C000000
3E000000
3FC00000
1FFC0000
0FFFC000
03FFF000
007FFC00
000FFE00
0000FF00
00001F80
00000F80
10000780
F0000780
F0000780
F8000780
78000780
7C000F80
3F001F00
3FE0FE00
1FFFFC00
07FFF800
01FFE000
001C0000
00180000
003F0000
00078000
00078000
00078000
00FF8000
00FF0000
00FC0000
ENDCHAR
STARTCHAR 015F
ENCODING 351
SWIDTH 495 0
DWIDTH 22 0
BBX 19 33 1 -9
BITMAP
004000
07FE00
1FFF00
3FFF80
3C07C0
7803C0
7801E0
780000
7C0000
3F0000
3FF000
1FFE00
07FF80
00FFC0
001FE0
0003E0
0001E0
F001E0
7801E0
7801E0
3E03E0
3FFFC0
1FFF80
07FE00
00E000
00E000
01F800
003C00
001C00
003C00
07FC00
07F800
03C000
ENDCHAR
STARTCHAR 0160
ENCODING 352
SWIDTH 652 0
DWIDTH 29 0
BBX 25 41 2 -1
BITMAP
07C3E000
03E3C000
01E78000
00F70000
007F0000
007E0000
00000000
00000000
01FFC000
07FFF000
0FFFF800
1FE3FC00
3E003E00
3C001F00
7C001F00
78000F00
78000F00
78000000
7C000000
3E000000
3FC00000
1FFC0000
0FFFC000
03FFF000
007FFC00
000FFE00
0000FF00
00001F80
00000F80
10000780
F0000780
F0000780
F8000780
78000780
7C000F80
3F001F00
3FE0FE00
1FFFFC00
07FFF800
01FFE000
00040000
ENDCHAR
STARTCHAR 0161
ENCODING 353
SWIDTH 495 0
DWIDTH 22 0
BBX 19 32 1 -1
BITMAP
1F0F00
0F9F00
079E00
03FC00
01F800
01F000
000000
000000
004000
07FE00
1FFF00
3FFF80
3C07C0
7803C0
7801E0
780000
7C0000
3F0000
3FF000
1FFE00
07FF80
00FFC0
001FE0
0003E0
0001E0
F001E0
7801E0
7801E0
3E03E0
3FFFC0
1FFF80
07FE00
ENDCHAR
STARTCHAR 0162
ENCODING 354
SWIDTH 607 0
DWIDTH 27 0
BBX 25 44 1 -13
BITMAP
FFFFFF80
FFFFFF80
FFFFFF80
FFFFFF80
001E0000
001E0000
001E0000
001E0000
001E0000
001E0000
001E0000
001E0000
001E0000
001E0000
001E0000
001E0000
001E0000
001E0000
001E0000
001E0000
001E0000
001E0000
001E0000
001E0000
001E0000
001E0000
001E0000
001E0000
001E0000
001E0000
001E0000
001E0000
00000000
00000000
00000000
003E0000
003E0000
003E0000
003E0000
000E0000
000E0000
000C0000
001C0000
00380000
ENDCHAR
STARTCHAR 0163
ENCODING 355
SWIDTH 270 0
DWIDTH 12 0
BBX 11 42 1 -12
BITMAP
0200
0E00
1E00
1E00
1E00
1E00
1E00
1E00
FFC0
FFC0
FFC0
1E00
1E00
1E00
1E00
1E00
1E00
1E00
1E00
1E00
1E00
1E00
1E00
1E00
1E00
1E00
1E00
1F00
1FE0
1FE0
07E0
0000
0000
0000
0780
0780
0780
0780
0180
0380
0300
0600
ENDCHAR
STARTCHAR 0164
ENCODING 356
SWIDTH 607 0
DWIDTH 27 0
BBX 25 40 1 0
BITMAP
03C1E000
01E3E000
01F3C000
00F78000
007F0000
003E0000
00000000
00000000
FFFFFF80
FFFFFF80
FFFFFF80
FFFFFF80
001E0000
001E0000
001E0000
001E0000
001E0000
001E0000
001E0000
001E0000
001E0000
001E0000
001E0000
001E0000
001E0000
001E0000
001E0000
001E0000
001E0000
001E0000
001E0000
001E0000
001E0000
001E0000
001E0000
001E0000
001E0000
001E0000
001E0000
001E0000
ENDCHAR
STARTCHAR 0165
ENCODING 357
SWIDTH 360 0
DWIDTH 16 0
BBX 16 32 1 0
BITMAP
000F
060F
0E0F
1E0F
1E03
1E07
1E06
1E06
1E1C
FFC8
FFC0
FFC0
1E00
1E00
1E00
1E00
1E00
1E00
1E00
1E00
1E00
1E00
1E00
1E00
1E00
1E00
1E00
1E00
1F00
1FE0
1FE0
07E0
ENDCHAR
STARTCHAR 0166
ENCODING 358
SWIDTH 607 0
DWIDTH 27 0
BBX 25 32 1 0
BITMAP
FFFFFF80
FFFFFF80
FFFFFF80
FFFFFF80
001E0000
001E0000
001E0000
001E0000
001E0000
001E0000
001E0000
001E0000
001E0000
001E0000
001E0000
1FFFFC00
1FFFFC00
1FFFFC00
001E0000
001E0000
001E0000
001E0000
001E0000
001E0000
001E0000
001E0000
001E0000
001E0000
001E0000
001E0000
001E0000
001E0000
ENDCHAR
STARTCHAR 0167
ENCODING 359
SWIDTH 270 0
DWIDTH 12 0
BBX 11 31 0 0
BITMAP
0200
0E00
1E00
1E00
1E00
1E00
1E00
1E00
FFE0
FFE0
FFE0
1E00
1E00
1E00
1E00
1E00
1E00
FFE0
FFE0
FFE0
1E00
1E00
1E00
1E00
1E00
1E00
1E00
1F00
1FE0
0FE0
07E0
ENDCHAR
STARTCHAR 0168
ENCODING 360
SWIDTH 720 0
DWIDTH 32 0
BBX 26 40 3 -1
BITMAP
00F83800
01FE7800
01FFF000
0387F000
0381C000
00000000
00000000
F80007C0
F80007C0
F80007C0
F80007C0
F80007C0
F80007C0
F80007C0
F80007C0
F80007C0
F80007C0
F80007C0
F80007C0
F80007C0
F80007C0
F80007C0
F80007C0
F80007C0
F80007C0
F80007C0
F8000780
78000780
78000780
78000780
78000780
78000780
7C000F80
3E001F00
3F003F00
1FC1FE00
0FFFFC00
07FFF800
01FFE000
00060000
ENDCHAR
STARTCHAR 0169
ENCODING 361
SWIDTH 540 0
DWIDTH 24 0
BBX 19 32 3 -1
BITMAP
0FC380
1FFF80
1FFF00
387E00
380000
000000
000000
000000
F001E0
F001E0
F001E0
F001E0
F001E0
F001E0
F001E0
F001E0
F001E0
F001E0
F001E0
F001E0
F001E0
F001E0
F003E0
F003E0
F003E0
F003E0
F807E0
7C1FE0
7FFDE0
3FF9E0
1FF1E0
008000
ENDCHAR
STARTCHAR 016A
ENCODING 362
SWIDTH 720 0
DWIDTH 32 0
BBX 26 39 3 -1
BITMAP
01FFF000
01FFF000
01FFF000
01FFF000
00000000
00000000
F80007C0
F80007C0
F80007C0
F80007C0
F80007C0
F80007C0
F80007C0
F80007C0
F80007C0
F80007C0
F80007C0
F80007C0
F80007C0
F80007C0
F80007C0
F80007C0
F80007C0
F80007C0
F80007C0
F8000780
78000780
78000780
78000780
78000780
78000780
7C000F80
3E001F00
3F003F00
1FC1FE00
0FFFFC00
07FFF800
01FFE000
00060000
ENDCHAR
STARTCHAR 016B
ENCODING 363
SWIDTH 540 0
DWIDTH 24 0
BBX 19 31 3 -1
BITMAP
1FFF00
1FFF00
1FFF00
000000
000000
000000
000000
F001E0
F001E0
F001E0
F001E0
F001E0
F001E0
F001E0
F001E0
F001E0
F001E0
F001E0
F001E0
F001E0
F001E0
F003E0
F003E0
F003E0
F003E0
F807E0
7C1FE0
7FFDE0
3FF9E0
1FF1E0
008000
ENDCHAR
STARTCHAR 016C
ENCODING 364
SWIDTH 720 0
DWIDTH 32 0
BBX 26 40 3 -1
BITMAP
01C06000
01C0E000
00FFC000
00FFC000
003F0000
00000000
00000000
F80007C0
F80007C0
F80007C0
F80007C0
F80007C0
F80007C0
F80007C0
F80007C0
F80007C0
F80007C0
F80007C0
F80007C0
F80007C0
F80007C0
F80007C0
F80007C0
F80007C0
F80007C0
F80007C0
F8000780
78000780
78000780
78000780
78000780
78000780
7C000F80
3E001F00
3F003F00
1FC1FE00
0FFFFC00
07FFF800
01FFE000
00060000
ENDCHAR
STARTCHAR 016D
ENCODING 365
SWIDTH 540 0
DWIDTH 24 0
BBX 19 33 3 -1
BITMAP
1C0700
1C0700
0E0E00
0FFE00
07FC00
01F000
000000
000000
000000
F001E0
F001E0
F001E0
F001E0
F001E0
F001E0
F001E0
F001E0
F001E0
F001E0
F001E0
F001E0
F001E0
F001E0
F003E0
F003E0
F003E0
F003E0
F807E0
7C1FE0
7FFDE0
3FF9E0
1FF1E0
008000
ENDCHAR
STARTCHAR 016E
ENCODING 366
SWIDTH 720 0
DWIDTH 32 0
BBX 26 43 3 -1
BITMAP
000C0000
003F0000
00610000
00618000
00618000
00618000
00330000
001E0000
00000000
00000000
F80007C0
F80007C0
F80007C0
F80007C0
F80007C0
F80007C0
F80007C0
F80007C0
F80007C0
F80007C0
F80007C0
F80007C0
F80007C0
F80007C0
F80007C0
F80007C0
F80007C0
F80007C0
F80007C0
F8000780
78000780
78000780
78000780
78000780
78000780
7C000F80
3E001F00
3F003F00
1FC1FE00
0FFFFC00
07FFF800
01FFE000
00060000
ENDCHAR
STARTCHAR 016F
ENCODING 367
SWIDTH 540 0
DWIDTH 24 0
BBX 19 34 3 -1
BITMAP
01E000
03F000
031800
061800
061800
021800
03F000
01E000
000000
000000
F001E0
F001E0
F001E0
F001E0
F001E0
F001E0
F001E0
F001E0
F001E0
F001E0
F001E0
F001E0
F001E0
F001E0
F003E0
F003E0
F003E0
F003E0
F807E0
7C1FE0
7FFDE0
3FF9E0
1FF1E0
008000
ENDCHAR
STARTCHAR 0170
ENCODING 368
SWIDTH 720 0
DWIDTH 32 0
BBX 26 41 3 -1
BITMAP
003E7C00
007C7800
0078F800
00F0F000
00F1E000
01E1C000
00000000
00000000
F80007C0
F80007C0
F80007C0
F80007C0
F80007C0
F80007C0
F80007C0
F80007C0
F80007C0
F80007C0
F80007C0
F80007C0
F80007C0
F80007C0
F80007C0
F80007C0
F80007C0
F80007C0
F80007C0
F8000780
78000780
78000780
78000780
78000780
78000780
7C000F80
3E001F00
3F003F00
1FC1FE00
0FFFFC00
07FFF800
01FFE000
00060000
ENDCHAR
STARTCHAR 0171
ENCODING 369
SWIDTH 540 0
DWIDTH 24 0
BBX 19 33 3 -1
BITMAP
07CF80
0F8F00
0F1F00
1E1E00
1E3C00
3C3800
000000
000000
000000
F001E0
F001E0
F001E0
F001E0
F001E0
F001E0
F001E0
F001E0
F001E0
F001E0
F001E0
F001E0
F001E0
F001E0
F003E0
F003E0
F003E0
F003E0
F807E0
7C1FE0
7FFDE0
3FF9E0
1FF1E0
008000
ENDCHAR
STARTCHAR 0172
ENCODING 370
SWIDTH 720 0
DWIDTH 32 0
BBX 26 41 3 -9
BITMAP
F80007C0
F80007C0
F80007C0
F80007C0
F80007C0
F80007C0
F80007C0
F80007C0
F80007C0
F80007C0
F80007C0
F80007C0
F80007C0
F80007C0
F80007C0
F80007C0
F80007C0
F80007C0
F80007C0
780007C0
78000780
78000780
78000780
78000780
78000780
7C000F80
3E001F00
3F003F00
1FC1FE00
0FFFFC00
07FFF800
01FFE000
001C0000
001C0000
001C0000
001C0000
001C0000
001E0000
001FF000
000FF000
0007E000
ENDCHAR
STARTCHAR 0173
ENCODING 371
SWIDTH 540 0
DWIDTH 24 0
BBX 24 32 3 -9
BITMAP
F001E0
F001E0
F001E0
F001E0
F001E0
F001E0
F001E0
F001E0
F001E0
F001E0
F001E0
F001E0
F001E0
F001E0
F003E0
F003E0
F003E0
F003E0
F807E0
7C1FE0
7FFDE0
3FF9E0
1FF1E0
008180
000180
000380
000380
000380
0003C1
0001FF
0001FF
0000FE
ENDCHAR
STARTCHAR 0174
ENCODING 372
SWIDTH 922 0
DWIDTH 41 0
BBX 40 40 1 0
BITMAP
00007C0000
00007E0000
0000FF0000
0001E78000
0003E78000
0003C3C000
0004000000
0000000000
F0007E000F
F0007E000F
F0007E000F
F8007F001F
7800FF001E
7800FF001E
7800E7001E
7C01E7803C
3C01E7803C
3C01E7803C
3C01C3C03C
1C03C3C078
1E03C3C078
1E0381C078
1E0781E078
0E0781E0F0
0F0781E0F0
0F0700E0F0
0F0F00F0E0
070F00F1E0
078F00F1E0
078E0071E0
079E0079C0
039E0079C0
039C003BC0
03DC003BC0
01FC003B80
01FC003F80
01F8001F80
01F8001F00
00F8001F00
00F0000F00
ENDCHAR
STARTCHAR 0175
ENCODING 373
SWIDTH 720 0
DWIDTH 32 0
BBX 32 32 0 0
BITMAP
0003E000
0007E000
000FF000
001F7800
001E3C00
003C3E00
00000000
00000000
00000000
F003C00F
7803C01E
7807E01E
7807E01E
3807E01C
3C07F03C
3C0FF03C
3C0EF038
1E0E7078
1E1E7878
1E1E7870
0E1C7870
0F1C38F0
0F3C3CF0
073C3CE0
07383DE0
07B81DE0
07F81FC0
03F01FC0
03F00FC0
03F00F80
01F00F80
01E00F80
ENDCHAR
STARTCHAR 0176
ENCODING 374
SWIDTH 652 0
DWIDTH 29 0
BBX 29 40 0 0
BITMAP
0007C000
000FC000
001FE000
001EF000
003C7800
00787C00
00000000
00000000
F80000F8
7C0000F0
3E0001F0
3E0003E0
1F0003C0
0F8007C0
0F800F80
07C00F00
03E01F00
03E03E00
01F03C00
00F87800
00F8F800
007CF000
003DE000
003FE000
001FC000
000F8000
000F8000
000F8000
000F8000
000F8000
000F8000
000F8000
000F8000
000F8000
000F8000
000F8000
000F8000
000F8000
000F8000
000F8000
ENDCHAR
STARTCHAR 0177
ENCODING 375
SWIDTH 495 0
DWIDTH 22 0
BBX 21 41 1 -9
BITMAP
007800
00FC00
01FE00
03CF00
07CF80
078780
000000
000000
000000
F00078
F000F0
7800F0
7800F0
7C01E0
3C01E0
3C01C0
1E03C0
1E03C0
1E0780
0F0780
0F0780
0F0F00
078F00
078E00
039E00
03DE00
03DC00
01FC00
01FC00
01F800
00F800
00F000
00F000
00F000
00E000
01E000
03C000
6FC000
7F8000
3F8000
3E0000
ENDCHAR
STARTCHAR 0178
ENCODING 376
SWIDTH 652 0
DWIDTH 29 0
BBX 29 38 0 0
BITMAP
00787800
00787800
00787800
00787800
00000000
00000000
F80000F8
7C0000F0
3E0001F0
3E0003E0
1F0003C0
0F8007C0
0F800F80
07C00F00
03E01F00
03E03E00
01F03C00
00F87800
00F8F800
007CF000
003DE000
003FE000
001FC000
000F8000
000F8000
000F8000
000F8000
000F8000
000F8000
000F8000
000F8000
000F8000
000F8000
000F8000
000F8000
000F8000
000F8000
000F8000
ENDCHAR
STARTCHAR 0179
ENCODING 377
SWIDTH 607 0
DWIDTH 27 0
BBX 25 40 1 0
BITMAP
000F8000
001F0000
001E0000
001E0000
003C0000
00380000
00000000
00000000
3FFFFF80
3FFFFF80
3FFFFF80
3FFFFF80
00001F00
00003E00
00007C00
0000FC00
0000F800
0001F000
0003E000
0007C000
000FC000
000F8000
001F0000
003E0000
007C0000
00FC0000
00F80000
01F00000
03E00000
07C00000
0FC00000
0F800000
1F000000
3E000000
7C000000
F8000000
FFFFFF80
FFFFFF80
FFFFFF80
FFFFFF80
ENDCHAR
STARTCHAR 017A
ENCODING 378
SWIDTH 495 0
DWIDTH 22 0
BBX 20 32 1 0
BITMAP
003E00
003C00
007C00
007800
00F000
00E000
000000
000000
000000
7FFFF0
7FFFF0
7FFFF0
0003E0
0007C0
000F80
001F00
001E00
003C00
007C00
00F800
01F000
03E000
07C000
0F8000
0F8000
1F0000
3E0000
7C0000
F80000
FFFFF0
FFFFF0
FFFFF0
ENDCHAR
STARTCHAR 017B
ENCODING 379
SWIDTH 607 0
DWIDTH 27 0
BBX 25 39 1 0
BITMAP
001E0000
001E0000
001E0000
001E0000
001E0000
00000000
00000000
3FFFFF80
3FFFFF80
3FFFFF80
3FFFFF80
00001F00
00003E00
00007C00
0000FC00
0000F800
0001F000
0003E000
0007C000
000FC000
000F8000
001F0000
003E0000
007C0000
00FC0000
00F80000
01F00000
03E00000
07C00000
0FC00000
0F800000
1F000000
3E000000
7C000000
F8000000
FFFFFF80
FFFFFF80
FFFFFF80
FFFFFF80
ENDCHAR
STARTCHAR 017C
ENCODING 380
SWIDTH 495 0
DWIDTH 22 0
BBX 20 31 1 0
BITMAP
00F000
00F000
00F000
00F000
00F000
000000
000000
000000
7FFFF0
7FFFF0
7FFFF0
0003E0
0007C0
000F80
001F00
001E00
003C00
007C00
00F800
01F000
03E000
07C000
0F8000
0F8000
1F0000
3E0000
7C0000
F80000
FFFFF0
FFFFF0
FFFFF0
ENDCHAR
STARTCHAR 017D
ENCODING 381
SWIDTH 607 0
DWIDTH 27 0
BBX 25 40 1 0
BITMAP
03C1E000
01E3E000
00F3C000
00F78000
007F0000
003E0000
00000000
00000000
3FFFFF80
3FFFFF80
3FFFFF80
3FFFFF80
00001F00
00003E00
00007C00
0000FC00
0000F800
0001F000
0003E000
0007C000
000FC000
000F8000
001F0000
003E0000
007C0000
00FC0000
00F80000
01F00000
03E00000
07C00000
0FC00000
0F800000
1F000000
3E000000
7C000000
F8000000
FFFFFF80
FFFFFF80
FFFFFF80
FFFFFF80
ENDCHAR
STARTCHAR 017E
ENCODING 382
SWIDTH 495 0
DWIDTH 22 0
BBX 20 32 1 0
BITMAP
0F8780
078F00
03CF00
01FE00
01FC00
00F800
000000
000000
000000
7FFFF0
7FFFF0
7FFFF0
0003E0
0007C0
000F80
001F00
001E00
003C00
007C00
00F800
01F000
03E000
07C000
0F8000
0F8000
1F0000
3E0000
7C0000
F80000
FFFFF0
FFFFF0
FFFFF0
ENDCHAR
STARTCHAR 017F
ENCODING 383
SWIDTH 202 0
DWIDTH 9 0
BBX 10 32 3 0
BITMAP
1FC0
7FC0
7FC0
F800
F000
F000
F000
F000
F000
F000
F000
F000
F000
F000
F000
F000
F000
F000
F000
F000
F000
F000
F000
F000
F000
F000
F000
F000
F000
F000
F000
F000
ENDCHAR
STARTCHAR 018F
ENCODING 399
SWIDTH 742 0
DWIDTH 33 0
BBX 29 33 2 -1
BITMAP
003FF000
01FFFC00
03FFFF00
07FC7F80
0FC00FC0
1F8007C0
1F0003E0
3E0001F0
3E0000F0
0C0000F0
000000F8
00000078
00000078
00000078
FFFFFFF8
FFFFFFF8
FFFFFFF8
F8000078
F8000078
F8000078
78000078
780000F8
780000F8
7C0000F0
3C0001F0
3E0003E0
1F0003E0
1F800FC0
0FE03F80
07FFFF00
01FFFE00
007FF800
00020000
ENDCHAR
STARTCHAR 0192
ENCODING 402
SWIDTH 540 0
DWIDTH 24 0
BBX 23 41 1 -9
BITMAP
0003FE
0007FC
0007FC
000F8C
000F00
000F00
000F00
001E00
001E00
01FFF0
01FFE0
03FFE0
001E00
003C00
003C00
003C00
003C00
003C00
003C00
007800
007800
007800
007800
007800
007000
00F000
00F000
00F000
00F000
00F000
00E000
01E000
01E000
01E000
01E000
01E000
03C000
03C000
FFC000
FF8000
FF0000
ENDCHAR
STARTCHAR 01A0
ENCODING 416
SWIDTH 855 0
DWIDTH 38 0
BBX 35 33 2 -1
BITMAP
003FF801E0
00FFFE01E0
03FFFF01E0
07F87FC1E0
0FC00FE060
1F8003E060
1F0001F060
3E0000F8C0
3C000079C0
7C00007F80
7800007E00
7800003C00
F800003C00
F800003C00
F800003C00
F800003E00
F000003E00
F000003E00
F800003C00
F800003C00
7800003C00
7800007C00
7C00007C00
3C00007800
3E0000F800
1E0001F000
1F0003F000
0FC007E000
07F01FC000
03FFFF8000
01FFFE0000
003FF80000
0001000000
ENDCHAR
STARTCHAR 01A1
ENCODING 417
SWIDTH 652 0
DWIDTH 29 0
BBX 27 24 1 -1
BITMAP
001801E0
03FF01E0
07FFC1E0
1FFFE1E0
1F03F1E0
3E00F860
3C0078E0
780078C0
78007DC0
78003F80
78003F00
F8003C00
F0003C00
F0003C00
78003C00
78003C00
78007C00
78007800
3C007800
3E00F000
1F03F000
0FFFE000
07FFC000
03FF0000
ENDCHAR
STARTCHAR 01AF
ENCODING 431
SWIDTH 832 0
DWIDTH 37 0
BBX 33 33 3 -1
BITMAP
F80007C780
F80007C780
F80007C780
F80007C780
F80007C780
F80007C180
F80007C180
F80007C180
F80007C300
F80007C700
F80007DE00
F80007F800
F80007C000
F80007C000
F80007C000
F80007C000
F80007C000
F80007C000
F80007C000
F800078000
7800078000
7800078000
7800078000
7800078000
78000F8000
7C000F8000
3E001F0000
3F003F0000
1FC1FE0000
0FFFFC0000
07FFF80000
01FFE00000
0006000000
ENDCHAR
STARTCHAR 01B0
ENCODING 432
SWIDTH 652 0
DWIDTH 29 0
BBX 25 24 3 -1
BITMAP
F001E780
F001E780
F001E780
F001E780
F001E180
F001E180
F001E180
F001E180
F001E380
F001E700
F001FE00
F001F800
F001E000
F001E000
F003E000
F003E000
F003E000
F003E000
F807E000
7C1FE000
7FFDE000
3FF9E000
1FF1E000
00800000
ENDCHAR
STARTCHAR 01CD
ENCODING 461
SWIDTH 652 0
DWIDTH 29 0
BBX 30 40 0 0
BITMAP
00F07800
00F8F000
0078F000
003DE000
001FC000
000F8000
00000000
00000000
000F8000
000F8000
001FC000
001FC000
003DC000
003DE000
003DE000
0078F000
0078F000
0078F800
00F07800
00F07800
01F07C00
01E03C00
01E03E00
03C01E00
03C01E00
07C01F00
07800F00
07FFFF80
0FFFFF80
0FFFFF80
0F0007C0
1E0003C0
1E0003E0
3E0003E0
3C0001E0
3C0001F0
7C0000F0
780000F8
F80000F8
F800007C
ENDCHAR
STARTCHAR 01CE
ENCODING 462
SWIDTH 540 0
DWIDTH 24 0
BBX 21 33 2 -1
BITMAP
0787C0
07C780
03CF00
01FE00
00FC00
00FC00
000000
000000
007000
07FF00
1FFFC0
3FFFE0
7C03E0
7801E0
7801F0
F000F0
0000F0
0001F0
003FF0
07FFF0
1FFEF0
7FF0F0
7C00F0
F800F0
F001F0
F001F0
F001F0
F003F0
F80FF0
7FFFF0
7FFCF0
1FF078
030000
ENDCHAR
STARTCHAR 01CF
ENCODING 463
SWIDTH 270 0
DWIDTH 12 0
BBX 14 40 -1 0
BITMAP
F83C
7C78
3CF0
1EF0
1FE0
0FC0
0000
0000
0780
0780
0780
0780
0780
0780
0780
0780
0780
0780
0780
0780
0780
0780
0780
0780
0780
0780
0780
0780
0780
0780
0780
0780
0780
0780
0780
0780
0780
0780
0780
0780
ENDCHAR
STARTCHAR 01D0
ENCODING 464
SWIDTH 202 0
DWIDTH 9 0
BBX 13 32 -1 0
BITMAP
F0F8
F8F0
79E0
3FC0
1F80
1F80
0000
0000
0000
0F00
0F00
0F00
0F00
0F00
0F00
0F00
0F00
0F00
0F00
0F00
0F00
0F00
0F00
0F00
0F00
0F00
0F00
0F00
0F00
0F00
0F00
0F00
ENDCHAR
STARTCHAR 01D1
ENCODING 465
SWIDTH 765 0
DWIDTH 34 0
BBX 31 41 2 -1
BITMAP
00783C00
007C7C00
003E7800
001EF000
000FE000
0007C000
00000000
00000000
003FF800
00FFFE00
03FFFF00
07F87FC0
0FC00FE0
1F8003E0
1F0001F0
3E0000F8
3C0000F8
7C000078
7800007C
7800003C
F800003C
F800003C
F800003C
F800003E
F000003E
F000003E
F800003C
F800003C
7800003C
7800007C
7C00007C
3C000078
3E0000F8
1E0001F0
1F0003F0
0FC007E0
07F01FC0
03FFFF80
00FFFE00
007FF800
00010000
ENDCHAR
STARTCHAR 01D2
ENCODING 466
SWIDTH 540 0
DWIDTH 24 0
BBX 22 32 1 -1
BITMAP
0787C0
03C780
03EF00
01FE00
00FE00
007C00
000000
000000
001800
03FF00
07FFC0
1FFFE0
1F03F0
3E00F8
3C0078
780078
78003C
78003C
78003C
F8003C
F0003C
F0003C
78003C
78003C
78007C
780078
3C0078
3E00F8
1F03F0
0FFFE0
07FFC0
03FF00
ENDCHAR
STARTCHAR 01D3
ENCODING 467
SWIDTH 720 0
DWIDTH 32 0
BBX 26 41 3 -1
BITMAP
01E0F000
01F1E000
00F3E000
007BC000
003F8000
003F0000
00000000
00000000
F80007C0
F80007C0
F80007C0
F80007C0
F80007C0
F80007C0
F80007C0
F80007C0
F80007C0
F80007C0
F80007C0
F80007C0
F80007C0
F80007C0
F80007C0
F80007C0
F80007C0
F80007C0
F80007C0
F8000780
78000780
78000780
78000780
78000780
78000780
7C000F80
3E001F00
3F003F00
1FC1FE00
0FFFFC00
07FFF800
01FFE000
00060000
ENDCHAR
STARTCHAR 01D4
ENCODING 468
SWIDTH 540 0
DWIDTH 24 0
BBX 19 33 3 -1
BITMAP
1E0F00
0F1E00
07BC00
07BC00
03F800
01F000
000000
000000
000000
F001E0
F001E0
F001E0
F001E0
F001E0
F001E0
F001E0
F001E0
F001E0
F001E0
F001E0
F001E0
F001E0
F001E0
F003E0
F003E0
F003E0
F003E0
F807E0
7C1FE0
7FFDE0
3FF9E0
1FF1E0
008000
ENDCHAR
STARTCHAR 01D5
ENCODING 469
SWIDTH 720 0
DWIDTH 32 0
BBX 26 41 3 -1
BITMAP
00FFE000
00FFE000
00FFE000
00000000
00E0E000
00E0E000
00E0E000
00E0E000
F80007C0
F80007C0
F80007C0
F80007C0
F80007C0
F80007C0
F80007C0
F80007C0
F80007C0
F80007C0
F80007C0
F80007C0
F80007C0
F80007C0
F80007C0
F80007C0
F80007C0
F80007C0
F80007C0
F8000780
78000780
78000780
78000780
78000780
78000780
7C000F80
3E001F00
3F003F00
1FC1FE00
0FFFFC00
07FFF800
01FFE000
00060000
ENDCHAR
STARTCHAR 01D6
ENCODING 470
SWIDTH 540 0
DWIDTH 24 0
BBX 19 39 3 -1
BITMAP
3FFF00
3FFF00
3FFF00
000000
000000
000000
1E1E00
1E1E00
1E1E00
1E1E00
000000
000000
000000
000000
000000
F001E0
F001E0
F001E0
F001E0
F001E0
F001E0
F001E0
F001E0
F001E0
F001E0
F001E0
F001E0
F001E0
F001E0
F003E0
F003E0
F003E0
F003E0
F807E0
7C1FE0
7FFDE0
3FF9E0
1FF1E0
008000
ENDCHAR
STARTCHAR 01D7
ENCODING 471
SWIDTH 720 0
DWIDTH 32 0
BBX 26 41 3 -1
BITMAP
0007C000
00078000
000F0000
001C0000
00E0E000
00E0E000
00E0E000
00E0E000
F80007C0
F80007C0
F80007C0
F80007C0
F80007C0
F80007C0
F80007C0
F80007C0
F80007C0
F80007C0
F80007C0
F80007C0
F80007C0
F80007C0
F80007C0
F80007C0
F80007C0
F80007C0
F80007C0
F8000780
78000780
78000780
78000780
78000780
78000780
7C000F80
3E001F00
3F003F00
1FC1FE00
0FFFFC00
07FFF800
01FFE000
00060000
ENDCHAR
STARTCHAR 01D8
ENCODING 472
SWIDTH 540 0
DWIDTH 24 0
BBX 19 41 3 -1
BITMAP
007C00
007C00
007800
00F000
00E000
01E000
000000
000000
1E1E00
1E1E00
1E1E00
1E1E00
000000
000000
000000
000000
000000
F001E0
F001E0
F001E0
F001E0
F001E0
F001E0
F001E0
F001E0
F001E0
F001E0
F001E0
F001E0
F001E0
F001E0
F003E0
F003E0
F003E0
F003E0
F807E0
7C1FE0
7FFDE0
3FF9E0
1FF1E0
008000
ENDCHAR
STARTCHAR 01D9
ENCODING 473
SWIDTH 720 0
DWIDTH 32 0
BBX 26 41 3 -1
BITMAP
0071C000
003B8000
001F0000
001E0000
00E0E000
00E0E000
00E0E000
00E0E000
F80007C0
F80007C0
F80007C0
F80007C0
F80007C0
F80007C0
F80007C0
F80007C0
F80007C0
F80007C0
F80007C0
F80007C0
F80007C0
F80007C0
F80007C0
F80007C0
F80007C0
F80007C0
F80007C0
F8000780
78000780
78000780
78000780
78000780
78000780
7C000F80
3E001F00
3F003F00
1FC1FE00
0FFFFC00
07FFF800
01FFE000
00060000
ENDCHAR
STARTCHAR 01DA
ENCODING 474
SWIDTH 540 0
DWIDTH 24 0
BBX 19 41 3 -1
BITMAP
1E0F00
0F1E00
07BC00
07BC00
03F800
01F000
000000
000000
1E1E00
1E1E00
1E1E00
1E1E00
000000
000000
000000
000000
000000
F001E0
F001E0
F001E0
F001E0
F001E0
F001E0
F001E0
F001E0
F001E0
F001E0
F001E0
F001E0
F001E0
F001E0
F003E0
F003E0
F003E0
F003E0
F807E0
7C1FE0
7FFDE0
3FF9E0
1FF1E0
008000
ENDCHAR
STARTCHAR 01DB
ENCODING 475
SWIDTH 720 0
DWIDTH 32 0
BBX 26 41 3 -1
BITMAP
00F80000
003C0000
001E0000
000E0000
00E0E000
00E0E000
00E0E000
00E0E000
F80007C0
F80007C0
F80007C0
F80007C0
F80007C0
F80007C0
F80007C0
F80007C0
F80007C0
F80007C0
F80007C0
F80007C0
F80007C0
F80007C0
F80007C0
F80007C0
F80007C0
F80007C0
F80007C0
F8000780
78000780
78000780
78000780
78000780
78000780
7C000F80
3E001F00
3F003F00
1FC1FE00
0FFFFC00
07FFF800
01FFE000
00060000
ENDCHAR
STARTCHAR 01DC
ENCODING 476
SWIDTH 540 0
DWIDTH 24 0
BBX 19 41 3 -1
BITMAP
0F8000
078000
07C000
03C000
01E000
00E000
000000
000000
1E1E00
1E1E00
1E1E00
1E1E00
000000
000000
000000
000000
000000
F001E0
F001E0
F001E0
F001E0
F001E0
F001E0
F001E0
F001E0
F001E0
F001E0
F001E0
F001E0
F001E0
F001E0
F003E0
F003E0
F003E0
F003E0
F807E0
7C1FE0
7FFDE0
3FF9E0
1FF1E0
008000
ENDCHAR
STARTCHAR 01FA
ENCODING 506
SWIDTH 652 0
DWIDTH 29 0
BBX 30 46 0 0
BITMAP
0001F000
0003E000
0003C000
00078000
00078000
000F0000
00000000
00020000
000F8000
0018C000
00304000
00304000
0010C000
001DC000
000F8000
000F8000
001FC000
001FC000
003DC000
003DE000
003DE000
0078F000
0078F000
0078F800
00F07800
00F07800
01F07C00
01E03C00
01E03E00
03C01E00
03C01E00
07C01F00
07800F00
07FFFF80
0FFFFF80
0FFFFF80
0F0007C0
1E0003C0
1E0003E0
3E0003E0
3C0001E0
3C0001F0
7C0000F0
780000F8
F80000F8
F800007C
ENDCHAR
STARTCHAR 01FB
ENCODING 507
SWIDTH 540 0
DWIDTH 24 0
BBX 21 43 2 -1
BITMAP
001F80
001F00
003E00
003C00
003800
007800
000000
000000
000000
00F000
01F800
018C00
030C00
030400
010C00
01F800
00F000
000000
007000
07FF00
1FFFC0
3FFFE0
7C03E0
7801E0
7801F0
F000F0
0000F0
0001F0
003FF0
07FFF0
1FFEF0
7FF0F0
7C00F0
F800F0
F001F0
F001F0
F001F0
F003F0
F80FF0
7FFFF0
7FFCF0
1FF078
030000
ENDCHAR
STARTCHAR 01FC
ENCODING 508
SWIDTH 990 0
DWIDTH 44 0
BBX 42 40 0 0
BITMAP
000003E00000
000007C00000
000007800000
00000F800000
00000F000000
00001E000000
000000000000
000000000000
0001FFFFFF80
0001FFFFFF80
0003FFFFFF80
0003FFFFFF80
0007C7800000
000787800000
000F87800000
000F07800000
001F07800000
001E07800000
003E07800000
003C07800000
007C07800000
007807800000
00F807FFFF00
00F007FFFF00
01F007FFFF00
01E007800000
03E007800000
03FFFF800000
03FFFF800000
07FFFF800000
07FFFF800000
0F8007800000
0F0007800000
1F0007800000
1E0007800000
3E0007800000
3C0007FFFFC0
7C0007FFFFC0
780007FFFFC0
F80007FFFFC0
ENDCHAR
STARTCHAR 01FD
ENCODING 509
SWIDTH 877 0
DWIDTH 39 0
BBX 37 33 1 -1
BITMAP
00001F0000
00001F0000
00001E0000
00003C0000
0000380000
0000780000
0000000000
0000000000
0038006000
03FF83FE00
0FFFCFFF80
1FFFFFFFC0
3E01FE03E0
3C00FC01E0
7800F800F0
7800F800F0
0000F000F0
0000F00070
001FFFFFF8
03FFFFFFF8
1FFFFFFFF8
3FF0F00000
7E00F00000
7800F00000
7800F00000
F800F800F0
F801F800F0
7803FC01F0
7C07FE03E0
3FFF1FFFC0
3FFE0FFF80
0FF803FE00
0080006000
ENDCHAR
STARTCHAR 01FE
ENCODING 510
SWIDTH 765 0
DWIDTH 34 0
BBX 31 41 2 -1
BITMAP
0001F800
0001F000
0001E000
0003C000
00038000
00078000
00000000
00000008
003FF81E
00FFFE1C
03FFFF38
07F83FF8
0FC00FF0
1F8003E0
1E0003F0
3E0007F8
7C000FF8
7C001E78
78001C7C
7800383C
F800783C
F800F03C
F001E03C
F003C03C
F007803C
F00F003C
F81E003C
F83C003C
F838003C
7870007C
7CF00078
7DE00078
3FC000F8
1F8001F0
1F0003F0
1FC007E0
3FF03FC0
3BFFFF80
71FFFE00
F07FF800
60010000
ENDCHAR
STARTCHAR 01FF
ENCODING 511
SWIDTH 607 0
DWIDTH 27 0
BBX 21 33 3 -2
BITMAP
001F00
001E00
003E00
003C00
007800
007000
000000
000000
002030
03FE38
0FFFF0
1FFFE0
3E03E0
7C03F0
7803F0
F807F8
F00E78
F01E78
F01C78
F03878
F07078
F0F078
F0E078
F1C078
F38078
FF80F8
7F00F0
7E01F0
3E03E0
3FFFC0
7FFF80
73FE00
602000
ENDCHAR
STARTCHAR 0259
ENCODING 601
SWIDTH 540 0
DWIDTH 24 0
BBX 21 25 2 -1
BITMAP
003000
07FE00
1FFF80
3FFFC0
7E07E0
7C01F0
F800F0
F000F0
000078
000078
000078
FFFFF8
FFFFF8
FFFFF8
FFFFF8
F00078
F000F8
7800F0
7800F0
7C01E0
3E03E0
1FFFC0
0FFF80
07FE00
002000
ENDCHAR
STARTCHAR 02C6
ENCODING 710
SWIDTH 315 0
DWIDTH 14 0
BBX 13 6 1 26
BITMAP
0F80
1FC0
3DC0
3DE0
78F0
F0F8
ENDCHAR
STARTCHAR 02C7
ENCODING 711
SWIDTH 315 0
DWIDTH 14 0
BBX 13 6 1 26
BITMAP
F878
78F0
3CF0
1FE0
1FC0
0F80
ENDCHAR
STARTCHAR 02C9
ENCODING 713
SWIDTH 315 0
DWIDTH 14 0
BBX 13 3 1 27
BITMAP
FFF8
FFF8
FFF8
ENDCHAR
STARTCHAR 02D8
ENCODING 728
SWIDTH 315 0
DWIDTH 14 0
BBX 13 6 1 26
BITMAP
E038
E038
7070
7FF0
3FE0
0F80
ENDCHAR
STARTCHAR 02D9
ENCODING 729
SWIDTH 315 0
DWIDTH 14 0
BBX 5 5 5 26
BITMAP
F8
F8
F8
F8
F8
ENDCHAR
STARTCHAR 02DA
ENCODING 730
SWIDTH 315 0
DWIDTH 14 0
BBX 7 8 4 25
BITMAP
38
FC
C6
82
82
C6
FE
78
ENDCHAR
STARTCHAR 02DB
ENCODING 731
SWIDTH 315 0
DWIDTH 14 0
BBX 9 10 4 -9
BITMAP
7000
6000
E000
E000
E000
E000
F000
FF80
7F80
3F00
ENDCHAR
STARTCHAR 02DC
ENCODING 732
SWIDTH 315 0
DWIDTH 14 0
BBX 15 5 0 26
BITMAP
3F0E
7FFC
FFFC
E1F8
E000
ENDCHAR
STARTCHAR 02DD
ENCODING 733
SWIDTH 315 0
DWIDTH 14 0
BBX 14 6 2 26
BITMAP
3E7C
7C78
78F8
F0F0
F1E0
E1E0
ENDCHAR
STARTCHAR 0300
ENCODING 768
SWIDTH 0 0
DWIDTH 0 0
BBX 7 6 -11 34
BITMAP
F8
F8
7C
3C
1E
0E
ENDCHAR
STARTCHAR 0301
ENCODING 769
SWIDTH 0 0
DWIDTH 0 0
BBX 8 6 -8 34
BITMAP
1F
3E
3C
78
78
F0
ENDCHAR
STARTCHAR 0303
ENCODING 771
SWIDTH 0 0
DWIDTH 0 0
BBX 15 5 -20 34
BITMAP
080E
3F0E
7FFE
77FC
E0F8
ENDCHAR
STARTCHAR 0309
ENCODING 777
SWIDTH 0 0
DWIDTH 0 0
BBX 9 7 -10 33
BITMAP
FC00
FF00
0F80
0380
0F80
1F00
1800
ENDCHAR
STARTCHAR 0323
ENCODING 803
SWIDTH 0 0
DWIDTH 0 0
BBX 4 4 -17 -7
BITMAP
F0
F0
F0
F0
ENDCHAR
STARTCHAR 037E
ENCODING 894
SWIDTH 270 0
DWIDTH 12 0
BBX 4 29 4 -6
BITMAP
F0
F0
F0
F0
00
00
00
00
00
00
00
00
00
00
00
00
00
00
00
F0
F0
F0
F0
30
30
30
70
E0
C0
ENDCHAR
STARTCHAR 0384
ENCODING 900
SWIDTH 315 0
DWIDTH 14 0
BBX 7 6 5 26
BITMAP
3E
3E
3C
78
70
F0
ENDCHAR
STARTCHAR 0385
ENCODING 901
SWIDTH 315 0
DWIDTH 14 0
BBX 15 6 0 27
BITMAP
01E0
01E0
E3CE
E38E
E38E
E70E
ENDCHAR
STARTCHAR 0386
ENCODING 902
SWIDTH 652 0
DWIDTH 29 0
BBX 30 32 0 0
BITMAP
0F8F8000
1F0F8000
1E1FC000
3E1FC000
3C1DE000
383DE000
003DE000
0078F000
0078F000
0078F800
00F07800
00F07800
01F03C00
01E03C00
01E03E00
03C01E00
03C01E00
03C01F00
07800F00
07FFFF80
0FFFFF80
0FFFFF80
0F0007C0
1F0003C0
1E0003E0
3E0003E0
3C0001F0
3C0001F0
7C0000F0
780000F8
780000F8
F800007C
ENDCHAR
STARTCHAR 0387
ENCODING 903
SWIDTH 270 0
DWIDTH 12 0
BBX 4 4 4 19
BITMAP
F0
F0
F0
F0
ENDCHAR
STARTCHAR 0388
ENCODING 904
SWIDTH 765 0
DWIDTH 34 0
BBX 34 32 -2 0
BITMAP
1F1FFFFFC0
3E1FFFFFC0
3C1FFFFFC0
781FFFFFC0
781E000000
F01E000000
001E000000
001E000000
001E000000
001E000000
001E000000
001E000000
001E000000
001E000000
001FFFFF80
001FFFFF80
001FFFFF80
001E000000
001E000000
001E000000
001E000000
001E000000
001E000000
001E000000
001E000000
001E000000
001E000000
001E000000
001FFFFFC0
001FFFFFC0
001FFFFFC0
001FFFFFC0
ENDCHAR
STARTCHAR 0389
ENCODING 905
SWIDTH 832 0
DWIDTH 37 0
BBX 35 32 -2 0
BITMAP
1F3C0001E0
3E3C0001E0
3C3C0001E0
7C3C0001E0
783C0001E0
F03C0001E0
003C0001E0
003C0001E0
003C0001E0
003C0001E0
003C0001E0
003C0001E0
003C0001E0
003FFFFFE0
003FFFFFE0
003FFFFFE0
003FFFFFE0
003C0001E0
003C0001E0
003C0001E0
003C0001E0
003C0001E0
003C0001E0
003C0001E0
003C0001E0
003C0001E0
003C0001E0
003C0001E0
003C0001E0
003C0001E0
003C0001E0
003C0001E0
ENDCHAR
STARTCHAR 038A
ENCODING 906
SWIDTH 382 0
DWIDTH 17 0
BBX 14 32 -2 0
BITMAP
1F3C
3E3C
3C3C
7C3C
783C
F03C
003C
003C
003C
003C
003C
003C
003C
003C
003C
003C
003C
003C
003C
003C
003C
003C
003C
003C
003C
003C
003C
003C
003C
003C
003C
003C
ENDCHAR
STARTCHAR 038C
ENCODING 908
SWIDTH 765 0
DWIDTH 34 0
BBX 34 33 -2 -1
BITMAP
1F03FF8000
3E1FFFE000
3C3FFFF000
787F83F800
78FC00FC00
F1F0003E00
03E0001F00
03C0000F00
07C0000F80
0780000780
07800007C0
0F800007C0
0F800003C0
0F000003C0
0F000003C0
0F000003C0
0F000003C0
0F000003C0
0F000003C0
0F000003C0
0F800007C0
07800007C0
0780000780
07C0000F80
03C0000F80
03E0001F00
01F0003E00
00FC007E00
007F03FC00
003FFFF000
001FFFE000
0007FF8000
0000780000
ENDCHAR
STARTCHAR 038E
ENCODING 910
SWIDTH 855 0
DWIDTH 38 0
BBX 39 32 -2 0
BITMAP
1F3F00003E
3E1F00003E
3C0F80007C
780FC000F8
7807C000F0
F003E001F0
0003E003E0
0001F003C0
0000F807C0
0000F80F80
00007C0F00
00003E1F00
00003E3E00
00001F3C00
00000FFC00
00000FF800
000007F000
000003E000
000003E000
000003E000
000003E000
000003E000
000003E000
000003E000
000003E000
000003E000
000003E000
000003E000
000003E000
000003E000
000003E000
000003E000
ENDCHAR
STARTCHAR 038F
ENCODING 911
SWIDTH 742 0
DWIDTH 33 0
BBX 33 32 -2 0
BITMAP
1F03FF0000
3E0FFFC000
3C3FFFF000
787F87F800
78FC00FC00
F1F8007C00
01F0003E00
03E0001F00
03E0001F00
07C0000F00
07C0000F80
0780000F80
0780000F80
0780000780
0780000780
0780000780
0780000780
0780000780
0780000F80
0780000F00
03C0000F00
03C0000F00
03E0001E00
01E0001E00
00F0003C00
00F8007800
007C00F000
003E01E000
0FFF87FF80
0FFF87FF80
0FFF87FF80
0FFF87FF80
ENDCHAR
STARTCHAR 0390
ENCODING 912
SWIDTH 202 0
DWIDTH 9 0
BBX 16 33 -3 0
BITMAP
00F0
01E0
F1EF
F1CF
F38F
F30F
0000
0000
0000
0000
03C0
03C0
03C0
03C0
03C0
03C0
03C0
03C0
03C0
03C0
03C0
03C0
03C0
03C0
03C0
03C0
03C0
03C0
03C0
03C0
03C0
03C0
03C0
ENDCHAR
STARTCHAR 0391
ENCODING 913
SWIDTH 652 0
DWIDTH 29 0
BBX 30 32 0 0
BITMAP
000F8000
000F8000
001FC000
001FC000
003DC000
003DE000
003DE000
0078F000
0078F000
0078F800
00F07800
00F07800
01F07C00
01E03C00
01E03E00
03C01E00
03C01E00
07C01F00
07800F00
07FFFF80
0FFFFF80
0FFFFF80
0F0007C0
1E0003C0
1E0003E0
3E0003E0
3C0001E0
3C0001F0
7C0000F0
780000F8
F80000F8
F800007C
ENDCHAR
STARTCHAR 0392
ENCODING 914
SWIDTH 652 0
DWIDTH 29 0
BBX 24 32 3 0
BITMAP
FFFF00
FFFFE0
FFFFF0
FFFFF8
F000FC
F0007C
F0003C
F0003E
F0001E
F0001E
F0003C
F0003C
F00078
F00FF8
FFFFE0
FFFFE0
FFFFF8
F001FC
F0003E
F0001F
F0001F
F0000F
F0000F
F0000F
F0000F
F0001F
F0001F
F0007E
FFFFFC
FFFFFC
FFFFF0
FFFF80
ENDCHAR
STARTCHAR 0393
ENCODING 915
SWIDTH 540 0
DWIDTH 24 0
BBX 19 32 4 0
BITMAP
FFFFE0
FFFFE0
FFFFE0
FFFFE0
F00000
F00000
F00000
F00000
F00000
F00000
F00000
F00000
F00000
F00000
F00000
F00000
F00000
F00000
F00000
F00000
F00000
F00000
F00000
F00000
F00000
F00000
F00000
F00000
F00000
F00000
F00000
F00000
ENDCHAR
STARTCHAR 0394
ENCODING 916
SWIDTH 652 0
DWIDTH 29 0
BBX 30 32 0 0
BITMAP
000F8000
000F8000
001FC000
001FC000
003DC000
003DE000
003DE000
0078F000
0078F000
0078F800
00F07800
00F07800
01F03C00
01E03C00
01E03E00
03C01E00
03C01E00
03C01F00
07800F00
07800F80
0F800780
0F000780
0F0007C0
1F0003C0
1E0003E0
3E0003E0
3C0001E0
3C0001F0
7FFFFFF0
7FFFFFF8
7FFFFFF8
FFFFFFFC
ENDCHAR
STARTCHAR 0395
ENCODING 917
SWIDTH 652 0
DWIDTH 29 0
BBX 23 32 4 0
BITMAP
FFFFFE
FFFFFE
FFFFFE
FFFFFE
F00000
F00000
F00000
F00000
F00000
F00000
F00000
F00000
F00000
F00000
FFFFF8
FFFFF8
FFFFF8
F00000
F00000
F00000
F00000
F00000
F00000
F00000
F00000
F00000
F00000
F00000
FFFFFE
FFFFFE
FFFFFE
FFFFFE
ENDCHAR
STARTCHAR 0396
ENCODING 918
SWIDTH 607 0
DWIDTH 27 0
BBX 25 32 1 0
BITMAP
3FFFFF80
3FFFFF80
3FFFFF80
3FFFFF80
00001F00
00003E00
00007C00
0000FC00
0000F800
0001F000
0003E000
0007C000
000FC000
000F8000
001F0000
003E0000
007C0000
00FC0000
00F80000
01F00000
03E00000
07C00000
0FC00000
0F800000
1F000000
3E000000
7C000000
F8000000
FFFFFF80
FFFFFF80
FFFFFF80
FFFFFF80
ENDCHAR
STARTCHAR 0397
ENCODING 919
SWIDTH 720 0
DWIDTH 32 0
BBX 25 32 4 0
BITMAP
F0000F80
F0000F80
F0000F80
F0000F80
F0000F80
F0000F80
F0000F80
F0000F80
F0000F80
F0000F80
F0000F80
F0000F80
F0000F80
FFFFFF80
FFFFFF80
FFFFFF80
FFFFFF80
F0000F80
F0000F80
F0000F80
F0000F80
F0000F80
F0000F80
F0000F80
F0000F80
F0000F80
F0000F80
F0000F80
F0000F80
F0000F80
F0000F80
F0000F80
ENDCHAR
STARTCHAR 0398
ENCODING 920
SWIDTH 765 0
DWIDTH 34 0
BBX 31 33 2 -1
BITMAP
003FF800
00FFFE00
03FFFF00
07F83FC0
0FC00FE0
1F8003E0
3F0001F0
3E0000F8
7C0000F8
7C000078
7800007C
7800003C
F800003C
F800003C
F07FFC3C
F07FFC3C
F07FFC3E
F07FFC3C
F000003C
F800003C
7800003C
7800007C
7C00007C
7C000078
3E0000F8
3E0001F0
1F0003E0
0FC007E0
07F03FC0
03FFFF80
01FFFE00
007FF800
00010000
ENDCHAR
STARTCHAR 0399
ENCODING 921
SWIDTH 270 0
DWIDTH 12 0
BBX 4 32 4 0
BITMAP
F0
F0
F0
F0
F0
F0
F0
F0
F0
F0
F0
F0
F0
F0
F0
F0
F0
F0
F0
F0
F0
F0
F0
F0
F0
F0
F0
F0
F0
F0
F0
F0
ENDCHAR
STARTCHAR 039A
ENCODING 922
SWIDTH 652 0
DWIDTH 29 0
BBX 26 32 3 0
BITMAP
F0000FC0
F0001F80
F0003F00
F0007E00
F000FC00
F001F000
F003E000
F007C000
F00F8000
F01F0000
F03E0000
F07C0000
F0F80000
F1F80000
F3FC0000
F7FC0000
FFBE0000
FF1F0000
FE1F8000
FC0F8000
F807C000
F003E000
F003F000
F001F000
F000F800
F000FC00
F0007E00
F0003E00
F0001F00
F0001F80
F0000F80
F00007C0
ENDCHAR
STARTCHAR 039B
ENCODING 923
SWIDTH 652 0
DWIDTH 29 0
BBX 29 32 0 0
BITMAP
00078000
000FC000
000FC000
001FC000
001FE000
001DE000
003CE000
003CF000
0078F000
00787800
00787800
00F07800
00F03C00
01E03C00
01E03E00
01E01E00
03C01E00
03C00F00
03C00F00
07800F00
07800780
0F000780
0F0007C0
0F0003C0
1E0003C0
1E0003E0
3E0001E0
3C0001F0
3C0000F0
780000F0
780000F8
F8000078
ENDCHAR
STARTCHAR 039C
ENCODING 924
SWIDTH 832 0
DWIDTH 37 0
BBX 31 32 3 0
BITMAP
FE00007E
FE00007E
FE0000FE
FF0000FE
FF0001FE
F70001FE
F78001DE
F78003DE
F38003DE
F3C0039E
F3C0079E
F1C0071E
F1E0071E
F1E00F1E
F0E00E1E
F0F00E1E
F0F01E1E
F0701C1E
F0781C1E
F0783C1E
F038381E
F03C381E
F03C781E
F01C701E
F01E701E
F01EF01E
F00EE01E
F00FE01E
F00FE01E
F007C01E
F007C01E
F007C01E
ENDCHAR
STARTCHAR 039D
ENCODING 925
SWIDTH 720 0
DWIDTH 32 0
BBX 25 32 3 0
BITMAP
F8000780
FC000780
FC000780
FE000780
FF000780
FF000780
FF800780
F7C00780
F7C00780
F3E00780
F1F00780
F1F00780
F0F80780
F07C0780
F07C0780
F03E0780
F01F0780
F01F0780
F00F8780
F007C780
F007C780
F003E780
F001F780
F001F780
F000FF80
F0007F80
F0007F80
F0003F80
F0001F80
F0001F80
F0000F80
F0000780
ENDCHAR
STARTCHAR 039E
ENCODING 926
SWIDTH 630 0
DWIDTH 28 0
BBX 25 32 2 0
BITMAP
7FFFFF00
7FFFFF00
7FFFFF00
7FFFFF00
00000000
00000000
00000000
00000000
00000000
00000000
00000000
00000000
00000000
00000000
1FFFFC00
1FFFFC00
1FFFFC00
1FFFFC00
00000000
00000000
00000000
00000000
00000000
00000000
00000000
00000000
00000000
00000000
FFFFFF80
FFFFFF80
FFFFFF80
FFFFFF80
ENDCHAR
STARTCHAR 039F
ENCODING 927
SWIDTH 765 0
DWIDTH 34 0
BBX 31 33 2 -1
BITMAP
003FF800
00FFFE00
03FFFF00
07F87FC0
0FC00FE0
1F8003E0
1F0001F0
3E0000F8
3C0000F8
7C000078
7800007C
7800003C
F800003C
F800003C
F800003C
F800003E
F000003E
F000003E
F800003C
F800003C
7800003C
7800007C
7C00007C
3C000078
3E0000F8
1E0001F0
1F0003F0
0FC007E0
07F01FC0
03FFFF80
00FFFE00
007FF800
00010000
ENDCHAR
STARTCHAR 03A0
ENCODING 928
SWIDTH 720 0
DWIDTH 32 0
BBX 25 32 4 0
BITMAP
FFFFFF80
FFFFFF80
FFFFFF80
FFFFFF80
F0000F80
F0000F80
F0000F80
F0000F80
F0000F80
F0000F80
F0000F80
F0000F80
F0000F80
F0000F80
F0000F80
F0000F80
F0000F80
F0000F80
F0000F80
F0000F80
F0000F80
F0000F80
F0000F80
F0000F80
F0000F80
F0000F80
F0000F80
F0000F80
F0000F80
F0000F80
F0000F80
F0000F80
ENDCHAR
STARTCHAR 03A1
ENCODING 929
SWIDTH 652 0
DWIDTH 29 0
BBX 25 32 3 0
BITMAP
FFFF8000
FFFFF000
FFFFFC00
FFFFFE00
F8007E00
F8001F00
F8000F00
F8000F80
F8000F80
F8000F80
F8000F80
F8000F80
F8000F00
F8001F00
F8003E00
FFFFFE00
FFFFFC00
FFFFF800
FFFFC000
F8000000
F8000000
F8000000
F8000000
F8000000
F8000000
F8000000
F8000000
F8000000
F8000000
F8000000
F8000000
F8000000
ENDCHAR
STARTCHAR 03A3
ENCODING 931
SWIDTH 607 0
DWIDTH 27 0
BBX 23 32 3 0
BITMAP
FFFFFC
FFFFFC
FFFFFC
FFFFFC
F80000
7C0000
3E0000
1F0000
0F8000
07C000
03E000
01F000
00F800
007C00
003E00
001F00
003E00
007C00
00F800
01F000
03E000
07E000
07C000
0F8000
1F0000
3E0000
7C0000
F80000
FFFFFE
FFFFFE
FFFFFE
FFFFFE
ENDCHAR
STARTCHAR 03A4
ENCODING 932
SWIDTH 607 0
DWIDTH 27 0
BBX 25 32 1 0
BITMAP
FFFFFF80
FFFFFF80
FFFFFF80
FFFFFF80
001E0000
001E0000
001E0000
001E0000
001E0000
001E0000
001E0000
001E0000
001E0000
001E0000
001E0000
001E0000
001E0000
001E0000
001E0000
001E0000
001E0000
001E0000
001E0000
001E0000
001E0000
001E0000
001E0000
001E0000
001E0000
001E0000
001E0000
001E0000
ENDCHAR
STARTCHAR 03A5
ENCODING 933
SWIDTH 652 0
DWIDTH 29 0
BBX 29 32 0 0
BITMAP
F80000F8
7C0000F0
3E0001F0
3E0003E0
1F0003C0
0F8007C0
0F800F80
07C00F00
03E01F00
03E03E00
01F03C00
00F87800
00F8F800
007CF000
003DE000
003FE000
001FC000
000F8000
000F8000
000F8000
000F8000
000F8000
000F8000
000F8000
000F8000
000F8000
000F8000
000F8000
000F8000
000F8000
000F8000
000F8000
ENDCHAR
STARTCHAR 03A6
ENCODING 934
SWIDTH 787 0
DWIDTH 35 0
BBX 32 34 2 -1
BITMAP
0003C000
0003C000
0003C000
0003C000
001FF800
01FFFF00
07FFFFC0
0FFFFFE0
1FC3C3F0
3F03C0F8
7C03C07C
7C03C03C
7803C03E
F803C01E
F003C01E
F003C01F
F003C01F
F003C01F
F003C01F
F803C01E
F803C01E
7803C03E
7C03C03C
3E03C07C
3F03C1F8
1FE3C7F0
0FFFFFE0
03FFFFC0
00FFFE00
0007C000
0003C000
0003C000
0003C000
0003C000
ENDCHAR
STARTCHAR 03A7
ENCODING 935
SWIDTH 652 0
DWIDTH 29 0
BBX 28 32 1 0
BITMAP
7C0001E0
3E0003E0
3E0007C0
1F000F80
0F800F00
0F801F00
07C03E00
03E07C00
01F07800
01F0F800
00F9F000
007FE000
007FC000
003FC000
001F8000
001F8000
001F8000
003FC000
007FE000
00FBE000
00F1F000
01F0F800
03E0FC00
07C07C00
07C03E00
0F801F00
1F001F00
1F000F80
3E0007C0
7C0007E0
F80003E0
F80001F0
ENDCHAR
STARTCHAR 03A8
ENCODING 936
SWIDTH 832 0
DWIDTH 37 0
BBX 31 32 3 0
BITMAP
F007C01E
F007C01E
F007C01E
F007C01E
F007C01E
F007C01E
F007C01E
F007C01E
F007C01E
F007C01E
F007C01E
F007C01E
F007C01E
F807C03E
F807C03E
7C07C07C
7E07C0FC
3F87C3F8
1FFFFFF0
0FFFFFE0
07FFFF80
00FFFE00
0007C000
0007C000
0007C000
0007C000
0007C000
0007C000
0007C000
0007C000
0007C000
0007C000
ENDCHAR
STARTCHAR 03A9
ENCODING 937
SWIDTH 742 0
DWIDTH 33 0
BBX 29 32 2 0
BITMAP
007FF000
01FFFC00
03FFFE00
07F07F80
0FC01F80
1F8007C0
3F0003E0
3E0003E0
3C0001F0
7C0001F0
7C0000F0
780000F8
780000F8
F80000F8
F80000F8
F80000F8
780000F8
780000F8
780000F0
780000F0
7C0000F0
3C0001E0
3C0001E0
1E0001C0
1F0003C0
0F000780
07800F00
03E01E00
FFF87FF8
FFF87FF8
FFF87FF8
FFF87FF8
ENDCHAR
STARTCHAR 03AA
ENCODING 938
SWIDTH 270 0
DWIDTH 12 0
BBX 12 38 0 0
BITMAP
F0F0
F0F0
F0F0
F0F0
0000
0000
0F00
0F00
0F00
0F00
0F00
0F00
0F00
0F00
0F00
0F00
0F00
0F00
0F00
0F00
0F00
0F00
0F00
0F00
0F00
0F00
0F00
0F00
0F00
0F00
0F00
0F00
0F00
0F00
0F00
0F00
0F00
0F00
ENDCHAR
STARTCHAR 03AB
ENCODING 939
SWIDTH 652 0
DWIDTH 29 0
BBX 29 38 0 0
BITMAP
00787800
00787800
00787800
00787800
00000000
00000000
F80000F8
7C0000F0
3E0001F0
3E0003E0
1F0003C0
0F8007C0
0F800F80
07C00F00
03E01F00
03E03E00
01F03C00
00F87800
00F8F800
007CF000
003DE000
003FE000
001FC000
000F8000
000F8000
000F8000
000F8000
000F8000
000F8000
000F8000
000F8000
000F8000
000F8000
000F8000
000F8000
000F8000
000F8000
000F8000
ENDCHAR
STARTCHAR 03AC
ENCODING 940
SWIDTH 562 0
DWIDTH 25 0
BBX 22 32 2 -1
BITMAP
001F00
003E00
003C00
007800
007800
00F000
000000
000000
006000
07FC3C
1FFE3C
3FFF78
3E07F8
7C03F8
F801F8
F801F0
F000F0
F000F0
F000F0
F000E0
F000E0
F000E0
F000F0
F000F0
F001F0
F801F0
7801F0
7C03F8
3E0778
3FFF78
1FFE38
07FC3C
ENDCHAR
STARTCHAR 03AD
ENCODING 941
SWIDTH 427 0
DWIDTH 19 0
BBX 16 32 2 -1
BITMAP
007C
00F8
00F0
01E0
01C0
03C0
0000
0000
0080
0FF8
1FFE
3FFF
7C1E
7804
7800
7800
7800
7C00
3F80
1FE0
1FE0
3FE0
7C00
F800
F000
F000
F000
F806
7C1F
7FFF
3FFE
0FF8
ENDCHAR
STARTCHAR 03AE
ENCODING 942
SWIDTH 540 0
DWIDTH 24 0
BBX 19 41 3 -9
BITMAP
003E00
007C00
007800
00F000
00F000
01E000
000000
000000
002000
F3FE00
F7FF80
FFFFC0
FE07C0
FC03C0
F803E0
F001E0
F001E0
F001E0
F001E0
F001E0
F001E0
F001E0
F001E0
F001E0
F001E0
F001E0
F001E0
F001E0
F001E0
F001E0
F001E0
F001E0
0001E0
0001E0
0001E0
0001E0
0001E0
0001E0
0001E0
0001E0
0001E0
ENDCHAR
STARTCHAR 03AF
ENCODING 943
SWIDTH 202 0
DWIDTH 9 0
BBX 8 32 2 0
BITMAP
1F
3E
3C
78
78
F0
00
00
00
78
78
78
78
78
78
78
78
78
78
78
78
78
78
78
78
78
78
78
78
78
78
78
ENDCHAR
STARTCHAR 03B0
ENCODING 944
SWIDTH 540 0
DWIDTH 24 0
BBX 18 33 3 -1
BITMAP
007800
007000
78F780
78E780
79C780
79C780
000000
000000
000000
000000
F001C0
F001C0
F001C0
F001C0
F001C0
F001C0
F001C0
F001C0
F001C0
F001C0
F001C0
F001C0
F001C0
F003C0
F003C0
F003C0
F003C0
F803C0
7807C0
7C0F80
3FFF00
1FFE00
0FFC00
ENDCHAR
STARTCHAR 03B1
ENCODING 945
SWIDTH 562 0
DWIDTH 25 0
BBX 22 24 2 -1
BITMAP
006000
07FC3C
1FFE3C
3FFF78
3E07F8
7C03F8
F801F8
F801F0
F000F0
F000F0
F000F0
F000E0
F000E0
F000E0
F000F0
F000F0
F001F0
F801F0
7801F0
7C03F8
3E0778
3FFF78
1FFE38
07FC3C
ENDCHAR
STARTCHAR 03B2
ENCODING 946
SWIDTH 562 0
DWIDTH 25 0
BBX 21 41 3 -9
BITMAP
07FC00
0FFF00
3FFF80
3E0F80
7803C0
7803C0
F001E0
F001E0
F001E0
F001C0
F003C0
F003C0
F00F80
F1FE00
F1F800
F1FF00
F01FC0
F003E0
F001E0
F001F0
F000F0
F000F0
F000F8
F000F8
F000F0
F800F0
F800F0
FC01E0
FE03E0
FFDFC0
F7FF80
F1FF00
F00000
F00000
F00000
F00000
F00000
F00000
F00000
F00000
F00000
ENDCHAR
STARTCHAR 03B3
ENCODING 947
SWIDTH 495 0
DWIDTH 22 0
BBX 20 32 1 -9
BITMAP
F000F0
F000F0
F800F0
7801E0
7801E0
3C01E0
3C03C0
3C03C0
1E0380
1E0780
1E0780
0F0F00
0F0F00
070F00
079E00
079E00
03DE00
03FC00
03FC00
01F800
01F800
00F800
00F000
00F000
00F000
00F000
00F000
00F000
00F000
00F000
00F000
00F000
ENDCHAR
STARTCHAR 03B4
ENCODING 948
SWIDTH 540 0
DWIDTH 24 0
BBX 21 32 2 -1
BITMAP
3FFFE0
3FFFE0
3FFFE0
3E0000
1F0000
078000
03E000
01F000
00F800
01FE00
07FF00
1FFF80
3F8FC0
7E03E0
7C01F0
F800F0
F000F8
F00078
F00078
F00078
F00078
F00078
F00078
F00078
F00078
F800F0
7800F0
7C01F0
3E03E0
1FFFC0
0FFF80
07FE00
ENDCHAR
STARTCHAR 03B5
ENCODING 949
SWIDTH 427 0
DWIDTH 19 0
BBX 16 24 2 -1
BITMAP
0080
0FF8
1FFE
3FFF
7C1E
7804
7800
7800
7800
7C00
3F80
1FE0
1FE0
3FE0
7C00
F800
F000
F000
F000
F806
7C1F
7FFF
3FFE
0FF8
ENDCHAR
STARTCHAR 03B6
ENCODING 950
SWIDTH 427 0
DWIDTH 19 0
BBX 17 41 2 -9
BITMAP
1FFF80
1FFF80
1FFF80
000F00
001E00
007800
00F000
01E000
03C000
07C000
078000
0F0000
1E0000
3E0000
3C0000
780000
780000
780000
F00000
F00000
F00000
F00000
E00000
E00000
F00000
F00000
F00000
F80000
7FC000
3FFC00
1FFE00
07FF00
000F80
000780
000780
000780
000F00
001F00
007E00
007C00
007800
ENDCHAR
STARTCHAR 03B7
ENCODING 951
SWIDTH 540 0
DWIDTH 24 0
BBX 19 33 3 -9
BITMAP
002000
F3FE00
F7FF80
FFFFC0
FE07C0
FC03C0
F803E0
F001E0
F001E0
F001E0
F001E0
F001E0
F001E0
F001E0
F001E0
F001E0
F001E0
F001E0
F001E0
F001E0
F001E0
F001E0
F001E0
F001E0
0001E0
0001E0
0001E0
0001E0
0001E0
0001E0
0001E0
0001E0
0001E0
ENDCHAR
STARTCHAR 03B8
ENCODING 952
SWIDTH 540 0
DWIDTH 24 0
BBX 21 33 2 -1
BITMAP
03FE00
07FF00
0FFF80
1F07C0
3E03E0
3C01E0
7801E0
7800F0
7800F0
F000F0
F000F0
F000F0
F00078
F00078
F00078
FFFFF8
FFFFF8
FFFFF8
F00078
F00078
F00078
F000F0
F000F0
7800F0
7800F0
7801E0
3C01E0
3C03E0
1F07C0
1FFF80
0FFF00
03FE00
006000
ENDCHAR
STARTCHAR 03B9
ENCODING 953
SWIDTH 202 0
DWIDTH 9 0
BBX 4 23 3 0
BITMAP
F0
F0
F0
F0
F0
F0
F0
F0
F0
F0
F0
F0
F0
F0
F0
F0
F0
F0
F0
F0
F0
F0
F0
ENDCHAR
STARTCHAR 03BA
ENCODING 954
SWIDTH 495 0
DWIDTH 22 0
BBX 19 23 3 0
BITMAP
F007C0
F00F80
F03F00
F07E00
F0F800
F1F000
F3E000
F7C000
FF8000
FF0000
FF8000
FFC000
FFC000
F3E000
F1F000
F0F800
F07C00
F03E00
F03E00
F01F00
F00F80
F007C0
F003E0
ENDCHAR
STARTCHAR 03BB
ENCODING 955
SWIDTH 495 0
DWIDTH 22 0
BBX 20 32 1 0
BITMAP
078000
078000
07C000
03C000
03C000
01E000
01E000
01F000
00F000
00F000
00F800
01F800
01F800
03FC00
03FC00
03FC00
079E00
079E00
079F00
0F0F00
0F0F00
1F0780
1E0780
1E0780
3C03C0
3C03C0
3C03E0
7801E0
7801E0
F800F0
F000F0
F000F0
ENDCHAR
STARTCHAR 03BC
ENCODING 956
SWIDTH 562 0
DWIDTH 25 0
BBX 19 32 3 -9
BITMAP
F001E0
F001E0
F001E0
F001E0
F001E0
F001E0
F001E0
F001E0
F001E0
F001E0
F001E0
F001E0
F001E0
F001E0
F801E0
F801E0
F801E0
F803E0
FC07E0
FE0FE0
FFFEE0
F7FEE0
F3FCE0
F04000
F00000
F00000
F00000
F00000
F00000
F00000
F00000
F00000
ENDCHAR
STARTCHAR 03BD
ENCODING 957
SWIDTH 495 0
DWIDTH 22 0
BBX 21 23 1 0
BITMAP
F000F8
F000F0
7800F0
7801E0
7801E0
3C01E0
3C03C0
3C03C0
1E0380
1E0780
0E0780
0F0F00
0F0F00
078F00
079E00
079E00
03DC00
03FC00
01FC00
01F800
01F800
00F800
00F000
ENDCHAR
STARTCHAR 03BE
ENCODING 958
SWIDTH 427 0
DWIDTH 19 0
BBX 17 41 2 -9
BITMAP
03FE00
0FFE00
1FFE00
3E0000
3C0000
780000
780000
780000
780000
3C0000
3F8000
1FFC00
07FC00
03FC00
0FC000
1F0000
3E0000
3C0000
780000
780000
F00000
F00000
F00000
F00000
F00000
F80000
780000
7C0000
3FC000
1FFC00
0FFF00
01FF00
000F80
000780
000780
000780
000F80
001F00
007F00
007E00
007800
ENDCHAR
STARTCHAR 03BF
ENCODING 959
SWIDTH 540 0
DWIDTH 24 0
BBX 22 24 1 -1
BITMAP
001800
03FF00
07FFC0
1FFFE0
1F03F0
3E00F8
3C0078
780078
78003C
78003C
78003C
F8003C
F0003C
F0003C
78003C
78003C
78007C
780078
3C0078
3E00F8
1F03F0
0FFFE0
07FFC0
03FF00
ENDCHAR
STARTCHAR 03C0
ENCODING 960
SWIDTH 675 0
DWIDTH 30 0
BBX 29 23 1 0
BITMAP
FFFFFFF8
FFFFFFF8
FFFFFFF8
03C00E00
03C00E00
03C00E00
03C00E00
03C00E00
03C00E00
03C00E00
03C00E00
03C00E00
03C00E00
03C00E00
03C00E00
03C00E00
03C00E00
03C00E00
03C00E00
03C00E00
03C00E00
03C00E00
03C00E00
ENDCHAR
STARTCHAR 03C1
ENCODING 961
SWIDTH 562 0
DWIDTH 25 0
BBX 21 33 3 -9
BITMAP
006000
07FE00
1FFF00
3FFFC0
3E07C0
7C03E0
7801F0
F800F0
F000F0
F000F0
F00078
F00078
F00078
F00078
F00078
F000F0
F000F0
F800F0
F801F0
FC03E0
FE07C0
FFFFC0
FFFF80
F3FE00
F06000
F00000
F00000
F00000
F00000
F00000
F00000
F00000
F00000
ENDCHAR
STARTCHAR 03C2
ENCODING 962
SWIDTH 472 0
DWIDTH 21 0
BBX 19 33 2 -9
BITMAP
000600
00FFE0
03FFE0
0FFFC0
1F8000
1E0000
3C0000
780000
780000
F00000
F00000
F00000
F00000
F00000
F00000
F00000
F80000
780000
7C0000
3F8000
1FF000
0FFE00
03FF00
007F80
000FC0
0003C0
0003C0
0003C0
0007C0
001F80
01FF80
01FE00
03FC00
ENDCHAR
STARTCHAR 03C3
ENCODING 963
SWIDTH 607 0
DWIDTH 27 0
BBX 25 24 1 -1
BITMAP
00100000
03FFFF80
07FFFF80
0FFFFF80
1F01F000
3E00F000
7C007800
78007800
78007C00
78003C00
78003C00
F8003C00
F0003C00
F0003C00
78003C00
78003C00
78003C00
78007800
7C007800
3E00F800
1F03F000
0FFFE000
07FFC000
03FF0000
ENDCHAR
STARTCHAR 03C4
ENCODING 964
SWIDTH 382 0
DWIDTH 17 0
BBX 16 23 1 0
BITMAP
FFFF
FFFF
FFFF
03C0
03C0
03C0
03C0
03C0
03C0
03C0
03C0
03C0
03C0
03C0
03C0
03C0
03C0
03C0
03C0
03C0
03C0
03C0
03C0
ENDCHAR
STARTCHAR 03C5
ENCODING 965
SWIDTH 540 0
DWIDTH 24 0
BBX 18 23 3 -1
BITMAP
F001C0
F001C0
F001C0
F001C0
F001C0
F001C0
F001C0
F001C0
F001C0
F001C0
F001C0
F001C0
F001C0
F003C0
F003C0
F003C0
F003C0
F803C0
7807C0
7C0F80
3FFF00
1FFE00
0FFC00
ENDCHAR
STARTCHAR 03C6
ENCODING 966
SWIDTH 630 0
DWIDTH 28 0
BBX 25 33 2 -9
BITMAP
00010000
078FF000
1F1FFC00
3F1FFE00
3E1E1E00
7C1E0F00
781E0F00
F01C0780
F01C0780
F01C0780
F01C0780
F01C0780
F01C0780
F01C0780
F01C0780
F01C0F80
F81C0F00
781C1F00
7C1C1E00
3E1C3E00
1F9CFC00
0FFFF800
07FFF000
03FFC000
003E0000
001C0000
001C0000
001C0000
001C0000
001C0000
001C0000
001C0000
001C0000
ENDCHAR
STARTCHAR 03C7
ENCODING 967
SWIDTH 517 0
DWIDTH 23 0
BBX 22 32 1 -9
BITMAP
F80078
7800F8
7C00F0
3C01F0
3E01E0
1E03E0
1F03C0
0F0780
0F8780
078F00
03CF00
03DE00
01FE00
01FC00
00FC00
00F800
00F800
01FC00
01FE00
03DE00
03CF00
078F00
078780
0F0780
1F03C0
1E03C0
3E01E0
3C01F0
7800F0
7800F8
F00078
F0007C
ENDCHAR
STARTCHAR 03C8
ENCODING 968
SWIDTH 697 0
DWIDTH 31 0
BBX 26 32 3 -9
BITMAP
F01E03C0
F01E03C0
F01E03C0
F01E03C0
F01E03C0
F01E03C0
F01E03C0
F01E03C0
F01E03C0
F01E03C0
F01E03C0
F01E03C0
F01E03C0
F01E03C0
F01E03C0
F01E03C0
F01E07C0
F81E0780
7C1E0F80
7E1E3F00
3FFFFE00
1FFFFC00
07FFF000
001E0000
001E0000
001E0000
001E0000
001E0000
001E0000
001E0000
001E0000
001E0000
ENDCHAR
STARTCHAR 03C9
ENCODING 969
SWIDTH 765 0
DWIDTH 34 0
BBX 31 24 2 -1
BITMAP
1E0000F0
3C0000F0
3C000078
3C000078
78000078
7800003C
7807803C
F007803C
F007803E
F007801E
F007801E
F007801E
F007801E
F007801E
F007801E
F007803E
F007C03C
7807C03C
780FE07C
3C1EE0F8
3FFCFFF0
1FF87FF0
0FF01FC0
00000600
ENDCHAR
STARTCHAR 03CA
ENCODING 970
SWIDTH 202 0
DWIDTH 9 0
BBX 12 32 -1 0
BITMAP
F0F0
F0F0
F0F0
F0F0
0000
0000
0000
0000
0000
0F00
0F00
0F00
0F00
0F00
0F00
0F00
0F00
0F00
0F00
0F00
0F00
0F00
0F00
0F00
0F00
0F00
0F00
0F00
0F00
0F00
0F00
0F00
ENDCHAR
STARTCHAR 03CB
ENCODING 971
SWIDTH 540 0
DWIDTH 24 0
BBX 18 32 3 -1
BITMAP
0F0F00
0F0F00
0F0F00
0F0F00
000000
000000
000000
000000
000000
F001C0
F001C0
F001C0
F001C0
F001C0
F001C0
F001C0
F001C0
F001C0
F001C0
F001C0
F001C0
F001C0
F003C0
F003C0
F003C0
F003C0
F803C0
7807C0
7C0F80
3FFF00
1FFE00
0FFC00
ENDCHAR
STARTCHAR 03CC
ENCODING 972
SWIDTH 540 0
DWIDTH 24 0
BBX 22 32 1 -1
BITMAP
000F80
001F00
001E00
003C00
003C00
007800
000000
000000
001800
03FF00
07FFC0
1FFFE0
1F03F0
3E00F8
3C0078
780078
78003C
78003C
78003C
F8003C
F0003C
F0003C
78003C
78003C
78007C
780078
3C0078
3E00F8
1F03F0
0FFFE0
07FFC0
03FF00
ENDCHAR
STARTCHAR 03CD
ENCODING 973
SWIDTH 540 0
DWIDTH 24 0
BBX 18 32 3 -1
BITMAP
007C00
007800
00F800
00F000
01E000
01C000
000000
000000
000000
F001C0
F001C0
F001C0
F001C0
F001C0
F001C0
F001C0
F001C0
F001C0
F001C0
F001C0
F001C0
F001C0
F003C0
F003C0
F003C0
F003C0
F803C0
7807C0
7C0F80
3FFF00
1FFE00
0FFC00
ENDCHAR
STARTCHAR 03CE
ENCODING 974
SWIDTH 765 0
DWIDTH 34 0
BBX 31 33 2 -1
BITMAP
0000F800
0001F000
0001E000
0003E000
0003C000
00038000
00000000
00000000
00000000
1E0000F0
3C0000F0
3C000078
3C000078
78000078
7800003C
7807803C
F007803C
F007803E
F007801E
F007801E
F007801E
F007801E
F007801E
F007801E
F007803E
F007C03C
7807C03C
780FE07C
3C1EE0F8
3FFCFFF0
1FF87FF0
0FF01FC0
00000600
ENDCHAR
STARTCHAR 0401
ENCODING 1025
SWIDTH 652 0
DWIDTH 29 0
BBX 23 38 4 0
BITMAP
078780
078780
078780
078780
000000
000000
FFFFFE
FFFFFE
FFFFFE
FFFFFE
F00000
F00000
F00000
F00000
F00000
F00000
F00000
F00000
F00000
F00000
FFFFF8
FFFFF8
FFFFF8
F00000
F00000
F00000
F00000
F00000
F00000
F00000
F00000
F00000
F00000
F00000
FFFFFE
FFFFFE
FFFFFE
FFFFFE
ENDCHAR
STARTCHAR 0402
ENCODING 1026
SWIDTH 855 0
DWIDTH 38 0
BBX 36 33 1 -1
BITMAP
FFFFFF8000
FFFFFF8000
FFFFFF8000
FFFFFF8000
001E000000
001E000000
001E000000
001E000000
001E000000
001E000000
001E000000
001E000000
001E1FF800
001EFFFE00
001FFFFF00
001FF83F80
001F800FC0
001E0003E0
001E0003E0
001E0001E0
001E0001E0
001E0001F0
001E0001F0
001E0001F0
001E0001E0
001E0001E0
001E0003E0
001E0007C0
001E040FC0
001E07FF80
001E07FF00
001E07FC00
0000004000
ENDCHAR
STARTCHAR 0403
ENCODING 1027
SWIDTH 540 0
DWIDTH 24 0
BBX 21 40 3 0
BITMAP
003E00
007C00
007800
007800
00F000
00E000
000000
000000
FFFFF8
FFFFF8
FFFFF8
FFFFF8
F80000
F80000
F80000
F80000
F80000
F80000
F80000
F80000
F80000
F80000
F80000
F80000
F80000
F80000
F80000
F80000
F80000
F80000
F80000
F80000
F80000
F80000
F80000
F80000
F80000
F80000
F80000
F80000
ENDCHAR
STARTCHAR 0404
ENCODING 1028
SWIDTH 697 0
DWIDTH 31 0
BBX 28 33 2 -1
BITMAP
003FF000
00FFFE00
03FFFF00
07F8FF80
0FC00FC0
1F0007E0
1F0003E0
3E0001E0
3C0001F0
7C0000C0
78000000
78000000
78000000
F8000000
FFFF8000
FFFF8000
FFFF8000
F8000000
F8000000
78000000
78000000
780000C0
7C0000F0
3C0001F0
3E0001F0
3E0003E0
1F0007E0
0FC00FC0
0FF03F80
03FFFF00
01FFFE00
007FF800
00038000
ENDCHAR
STARTCHAR 0405
ENCODING 1029
SWIDTH 652 0
DWIDTH 29 0
BBX 25 33 2 -1
BITMAP
01FFC000
07FFF000
0FFFF800
1FE3FC00
3E003E00
3C001F00
7C001F00
78000F00
78000F00
78000000
7C000000
3E000000
3FC00000
1FFC0000
0FFFC000
03FFF000
007FFC00
000FFE00
0000FF00
00001F80
00000F80
10000780
F0000780
F0000780
F8000780
78000780
7C000F80
3F001F00
3FE0FE00
1FFFFC00
07FFF800
01FFE000
00040000
ENDCHAR
STARTCHAR 0406
ENCODING 1030
SWIDTH 270 0
DWIDTH 12 0
BBX 4 32 4 0
BITMAP
F0
F0
F0
F0
F0
F0
F0
F0
F0
F0
F0
F0
F0
F0
F0
F0
F0
F0
F0
F0
F0
F0
F0
F0
F0
F0
F0
F0
F0
F0
F0
F0
ENDCHAR
STARTCHAR 0407
ENCODING 1031
SWIDTH 270 0
DWIDTH 12 0
BBX 12 38 0 0
BITMAP
F0F0
F0F0
F0F0
F0F0
0000
0000
0F00
0F00
0F00
0F00
0F00
0F00
0F00
0F00
0F00
0F00
0F00
0F00
0F00
0F00
0F00
0F00
0F00
0F00
0F00
0F00
0F00
0F00
0F00
0F00
0F00
0F00
0F00
0F00
0F00
0F00
0F00
0F00
ENDCHAR
STARTCHAR 0408
ENCODING 1032
SWIDTH 495 0
DWIDTH 22 0
BBX 18 33 1 -1
BITMAP
0003C0
0003C0
0003C0
0003C0
0003C0
0003C0
0003C0
0003C0
0003C0
0003C0
0003C0
0003C0
0003C0
0003C0
0003C0
0003C0
0003C0
0003C0
0003C0
0003C0
0003C0
0003C0
0003C0
F003C0
F007C0
F007C0
780780
7C0F80
7E1F80
3FFF00
1FFE00
0FFC00
018000
ENDCHAR
STARTCHAR 0409
ENCODING 1033
SWIDTH 1035 0
DWIDTH 46 0
BBX 45 33 0 -1
BITMAP
03FFFFC00000
03FFFFC00000
03FFFFC00000
03FFFFC00000
03C007C00000
03C007C00000
03C007C00000
03C007C00000
03C007C00000
03C007C00000
03C007C00000
03C007C00000
03C007C00000
03C007C00000
03C007FFFF00
03C007FFFFC0
03C007FFFFE0
03C007C07FF0
03C007C001F0
03C007C000F8
03C007C000F8
03C007C00078
03C007C00078
03C007C00078
03C007C00078
07C007C000F8
07C007C000F8
078007C001F0
4F8007FFFFE0
7F8007FFFFE0
7F0007FFFF80
FE0007FFFE00
180000000000
ENDCHAR
STARTCHAR 040A
ENCODING 1034
SWIDTH 990 0
DWIDTH 44 0
BBX 39 32 4 0
BITMAP
F001E00000
F001E00000
F001E00000
F001E00000
F001E00000
F001E00000
F001E00000
F001E00000
F001E00000
F001E00000
F001E00000
F001E00000
F001E00000
F001E00000
FFFFFFFF80
FFFFFFFFF0
FFFFFFFFF8
F001E00FFC
F001E0007C
F001E0003E
F001E0003E
F001E0001E
F001E0001E
F001E0001E
F001E0001E
F001E0003E
F001E0003E
F001E000FC
F001FFFFF8
F001FFFFF8
F001FFFFE0
F001FFFF80
ENDCHAR
STARTCHAR 040B
ENCODING 1035
SWIDTH 832 0
DWIDTH 37 0
BBX 35 32 1 0
BITMAP
FFFFFFC000
FFFFFFC000
FFFFFFC000
FFFFFFC000
001E000000
001E000000
001E000000
001E000000
001E000000
001E000000
001E000000
001E000000
001E1FF800
001EFFFE00
001FFFFF00
001FFC3F80
001F800FC0
001E0007C0
001E0003C0
001E0003E0
001E0003E0
001E0001E0
001E0001E0
001E0001E0
001E0001E0
001E0001E0
001E0001E0
001E0001E0
001E0001E0
001E0001E0
001E0001E0
001E0001E0
ENDCHAR
STARTCHAR 040C
ENCODING 1036
SWIDTH 562 0
DWIDTH 25 0
BBX 22 40 3 0
BITMAP
001F00
001E00
003E00
003C00
007800
007000
000000
000000
F8003C
F800FC
F803FC
F803FC
F807C0
F80780
F80F80
F80F00
F81F00
F81E00
F83E00
F83C00
F87C00
F8F800
FFF000
FFE000
FFF000
F9F800
F87C00
F87E00
F83F00
F81F00
F80F80
F80F80
F807C0
F807E0
F803E0
F801F0
F801F8
F800F8
F8007C
F8007C
ENDCHAR
STARTCHAR 040E
ENCODING 1038
SWIDTH 630 0
DWIDTH 28 0
BBX 28 39 0 0
BITMAP
00701800
00703800
003FF800
003FF000
000FC000
00000000
00000000
F80000F0
780001E0
7C0001E0
3C0003E0
1E0003C0
1E0007C0
0F000780
0F000F80
07800F00
07800F00
03C01E00
03C01E00
01E03C00
00F03C00
00F07800
00787800
0078F000
003CF000
003DE000
001FE000
001FC000
000FC000
00078000
00078000
00070000
000F0000
000E0000
001E0000
083C0000
0FFC0000
0FF80000
0FF00000
ENDCHAR
STARTCHAR 040F
ENCODING 1039
SWIDTH 697 0
DWIDTH 31 0
BBX 25 41 3 -9
BITMAP
F8000780
F8000780
F8000780
F8000780
F8000780
F8000780
F8000780
F8000780
F8000780
F8000780
F8000780
F8000780
F8000780
F8000780
F8000780
F8000780
F8000780
F8000780
F8000780
F8000780
F8000780
F8000780
F8000780
F8000780
F8000780
F8000780
F8000780
F8000780
FFFFFF80
FFFFFF80
FFFFFF80
FFFFFF80
001E0000
001E0000
001E0000
001E0000
001E0000
001E0000
001E0000
001E0000
001E0000
ENDCHAR
STARTCHAR 0410
ENCODING 1040
SWIDTH 652 0
DWIDTH 29 0
BBX 30 32 0 0
BITMAP
000F8000
000F8000
001FC000
001FC000
003DC000
003DE000
003DE000
0078F000
0078F000
0078F800
00F07800
00F07800
01F07C00
01E03C00
01E03E00
03C01E00
03C01E00
07C01F00
07800F00
07FFFF80
0FFFFF80
0FFFFF80
0F0007C0
1E0003C0
1E0003E0
3E0003E0
3C0001E0
3C0001F0
7C0000F0
780000F8
F80000F8
F800007C
ENDCHAR
STARTCHAR 0411
ENCODING 1041
SWIDTH 652 0
DWIDTH 29 0
BBX 24 32 4 0
BITMAP
FFFFF0
FFFFF0
FFFFF0
FFFFF0
F00000
F00000
F00000
F00000
F00000
F00000
F00000
F00000
F00000
F00000
FFFFC0
FFFFF0
FFFFF8
F01FFC
F0007E
F0003E
F0001E
F0001F
F0001F
F0001F
F0001E
F0001E
F0003E
F0007C
FFFFFC
FFFFF8
FFFFF0
FFFF80
ENDCHAR
STARTCHAR 0412
ENCODING 1042
SWIDTH 652 0
DWIDTH 29 0
BBX 24 32 3 0
BITMAP
FFFF00
FFFFE0
FFFFF0
FFFFF8
F000FC
F0007C
F0003C
F0003E
F0001E
F0001E
F0003C
F0003C
F00078
F00FF8
FFFFE0
FFFFE0
FFFFF8
F001FC
F0003E
F0001F
F0001F
F0000F
F0000F
F0000F
F0000F
F0001F
F0001F
F0007E
FFFFFC
FFFFFC
FFFFF0
FFFF80
ENDCHAR
STARTCHAR 0413
ENCODING 1043
SWIDTH 540 0
DWIDTH 24 0
BBX 21 32 3 0
BITMAP
FFFFF8
FFFFF8
FFFFF8
FFFFF8
F80000
F80000
F80000
F80000
F80000
F80000
F80000
F80000
F80000
F80000
F80000
F80000
F80000
F80000
F80000
F80000
F80000
F80000
F80000
F80000
F80000
F80000
F80000
F80000
F80000
F80000
F80000
F80000
ENDCHAR
STARTCHAR 0414
ENCODING 1044
SWIDTH 675 0
DWIDTH 30 0
BBX 29 39 0 -7
BITMAP
03FFFFC0
03FFFFC0
03FFFFC0
03FFFFC0
03C007C0
03C007C0
03C007C0
03C007C0
03C007C0
03C007C0
03C007C0
03C007C0
03C007C0
03C007C0
03C007C0
03C007C0
03C007C0
03C007C0
078007C0
078007C0
078007C0
078007C0
078007C0
0F0007C0
0F0007C0
0F0007C0
1F0007C0
1E0007C0
FFFFFFF8
FFFFFFF8
FFFFFFF8
FFFFFFF8
F0000078
F0000078
F0000078
F0000078
F0000078
F0000078
F0000078
ENDCHAR
STARTCHAR 0415
ENCODING 1045
SWIDTH 652 0
DWIDTH 29 0
BBX 23 32 4 0
BITMAP
FFFFFE
FFFFFE
FFFFFE
FFFFFE
F00000
F00000
F00000
F00000
F00000
F00000
F00000
F00000
F00000
F00000
FFFFF8
FFFFF8
FFFFF8
F00000
F00000
F00000
F00000
F00000
F00000
F00000
F00000
F00000
F00000
F00000
FFFFFE
FFFFFE
FFFFFE
FFFFFE
ENDCHAR
STARTCHAR 0416
ENCODING 1046
SWIDTH 922 0
DWIDTH 41 0
BBX 41 32 0 0
BITMAP
F8003E000F80
FE003E003F80
FF003E007F80
FF803E00FF80
07C03E01F000
03C03E01E000
03E03E03E000
01E03E03C000
01E03E03C000
00F03E078000
00F03E078000
00F83E0F8000
007C3E1F0000
003E3E3E0000
001FFFFC0000
000FFFF80000
001FFFFC0000
003F3E7E0000
007C3E1F0000
00F83E0F8000
01F83E0FC000
01F03E07C000
03E03E03E000
07E03E03F000
07C03E01F000
0F803E00F800
0F803E00F800
1F003E007C00
3F003E007E00
3E003E003E00
7C003E001F00
FC003E001F80
ENDCHAR
STARTCHAR 0417
ENCODING 1047
SWIDTH 585 0
DWIDTH 26 0
BBX 23 33 2 -1
BITMAP
01FF00
07FFC0
1FFFE0
1FCFF0
3E01F8
7C00F8
780078
78007C
F8007C
F00078
100078
0000F8
0001F0
000FF0
007FC0
007FC0
007FF0
000FF8
0000FC
00007C
00003E
00003E
30001E
F0001E
F8003E
78003E
7C007C
3E00FC
3F83F8
1FFFF0
0FFFE0
03FF80
001000
ENDCHAR
STARTCHAR 0418
ENCODING 1048
SWIDTH 697 0
DWIDTH 31 0
BBX 25 32 3 0
BITMAP
F0000780
F0000F80
F0000F80
F0001F80
F0003F80
F0003F80
F0007F80
F000FB80
F000FB80
F001F380
F003E380
F003E380
F007C380
F00F8380
F00F8380
F01F0380
F03E0380
F03E0380
F07C0380
F0F80380
F0F00380
F1F00380
F3E00380
F3C00380
F7C00380
FF800380
FF000380
FF000380
FE000380
FC000380
FC000380
F8000380
ENDCHAR
STARTCHAR 0419
ENCODING 1049
SWIDTH 697 0
DWIDTH 31 0
BBX 25 39 3 0
BITMAP
0380E000
01C1E000
01F7C000
00FF8000
007F0000
00000000
00000000
F0000780
F0000F80
F0000F80
F0001F80
F0003F80
F0003F80
F0007F80
F000FB80
F000FB80
F001F380
F003E380
F003E380
F007C380
F00F8380
F00F8380
F01F0380
F03E0380
F03E0380
F07C0380
F0F80380
F0F00380
F1F00380
F3E00380
F3C00380
F7C00380
FF800380
FF000380
FF000380
FE000380
FC000380
FC000380
F8000380
ENDCHAR
STARTCHAR 041A
ENCODING 1050
SWIDTH 562 0
DWIDTH 25 0
BBX 22 32 3 0
BITMAP
F8003C
F800FC
F803FC
F803FC
F807C0
F80780
F80F80
F80F00
F81F00
F81E00
F83E00
F83C00
F87C00
F8F800
FFF000
FFE000
FFF000
F9F800
F87C00
F87E00
F83F00
F81F00
F80F80
F80F80
F807C0
F807E0
F803E0
F801F0
F801F8
F800F8
F8007C
F8007C
ENDCHAR
STARTCHAR 041B
ENCODING 1051
SWIDTH 652 0
DWIDTH 29 0
BBX 26 33 0 -1
BITMAP
03FFFFC0
03FFFFC0
03FFFFC0
03FFFFC0
03C007C0
03C007C0
03C007C0
03C007C0
03C007C0
03C007C0
03C007C0
03C007C0
03C007C0
03C007C0
03C007C0
03C007C0
03C007C0
03C007C0
03C007C0
03C007C0
03C007C0
03C007C0
03C007C0
03C007C0
03C007C0
03C007C0
07C007C0
07C007C0
4F8007C0
7F8007C0
7F0007C0
FE0007C0
10000000
ENDCHAR
STARTCHAR 041C
ENCODING 1052
SWIDTH 832 0
DWIDTH 37 0
BBX 31 32 3 0
BITMAP
FE00007E
FE00007E
FE0000FE
FF0000FE
FF0001FE
F70001FE
F78001DE
F78003DE
F38003DE
F3C0039E
F3C0079E
F1C0071E
F1E0071E
F1E00F1E
F0E00E1E
F0F00E1E
F0F01E1E
F0701C1E
F0781C1E
F0783C1E
F038381E
F03C381E
F03C781E
F01C701E
F01E701E
F01EF01E
F00EE01E
F00FE01E
F00FE01E
F007C01E
F007C01E
F007C01E
ENDCHAR
STARTCHAR 041D
ENCODING 1053
SWIDTH 720 0
DWIDTH 32 0
BBX 25 32 4 0
BITMAP
F0000F80
F0000F80
F0000F80
F0000F80
F0000F80
F0000F80
F0000F80
F0000F80
F0000F80
F0000F80
F0000F80
F0000F80
F0000F80
FFFFFF80
FFFFFF80
FFFFFF80
FFFFFF80
F0000F80
F0000F80
F0000F80
F0000F80
F0000F80
F0000F80
F0000F80
F0000F80
F0000F80
F0000F80
F0000F80
F0000F80
F0000F80
F0000F80
F0000F80
ENDCHAR
STARTCHAR 041E
ENCODING 1054
SWIDTH 765 0
DWIDTH 34 0
BBX 31 33 2 -1
BITMAP
003FF800
00FFFE00
03FFFF00
07F87FC0
0FC00FE0
1F8003E0
1F0001F0
3E0000F8
3C0000F8
7C000078
7800007C
7800003C
F800003C
F800003C
F800003C
F800003E
F000003E
F000003E
F800003C
F800003C
7800003C
7800007C
7C00007C
3C000078
3E0000F8
1E0001F0
1F0003F0
0FC007E0
07F01FC0
03FFFF80
00FFFE00
007FF800
00010000
ENDCHAR
STARTCHAR 041F
ENCODING 1055
SWIDTH 697 0
DWIDTH 31 0
BBX 25 32 3 0
BITMAP
FFFFFF80
FFFFFF80
FFFFFF80
FFFFFF80
F8000780
F8000780
F8000780
F8000780
F8000780
F8000780
F8000780
F8000780
F8000780
F8000780
F8000780
F8000780
F8000780
F8000780
F8000780
F8000780
F8000780
F8000780
F8000780
F8000780
F8000780
F8000780
F8000780
F8000780
F8000780
F8000780
F8000780
F8000780
ENDCHAR
STARTCHAR 0420
ENCODING 1056
SWIDTH 652 0
DWIDTH 29 0
BBX 25 32 3 0
BITMAP
FFFF8000
FFFFF000
FFFFFC00
FFFFFE00
F8007E00
F8001F00
F8000F00
F8000F80
F8000F80
F8000F80
F8000F80
F8000F80
F8000F00
F8001F00
F8003E00
FFFFFE00
FFFFFC00
FFFFF800
FFFFC000
F8000000
F8000000
F8000000
F8000000
F8000000
F8000000
F8000000
F8000000
F8000000
F8000000
F8000000
F8000000
F8000000
ENDCHAR
STARTCHAR 0421
ENCODING 1057
SWIDTH 720 0
DWIDTH 32 0
BBX 28 33 2 -1
BITMAP
003FF000
00FFFC00
03FFFF00
07F87F80
0FC00FC0
1F0007C0
3E0003E0
3E0001E0
7C0001F0
7C000180
78000000
78000000
F8000000
F8000000
F8000000
F8000000
F8000000
F8000000
F8000000
F8000000
78000000
780000E0
7C0000F0
3C0001F0
3E0001E0
3E0003E0
1F0007C0
0FC00FC0
0FF03F80
07FFFF00
01FFFE00
007FF800
00078000
ENDCHAR
STARTCHAR 0422
ENCODING 1058
SWIDTH 607 0
DWIDTH 27 0
BBX 25 32 1 0
BITMAP
FFFFFF80
FFFFFF80
FFFFFF80
FFFFFF80
001E0000
001E0000
001E0000
001E0000
001E0000
001E0000
001E0000
001E0000
001E0000
001E0000
001E0000
001E0000
001E0000
001E0000
001E0000
001E0000
001E0000
001E0000
001E0000
001E0000
001E0000
001E0000
001E0000
001E0000
001E0000
001E0000
001E0000
001E0000
ENDCHAR
STARTCHAR 0423
ENCODING 1059
SWIDTH 630 0
DWIDTH 28 0
BBX 28 32 0 0
BITMAP
F80000F0
780001E0
7C0001E0
3C0003E0
1E0003C0
1E0007C0
0F000780
0F000F80
07800F00
07800F00
03C01E00
03C01E00
01E03C00
00F03C00
00F07800
00787800
0078F000
003CF000
003DE000
001FE000
001FC000
000FC000
00078000
00078000
00070000
000F0000
000E0000
001E0000
083C0000
0FFC0000
0FF80000
0FF00000
ENDCHAR
STARTCHAR 0424
ENCODING 1060
SWIDTH 742 0
DWIDTH 33 0
BBX 30 32 2 0
BITMAP
00078000
00078000
00078000
00078000
007FF000
01FFFE00
07FFFF80
1FFFFFC0
3F8787E0
3E0781F0
7C0780F8
780780F8
F8078078
F007807C
F007803C
F007803C
F007803C
F007803C
F807807C
F8078078
780780F8
7C0780F8
3E0781F0
1F8787E0
0FFFFFC0
07FFFF80
01FFFE00
003FF000
00078000
00078000
00078000
00078000
ENDCHAR
STARTCHAR 0425
ENCODING 1061
SWIDTH 652 0
DWIDTH 29 0
BBX 28 32 1 0
BITMAP
7C0001E0
3E0003E0
3E0007C0
1F000F80
0F800F00
0F801F00
07C03E00
03E07C00
01F07800
01F0F800
00F9F000
007FE000
007FC000
003FC000
001F8000
001F8000
001F8000
003FC000
007FE000
00FBE000
00F1F000
01F0F800
03E0FC00
07C07C00
07C03E00
0F801F00
1F001F00
1F000F80
3E0007C0
7C0007E0
F80003E0
F80001F0
ENDCHAR
STARTCHAR 0426
ENCODING 1062
SWIDTH 720 0
DWIDTH 32 0
BBX 28 41 3 -9
BITMAP
F8000780
F8000780
F8000780
F8000780
F8000780
F8000780
F8000780
F8000780
F8000780
F8000780
F8000780
F8000780
F8000780
F8000780
F8000780
F8000780
F8000780
F8000780
F8000780
F8000780
F8000780
F8000780
F8000780
F8000780
F8000780
F8000780
F8000780
F8000780
FFFFFFF0
FFFFFFF0
FFFFFFF0
FFFFFFF0
00000070
00000070
00000070
00000070
00000070
00000070
00000070
00000070
00000070
ENDCHAR
STARTCHAR 0427
ENCODING 1063
SWIDTH 652 0
DWIDTH 29 0
BBX 24 32 2 0
BITMAP
F0000F
F0000F
F0000F
F0000F
F0000F
F0000F
F0000F
F0000F
F0000F
F0000F
F0000F
F0000F
F0000F
F8000F
F8000F
7C000F
7E003F
3FCFFF
1FFFFF
0FFFEF
03FF0F
00000F
00000F
00000F
00000F
00000F
00000F
00000F
00000F
00000F
00000F
00000F
ENDCHAR
STARTCHAR 0428
ENCODING 1064
SWIDTH 900 0
DWIDTH 40 0
BBX 34 32 3 0
BITMAP
F801E003C0
F801E003C0
F801E003C0
F801E003C0
F801E003C0
F801E003C0
F801E003C0
F801E003C0
F801E003C0
F801E003C0
F801E003C0
F801E003C0
F801E003C0
F801E003C0
F801E003C0
F801E003C0
F801E003C0
F801E003C0
F801E003C0
F801E003C0
F801E003C0
F801E003C0
F801E003C0
F801E003C0
F801E003C0
F801E003C0
F801E003C0
F801E003C0
FFFFFFFFC0
FFFFFFFFC0
FFFFFFFFC0
FFFFFFFFC0
ENDCHAR
STARTCHAR 0429
ENCODING 1065
SWIDTH 922 0
DWIDTH 41 0
BBX 37 41 3 -9
BITMAP
F801E003C0
F801E003C0
F801E003C0
F801E003C0
F801E003C0
F801E003C0
F801E003C0
F801E003C0
F801E003C0
F801E003C0
F801E003C0
F801E003C0
F801E003C0
F801E003C0
F801E003C0
F801E003C0
F801E003C0
F801E003C0
F801E003C0
F801E003C0
F801E003C0
F801E003C0
F801E003C0
F801E003C0
F801E003C0
F801E003C0
F801E003C0
F801E003C0
FFFFFFFFF8
FFFFFFFFF8
FFFFFFFFF8
FFFFFFFFF8
0000000078
0000000078
0000000078
0000000078
0000000078
0000000078
0000000078
0000000078
0000000078
ENDCHAR
STARTCHAR 042A
ENCODING 1066
SWIDTH 787 0
DWIDTH 35 0
BBX 34 32 0 0
BITMAP
FFFC000000
FFFC000000
FFFC000000
FFFC000000
003C000000
003C000000
003C000000
003C000000
003C000000
003C000000
003C000000
003C000000
003C000000
003C000000
003FFFF000
003FFFFC00
003FFFFE00
003C07FF00
003C001F80
003C000F80
003C000780
003C0007C0
003C0007C0
003C0007C0
003C0007C0
003C000780
003C000F80
003C001F00
003FFFFF00
003FFFFE00
003FFFF800
003FFFC000
ENDCHAR
STARTCHAR 042B
ENCODING 1067
SWIDTH 877 0
DWIDTH 39 0
BBX 32 32 4 0
BITMAP
F000001F
F000001F
F000001F
F000001F
F000001F
F000001F
F000001F
F000001F
F000001F
F000001F
F000001F
F000001F
F000001F
F000001F
FFFFC01F
FFFFF01F
FFFFF81F
F01FFC1F
F0007E1F
F0003E1F
F0001E1F
F0001F1F
F0001F1F
F0001F1F
F0001E1F
F0001E1F
F0003E1F
F0007C1F
FFFFFC1F
FFFFF81F
FFFFF01F
FFFF801F
ENDCHAR
STARTCHAR 042C
ENCODING 1068
SWIDTH 652 0
DWIDTH 29 0
BBX 24 32 4 0
BITMAP
F00000
F00000
F00000
F00000
F00000
F00000
F00000
F00000
F00000
F00000
F00000
F00000
F00000
F00000
FFFFC0
FFFFF0
FFFFF8
F01FFC
F0007E
F0003E
F0001E
F0001E
F0001F
F0001F
F0001E
F0003E
F0003E
F0007C
FFFFFC
FFFFF8
FFFFE0
FFFF80
ENDCHAR
STARTCHAR 042D
ENCODING 1069
SWIDTH 697 0
DWIDTH 31 0
BBX 28 33 2 -1
BITMAP
00FFC000
03FFF000
0FFFFC00
1FF1FE00
3F003F00
3E000F80
7C000780
780007C0
F80003C0
380003E0
000001E0
000001E0
000001F0
000001F0
000FFFF0
000FFFF0
000FFFF0
000001F0
000001F0
000001F0
000001E0
300001E0
F00003E0
F80003E0
780007C0
7C0007C0
3E000F80
3F001F00
1FC07F00
0FFFFE00
07FFF800
01FFE000
000C0000
ENDCHAR
STARTCHAR 042E
ENCODING 1070
SWIDTH 990 0
DWIDTH 44 0
BBX 39 33 4 -1
BITMAP
F0001FF800
F0007FFE00
F000FFFF80
F003FC1FC0
F003E007E0
F007C001F0
F00F8001F0
F00F0000F8
F01F000078
F01E00007C
F03E00003C
F03E00003C
F03C00003C
F03C00003E
FFFC00003E
FFFC00003E
FFFC00003E
FFFC00003E
F03C00003E
F03C00003C
F03E00003C
F01E00003C
F01E00007C
F01F000078
F00F0000F8
F00F8000F0
F007C001F0
F007E007E0
F003F81FC0
F001FFFF80
F0007FFF00
F0001FFC00
000000C000
ENDCHAR
STARTCHAR 042F
ENCODING 1071
SWIDTH 720 0
DWIDTH 32 0
BBX 28 32 1 0
BITMAP
007FFFF0
03FFFFF0
07FFFFF0
0FFFFFF0
1F8001F0
1F0001F0
3E0001F0
3E0001F0
3E0001F0
3E0001F0
3E0001F0
1E0001F0
1F0001F0
1FC001F0
0FFFFFF0
07FFFFF0
01FFFFF0
001FFFF0
007E01F0
00F801F0
01F801F0
03F001F0
03E001F0
07C001F0
0FC001F0
0F8001F0
1F0001F0
3F0001F0
3E0001F0
7C0001F0
7C0001F0
F80001F0
ENDCHAR
STARTCHAR 0430
ENCODING 1072
SWIDTH 540 0
DWIDTH 24 0
BBX 21 25 2 -1
BITMAP
007000
07FF00
1FFFC0
3FFFE0
7C03E0
7801E0
7801F0
F000F0
0000F0
0001F0
003FF0
07FFF0
1FFEF0
7FF0F0
7C00F0
F800F0
F001F0
F001F0
F001F0
F003F0
F80FF0
7FFFF0
7FFCF0
1FF078
030000
ENDCHAR
STARTCHAR 0431
ENCODING 1073
SWIDTH 562 0
DWIDTH 25 0
BBX 22 33 2 -1
BITMAP
000038
007FF8
03FFF8
0FFFF0
1FFFE0
3F8000
3C0000
780000
700000
700000
F0FE00
F3FF80
E7FFC0
EF87E0
FE01F0
FC00F0
FC0078
F80078
F80078
F8007C
F0003C
F0003C
F0003C
F0007C
780078
780078
780078
7C00F8
3E01F0
1F03E0
1FFFC0
07FF80
03FF00
ENDCHAR
STARTCHAR 0432
ENCODING 1074
SWIDTH 517 0
DWIDTH 23 0
BBX 19 23 3 0
BITMAP
FFFC00
FFFF00
FFFF80
F01F80
F007C0
F003C0
F003C0
F003C0
F00780
F03F80
FFFF00
FFFF00
FFFF80
F007C0
F003E0
F001E0
F001E0
F001E0
F003E0
F00FC0
FFFFC0
FFFF00
FFFC00
ENDCHAR
STARTCHAR 0433
ENCODING 1075
SWIDTH 360 0
DWIDTH 16 0
BBX 13 23 3 0
BITMAP
FFF8
FFF8
FFF8
F000
F000
F000
F000
F000
F000
F000
F000
F000
F000
F000
F000
F000
F000
F000
F000
F000
F000
F000
F000
ENDCHAR
STARTCHAR 0434
ENCODING 1076
SWIDTH 562 0
DWIDTH 25 0
BBX 25 30 0 -7
BITMAP
03FFFC00
03FFFC00
03FFFC00
03803C00
03803C00
03803C00
03803C00
03803C00
03803C00
03803C00
07803C00
07003C00
07003C00
07003C00
0F003C00
0F003C00
0E003C00
1E003C00
1C003C00
3C003C00
FFFFFF80
FFFFFF80
FFFFFF80
E0000780
E0000780
E0000780
E0000780
E0000780
E0000780
E0000780
ENDCHAR
STARTCHAR 0435
ENCODING 1077
SWIDTH 540 0
DWIDTH 24 0
BBX 21 25 2 -1
BITMAP
002000
07FE00
0FFF80
1FFFC0
3E03E0
7C01E0
7800F0
F800F0
F000F0
F00078
FFFFF8
FFFFF8
FFFFF8
F00000
F00000
F00000
F00000
F800F8
7800F0
7C01F0
3E03E0
1FFFC0
0FFF80
03FF00
003000
ENDCHAR
STARTCHAR 0436
ENCODING 1078
SWIDTH 652 0
DWIDTH 29 0
BBX 30 23 0 0
BITMAP
78078078
7C0780F8
7E0781F8
0E0783C0
0F078380
07078780
07878780
03878700
03C78F00
01E79E00
00FFFC00
00FFF800
01F7BE00
03C78F00
07878F80
0F878780
0F0783C0
1E0783E0
1E0781E0
3C0780F0
7C0780F0
78078078
F007807C
ENDCHAR
STARTCHAR 0437
ENCODING 1079
SWIDTH 450 0
DWIDTH 20 0
BBX 18 24 1 -1
BITMAP
004000
07FC00
1FFE00
3FFF00
3E0F00
7C0780
780780
080780
000780
000F80
00FF00
01FE00
01FE00
01FF00
000F80
0007C0
0003C0
F003C0
F003C0
7807C0
7C0F80
3FFF80
1FFF00
0FFC00
ENDCHAR
STARTCHAR 0438
ENCODING 1080
SWIDTH 540 0
DWIDTH 24 0
BBX 19 23 3 0
BITMAP
F003E0
F003E0
F007E0
F00FE0
F00FE0
F01FE0
F01DE0
F03DE0
F079E0
F079E0
F0F1E0
F0E1E0
F1E1E0
F3C1E0
F381E0
F781E0
FF01E0
FF01E0
FE01E0
FC01E0
FC01E0
F801E0
F001E0
ENDCHAR
STARTCHAR 0439
ENCODING 1081
SWIDTH 540 0
DWIDTH 24 0
BBX 19 32 3 0
BITMAP
1C0700
0C0700
0E0F00
0FFE00
07FC00
01F000
000000
000000
000000
F003E0
F003E0
F007E0
F00FE0
F00FE0
F01FE0
F01DE0
F03DE0
F079E0
F079E0
F0F1E0
F0E1E0
F1E1E0
F3C1E0
F381E0
F781E0
FF01E0
FF01E0
FE01E0
FC01E0
FC01E0
F801E0
F001E0
ENDCHAR
STARTCHAR 043A
ENCODING 1082
SWIDTH 427 0
DWIDTH 19 0
BBX 16 23 3 0
BITMAP
F00F
F03F
F03F
F078
F070
F0F0
F0E0
F1E0
F1E0
F3C0
FF80
FF00
F7C0
F1E0
F1F0
F0F0
F078
F07C
F03C
F03E
F01E
F00F
F00F
ENDCHAR
STARTCHAR 043B
ENCODING 1083
SWIDTH 562 0
DWIDTH 25 0
BBX 22 23 1 0
BITMAP
0FFFFC
0FFFFC
0FFFFC
0F003C
0F003C
0F003C
0F003C
0F003C
0F003C
0F003C
0F003C
0F003C
0F003C
0F003C
0F003C
0F003C
0F003C
0F003C
0F003C
1F003C
FE003C
FE003C
FC003C
ENDCHAR
STARTCHAR 043C
ENCODING 1084
SWIDTH 675 0
DWIDTH 30 0
BBX 25 23 3 0
BITMAP
FC001F80
FE003F80
FE003F80
FE003F80
FF007F80
FF007780
F700F780
F780F780
F780E780
F381E780
F3C1C780
F3C1C780
F1C3C780
F1E38780
F1E38780
F0E78780
F0F70780
F0FF0780
F07E0780
F07E0780
F07E0780
F03C0780
F03C0780
ENDCHAR
STARTCHAR 043D
ENCODING 1085
SWIDTH 540 0
DWIDTH 24 0
BBX 19 23 3 0
BITMAP
F001E0
F001E0
F001E0
F001E0
F001E0
F001E0
F001E0
F001E0
F001E0
F001E0
FFFFE0
FFFFE0
FFFFE0
F001E0
F001E0
F001E0
F001E0
F001E0
F001E0
F001E0
F001E0
F001E0
F001E0
ENDCHAR
STARTCHAR 043E
ENCODING 1086
SWIDTH 540 0
DWIDTH 24 0
BBX 22 24 1 -1
BITMAP
001800
03FF00
07FFC0
1FFFE0
1F03F0
3E00F8
3C0078
780078
78003C
78003C
78003C
F8003C
F0003C
F0003C
78003C
78003C
78007C
780078
3C0078
3E00F8
1F03F0
0FFFE0
07FFC0
03FF00
ENDCHAR
STARTCHAR 043F
ENCODING 1087
SWIDTH 540 0
DWIDTH 24 0
BBX 18 23 3 0
BITMAP
FFFFC0
FFFFC0
FFFFC0
F003C0
F003C0
F003C0
F003C0
F003C0
F003C0
F003C0
F003C0
F003C0
F003C0
F003C0
F003C0
F003C0
F003C0
F003C0
F003C0
F003C0
F003C0
F003C0
F003C0
ENDCHAR
STARTCHAR 0440
ENCODING 1088
SWIDTH 540 0
DWIDTH 24 0
BBX 20 33 3 -9
BITMAP
002000
E3FE00
E7FF00
EFFF80
FE07C0
FC03C0
F801E0
F001E0
F001E0
F000F0
F000F0
F000F0
E000F0
E000F0
F000F0
F000F0
F001E0
F001E0
F801E0
FC03C0
FE07C0
FFFF80
F7FF00
F3FC00
F02000
F00000
F00000
F00000
F00000
F00000
F00000
F00000
F00000
ENDCHAR
STARTCHAR 0441
ENCODING 1089
SWIDTH 495 0
DWIDTH 22 0
BBX 20 24 2 -1
BITMAP
003000
07FE00
0FFF80
1FFFC0
3E07C0
7C03E0
7801E0
F801E0
F00000
F00000
F00000
F00000
F00000
F00000
F00000
F00000
F000F0
F801E0
7801E0
7C03E0
3E07C0
1FFF80
0FFF00
07FE00
ENDCHAR
STARTCHAR 0442
ENCODING 1090
SWIDTH 450 0
DWIDTH 20 0
BBX 19 23 1 0
BITMAP
FFFFE0
FFFFE0
FFFFE0
01E000
01E000
01E000
01E000
01E000
01E000
01E000
01E000
01E000
01E000
01E000
01E000
01E000
01E000
01E000
01E000
01E000
01E000
01E000
01E000
ENDCHAR
STARTCHAR 0443
ENCODING 1091
SWIDTH 495 0
DWIDTH 22 0
BBX 21 32 1 -9
BITMAP
F00078
F000F0
7800F0
7800F0
7C01E0
3C01E0
3C01C0
1E03C0
1E03C0
1E0780
0F0780
0F0780
0F0F00
078F00
078E00
039E00
03DE00
03DC00
01FC00
01FC00
01F800
00F800
00F000
00F000
00F000
00E000
01E000
03C000
6FC000
7F8000
3F8000
3E0000
ENDCHAR
STARTCHAR 0444
ENCODING 1092
SWIDTH 810 0
DWIDTH 36 0
BBX 33 41 2 -9
BITMAP
0003C00000
0003C00000
0003C00000
0003C00000
0003C00000
0003C00000
0003C00000
0003C00000
0083C18000
07FBCFF000
1FFFDFF800
3FFFFFFC00
3C0FF83E00
7807F01E00
7807E00F00
F003E00F00
F003E00780
F003C00780
F003C00780
F003C00780
F003C00780
F003C00780
F003C00780
F003C00780
F003C00700
F003E00F00
7807E00F00
7C07F01E00
3E0FF83E00
3FFFFFFC00
1FFFDFF800
07FBCFF000
0003C08000
0003C00000
0003C00000
0003C00000
0003C00000
0003C00000
0003C00000
0003C00000
0003C00000
ENDCHAR
STARTCHAR 0445
ENCODING 1093
SWIDTH 495 0
DWIDTH 22 0
BBX 21 23 1 0
BITMAP
F801F0
7C03E0
3E03C0
3E07C0
1F0F80
0F0F00
079E00
07FE00
03FC00
01F800
01F800
01F800
01FC00
03FC00
07FE00
079F00
0F0F00
1F0F80
3E07C0
3C03C0
7C03E0
F801F0
F000F8
ENDCHAR
STARTCHAR 0446
ENCODING 1094
SWIDTH 562 0
DWIDTH 25 0
BBX 21 30 3 -7
BITMAP
F001E0
F001E0
F001E0
F001E0
F001E0
F001E0
F001E0
F001E0
F001E0
F001E0
F001E0
F001E0
F001E0
F001E0
F001E0
F001E0
F001E0
F001E0
F001E0
F001E0
FFFFF8
FFFFF8
FFFFF8
000038
000038
000038
000038
000038
000038
000038
ENDCHAR
STARTCHAR 0447
ENCODING 1095
SWIDTH 517 0
DWIDTH 23 0
BBX 19 23 1 0
BITMAP
F001E0
F001E0
F001E0
F001E0
F001E0
F001E0
F001E0
7801E0
7801E0
7801E0
7C01E0
3FBFE0
1FFFE0
0FFFE0
03F1E0
0001E0
0001E0
0001E0
0001E0
0001E0
0001E0
0001E0
0001E0
ENDCHAR
STARTCHAR 0448
ENCODING 1096
SWIDTH 787 0
DWIDTH 35 0
BBX 30 23 3 0
BITMAP
F007803C
F007803C
F007803C
F007803C
F007803C
F007803C
F007803C
F007803C
F007803C
F007803C
F007803C
F007803C
F007803C
F007803C
F007803C
F007803C
F007803C
F007803C
F007803C
F007803C
FFFFFFFC
FFFFFFFC
FFFFFFFC
ENDCHAR
STARTCHAR 0449
ENCODING 1097
SWIDTH 810 0
DWIDTH 36 0
BBX 32 30 3 -7
BITMAP
F007803C
F007803C
F007803C
F007803C
F007803C
F007803C
F007803C
F007803C
F007803C
F007803C
F007803C
F007803C
F007803C
F007803C
F007803C
F007803C
F007803C
F007803C
F007803C
F007803C
FFFFFFFF
FFFFFFFF
FFFFFFFF
00000007
00000007
00000007
00000007
00000007
00000007
00000007
ENDCHAR
STARTCHAR 044A
ENCODING 1098
SWIDTH 607 0
DWIDTH 27 0
BBX 25 23 1 0
BITMAP
FFC00000
FFC00000
FFC00000
03C00000
03C00000
03C00000
03C00000
03C00000
03C00000
03FFF000
03FFFC00
03FFFE00
03C03F00
03C00F80
03C00780
03C00780
03C00780
03C00780
03C00F80
03C03F00
03FFFE00
03FFFC00
03FFF000
ENDCHAR
STARTCHAR 044B
ENCODING 1099
SWIDTH 697 0
DWIDTH 31 0
BBX 26 23 3 0
BITMAP
F00003C0
F00003C0
F00003C0
F00003C0
F00003C0
F00003C0
F00003C0
F00003C0
F00003C0
FFF803C0
FFFF03C0
FFFF83C0
F00FC3C0
F003C3C0
F001E3C0
F001E3C0
F001E3C0
F001E3C0
F003C3C0
F01FC3C0
FFFF83C0
FFFF03C0
FFFC03C0
ENDCHAR
STARTCHAR 044C
ENCODING 1100
SWIDTH 517 0
DWIDTH 23 0
BBX 19 23 3 0
BITMAP
F00000
F00000
F00000
F00000
F00000
F00000
F00000
F00000
F00000
FFF800
FFFF00
FFFF80
F00FC0
F003C0
F003E0
F001E0
F001E0
F003E0
F003C0
F01FC0
FFFF80
FFFF00
FFFC00
ENDCHAR
STARTCHAR 044D
ENCODING 1101
SWIDTH 495 0
DWIDTH 22 0
BBX 20 25 1 -1
BITMAP
00C000
07FC00
1FFF00
3FFF80
3E07C0
7803C0
7801E0
F001E0
0000F0
0000F0
0000F0
00FFF0
00FFF0
00FFF0
0000F0
0000F0
F001F0
F001E0
7801E0
7803E0
3E07C0
3FFF80
1FFF00
07FE00
003000
ENDCHAR
STARTCHAR 044E
ENCODING 1102
SWIDTH 742 0
DWIDTH 33 0
BBX 29 25 3 -1
BITMAP
00002000
F003FE00
F00FFF80
F01FFFC0
F01F07C0
F03C01E0
F07C01F0
F07800F0
F07800F0
F07800F0
F07800F0
FFF800F8
FFF800F8
FFF800F8
F07800F0
F07800F0
F07800F0
F07800F0
F03C01F0
F03C01E0
F01F07E0
F01FFFC0
F00FFF80
F003FE00
00006000
ENDCHAR
STARTCHAR 044F
ENCODING 1103
SWIDTH 540 0
DWIDTH 24 0
BBX 20 23 1 0
BITMAP
03FFF0
0FFFF0
1FFFF0
3F00F0
7C00F0
7800F0
7800F0
7800F0
7800F0
3C00F0
3F00F0
1FFFF0
0FFFF0
01FFF0
03E0F0
07C0F0
0F80F0
1F00F0
1F00F0
3E00F0
7C00F0
7C00F0
F800F0
ENDCHAR
STARTCHAR 0451
ENCODING 1105
SWIDTH 540 0
DWIDTH 24 0
BBX 21 33 2 -1
BITMAP
0F0F00
0F0F00
0F0F00
0F0F00
000000
000000
000000
000000
002000
07FE00
0FFF80
1FFFC0
3E03E0
7C01E0
7800F0
F800F0
F000F0
F00078
FFFFF8
FFFFF8
FFFFF8
F00000
F00000
F00000
F00000
F800F8
7800F0
7C01F0
3E03E0
1FFFC0
0FFF80
03FF00
003000
ENDCHAR
STARTCHAR 0452
ENCODING 1106
SWIDTH 540 0
DWIDTH 24 0
BBX 22 41 0 -9
BITMAP
1E0000
1E0000
1E0000
FFFC00
FFFC00
FFFC00
1E0000
1E0000
1E0600
1E7FC0
1EFFF0
1FFFF0
1FC0F8
1F8078
1F0078
1E003C
1E003C
1E003C
1E003C
1E003C
1E003C
1E003C
1E003C
1E003C
1E003C
1E003C
1E003C
1E003C
1E003C
1E003C
1E003C
1E003C
00003C
00003C
00003C
00003C
000078
000078
0007F8
0007F0
0007E0
ENDCHAR
STARTCHAR 0453
ENCODING 1107
SWIDTH 360 0
DWIDTH 16 0
BBX 13 32 3 0
BITMAP
01F0
01E0
03E0
03C0
0780
0700
0000
0000
0000
FFF8
FFF8
FFF8
F000
F000
F000
F000
F000
F000
F000
F000
F000
F000
F000
F000
F000
F000
F000
F000
F000
F000
F000
F000
ENDCHAR
STARTCHAR 0454
ENCODING 1108
SWIDTH 495 0
DWIDTH 22 0
BBX 20 25 2 -1
BITMAP
006000
07FE00
0FFF00
1FFF80
3E07C0
7C03E0
7801E0
F801E0
F00000
F00000
F00000
FFF000
FFF000
FFF000
F00000
F00000
F000F0
F801E0
7801E0
7C03E0
3E07C0
3FFF80
1FFF00
07FE00
00E000
ENDCHAR
STARTCHAR 0455
ENCODING 1109
SWIDTH 495 0
DWIDTH 22 0
BBX 19 24 1 -1
BITMAP
004000
07FE00
1FFF00
3FFF80
3C07C0
7803C0
7801E0
780000
7C0000
3F0000
3FF000
1FFE00
07FF80
00FFC0
001FE0
0003E0
0001E0
F001E0
7801E0
7801E0
3E03E0
3FFFC0
1FFF80
07FE00
ENDCHAR
STARTCHAR 0456
ENCODING 1110
SWIDTH 202 0
DWIDTH 9 0
BBX 4 32 3 0
BITMAP
F0
F0
F0
F0
F0
00
00
00
00
F0
F0
F0
F0
F0
F0
F0
F0
F0
F0
F0
F0
F0
F0
F0
F0
F0
F0
F0
F0
F0
F0
F0
ENDCHAR
STARTCHAR 0457
ENCODING 1111
SWIDTH 270 0
DWIDTH 12 0
BBX 12 32 0 0
BITMAP
F0F0
F0F0
F0F0
F0F0
0000
0000
0000
0000
0000
0F00
0F00
0F00
0F00
0F00
0F00
0F00
0F00
0F00
0F00
0F00
0F00
0F00
0F00
0F00
0F00
0F00
0F00
0F00
0F00
0F00
0F00
0F00
ENDCHAR
STARTCHAR 0458
ENCODING 1112
SWIDTH 202 0
DWIDTH 9 0
BBX 9 41 -2 -9
BITMAP
0780
0780
0780
0780
0780
0000
0000
0000
0000
0780
0780
0780
0780
0780
0780
0780
0780
0780
0780
0780
0780
0780
0780
0780
0780
0780
0780
0780
0780
0780
0780
0780
0780
0780
0780
0780
0780
0F00
FF00
FE00
FC00
ENDCHAR
STARTCHAR 0459
ENCODING 1113
SWIDTH 900 0
DWIDTH 40 0
BBX 39 23 0 0
BITMAP
07FFFF0000
07FFFF0000
07FFFF0000
07800F0000
07800F0000
07800F0000
07800F0000
07800F0000
07800F0000
07800FFF80
07800FFFF0
07800FFFF8
07800F00FC
07800F003C
07800F003E
07800F001E
07800F001E
07800F003E
07800F003C
0F800F01FC
FF000FFFF8
FF000FFFF0
FE000FFFC0
ENDCHAR
STARTCHAR 045A
ENCODING 1114
SWIDTH 810 0
DWIDTH 36 0
BBX 32 23 3 0
BITMAP
F0078000
F0078000
F0078000
F0078000
F0078000
F0078000
F0078000
F0078000
F0078000
F0078000
FFFFFFE0
FFFFFFF8
FFFFFFFC
F007803E
F007801E
F007801F
F007800F
F007801E
F007801E
F007807E
F007FFFC
F007FFF8
F007FFE0
ENDCHAR
STARTCHAR 045B
ENCODING 1115
SWIDTH 540 0
DWIDTH 24 0
BBX 22 32 0 0
BITMAP
1E0000
1E0000
1E0000
FFFC00
FFFC00
FFFC00
1E0000
1E0000
1E0600
1E7FC0
1EFFF0
1FFFF0
1FC0F8
1F8078
1F0078
1E003C
1E003C
1E003C
1E003C
1E003C
1E003C
1E003C
1E003C
1E003C
1E003C
1E003C
1E003C
1E003C
1E003C
1E003C
1E003C
1E003C
ENDCHAR
STARTCHAR 045C
ENCODING 1116
SWIDTH 427 0
DWIDTH 19 0
BBX 16 32 3 0
BITMAP
01F0
01E0
03E0
03C0
0780
0700
0000
0000
0000
F00F
F03F
F03F
F078
F070
F0F0
F0E0
F1E0
F1E0
F3C0
FF80
FF00
F7C0
F1E0
F1F0
F0F0
F078
F07C
F03C
F03E
F01E
F00F
F00F
ENDCHAR
STARTCHAR 045E
ENCODING 1118
SWIDTH 495 0
DWIDTH 22 0
BBX 21 41 1 -9
BITMAP
0E0380
0E0380
070700
07FF00
03FE00
00F800
000000
000000
000000
F00078
F000F0
7800F0
7800F0
7C01E0
3C01E0
3C01C0
1E03C0
1E03C0
1E0780
0F0780
0F0780
0F0F00
078F00
078E00
039E00
03DE00
03DC00
01FC00
01FC00
01F800
00F800
00F000
00F000
00F000
00E000
01E000
03C000
6FC000
7F8000
3F8000
3E0000
ENDCHAR
STARTCHAR 045F
ENCODING 1119
SWIDTH 540 0
DWIDTH 24 0
BBX 19 30 3 -7
BITMAP
F001E0
F001E0
F001E0
F001E0
F001E0
F001E0
F001E0
F001E0
F001E0
F001E0
F001E0
F001E0
F001E0
F001E0
F001E0
F001E0
F001E0
F001E0
F001E0
F001E0
FFFFE0
FFFFE0
FFFFE0
00E000
00E000
00E000
00E000
00E000
00E000
00E000
ENDCHAR
STARTCHAR 0490
ENCODING 1168
SWIDTH 472 0
DWIDTH 21 0
BBX 17 41 3 0
BITMAP
000380
000380
000380
000380
000380
000380
000380
000380
000380
FFFF80
FFFF80
FFFF80
FFFF80
F80000
F80000
F80000
F80000
F80000
F80000
F80000
F80000
F80000
F80000
F80000
F80000
F80000
F80000
F80000
F80000
F80000
F80000
F80000
F80000
F80000
F80000
F80000
F80000
F80000
F80000
F80000
F80000
ENDCHAR
STARTCHAR 0491
ENCODING 1169
SWIDTH 405 0
DWIDTH 18 0
BBX 14 32 3 0
BITMAP
001C
001C
001C
001C
001C
001C
001C
001C
001C
FFFC
FFFC
FFFC
F000
F000
F000
F000
F000
F000
F000
F000
F000
F000
F000
F000
F000
F000
F000
F000
F000
F000
F000
F000
ENDCHAR
STARTCHAR 0492
ENCODING 1170
SWIDTH 540 0
DWIDTH 24 0
BBX 24 32 0 0
BITMAP
1FFFFF
1FFFFF
1FFFFF
1FFFFF
1F0000
1F0000
1F0000
1F0000
1F0000
1F0000
1F0000
1F0000
1F0000
1F0000
1F0000
FFFF00
FFFF00
FFFF00
1F0000
1F0000
1F0000
1F0000
1F0000
1F0000
1F0000
1F0000
1F0000
1F0000
1F0000
1F0000
1F0000
1F0000
ENDCHAR
STARTCHAR 0493
ENCODING 1171
SWIDTH 360 0
DWIDTH 16 0
BBX 16 23 0 0
BITMAP
1FFF
1FFF
1FFF
1E00
1E00
1E00
1E00
1E00
1E00
FFF0
FFF0
FFF0
1E00
1E00
1E00
1E00
1E00
1E00
1E00
1E00
1E00
1E00
1E00
ENDCHAR
STARTCHAR 0496
ENCODING 1174
SWIDTH 922 0
DWIDTH 41 0
BBX 41 41 0 -9
BITMAP
F8003E000F80
FE003E003F80
FF003E007F80
FF803E00FF80
07C03E01F000
03C03E01E000
03E03E03E000
01E03E03C000
01E03E03C000
00F03E078000
00F03E078000
00F83E0F8000
007C3E1F0000
003E3E3E0000
001FFFFC0000
000FFFF80000
001FFFFC0000
003F3E7E0000
007C3E1F0000
00F83E0F8000
01F83E0FC000
01F03E07C000
03E03E03E000
07E03E03F000
07C03E01F000
0F803E00F800
0F803E00F800
1F003E007C00
3F003E007F80
3E003E003F80
7C003E001F80
FC003E001F80
000000000780
000000000780
000000000780
000000000780
000000000780
000000000780
000000000780
000000000780
000000000780
ENDCHAR
STARTCHAR 0497
ENCODING 1175
SWIDTH 652 0
DWIDTH 29 0
BBX 30 30 0 -7
BITMAP
78078078
7C0780F8
7E0781F8
0E0783C0
0F078380
07078780
07878780
03878700
03C78F00
01E79E00
00FFFC00
00FFF800
01F7BE00
03C78F00
07878F80
0F878780
0F0783C0
1E0783E0
1E0781E0
3C0780F0
7C0780FC
7807807C
F007807C
0000003C
0000003C
0000003C
0000003C
0000003C
0000003C
0000003C
ENDCHAR
STARTCHAR 049A
ENCODING 1178
SWIDTH 562 0
DWIDTH 25 0
BBX 23 41 3 -9
BITMAP
F8003C
F800FC
F803FC
F803FC
F807C0
F80780
F80F80
F80F00
F81F00
F81E00
F83E00
F83C00
F87C00
F8F800
FFF000
FFE000
FFF000
F9F800
F87C00
F83E00
F83F00
F81F00
F80F80
F80F80
F807C0
F807E0
F803E0
F801F0
F801FE
F800FE
F8007E
F8007E
00001E
00001E
00001E
00001E
00001E
00001E
00001E
00001E
00001E
ENDCHAR
STARTCHAR 049B
ENCODING 1179
SWIDTH 427 0
DWIDTH 19 0
BBX 16 30 3 -7
BITMAP
F00F
F03F
F03F
F078
F070
F0F0
F0E0
F0E0
F1E0
F3C0
FF80
FF00
F7C0
F1E0
F1F0
F0F0
F078
F07C
F03C
F03E
F01F
F00F
F00F
0007
0007
0007
0007
0007
0007
0007
ENDCHAR
STARTCHAR 049C
ENCODING 1180
SWIDTH 562 0
DWIDTH 25 0
BBX 22 32 3 0
BITMAP
F8003C
F800FC
F801FC
F803FC
F807C0
F9C780
F9CF80
F9CF00
F9DF00
F9DE00
F9FE00
F9FC00
F9FC00
F9F800
FFF000
FFE000
FFF000
F9F800
F9FC00
F9FE00
F9FF00
F9DF00
F9CF80
F9CF80
F9C7C0
F9C7E0
F9C3E0
F801F0
F801F8
F800F8
F8007C
F8007C
ENDCHAR
STARTCHAR 049D
ENCODING 1181
SWIDTH 427 0
DWIDTH 19 0
BBX 16 23 3 0
BITMAP
F00F
F03F
F03F
F778
F770
F7F0
F7E0
F7E0
F7E0
F7C0
FF80
FF80
F7C0
F7E0
F7F0
F7F0
F778
F77C
F73C
F03E
F01E
F00F
F00F
ENDCHAR
STARTCHAR 04A2
ENCODING 1186
SWIDTH 720 0
DWIDTH 32 0
BBX 27 41 4 -9
BITMAP
F0000F80
F0000F80
F0000F80
F0000F80
F0000F80
F0000F80
F0000F80
F0000F80
F0000F80
F0000F80
F0000F80
F0000F80
F0000F80
FFFFFF80
FFFFFF80
FFFFFF80
FFFFFF80
F0000F80
F0000F80
F0000F80
F0000F80
F0000F80
F0000F80
F0000F80
F0000F80
F0000F80
F0000F80
F0000F80
F0000FE0
F0000FE0
F0000FE0
F0000FE0
000000E0
000000E0
000000E0
000000E0
000000E0
000000E0
000000E0
000000E0
000000E0
ENDCHAR
STARTCHAR 04A3
ENCODING 1187
SWIDTH 540 0
DWIDTH 24 0
BBX 21 30 3 -7
BITMAP
F001E0
F001E0
F001E0
F001E0
F001E0
F001E0
F001E0
F001E0
F001E0
F001E0
FFFFE0
FFFFE0
FFFFE0
F001E0
F001E0
F001E0
F001E0
F001E0
F001E0
F001E0
F001F8
F001F8
F001F8
000038
000038
000038
000038
000038
000038
000038
ENDCHAR
STARTCHAR 04AE
ENCODING 1198
SWIDTH 540 0
DWIDTH 24 0
BBX 24 32 0 0
BITMAP
F0000F
78001F
7C001E
3C003E
3E003C
1E007C
0F0078
0F00F0
0781F0
0781E0
03C3E0
03E3C0
01E7C0
00F780
00FF00
007F00
007E00
003E00
003C00
003C00
003C00
003C00
003C00
003C00
003C00
003C00
003C00
003C00
003C00
003C00
003C00
003C00
ENDCHAR
STARTCHAR 04AF
ENCODING 1199
SWIDTH 495 0
DWIDTH 22 0
BBX 21 32 1 -9
BITMAP
F000F8
F000F0
F800F0
7801E0
7801E0
3C01E0
3C03C0
3C03C0
1E03C0
1E0780
1E0780
0F0F00
0F0F00
078F00
079E00
079E00
039E00
03FC00
03FC00
01F800
01F800
00F800
00F000
00F000
00F000
00F000
00F000
00F000
00F000
00F000
00F000
00F000
ENDCHAR
STARTCHAR 04B0
ENCODING 1200
SWIDTH 540 0
DWIDTH 24 0
BBX 24 32 0 0
BITMAP
F0000F
78001F
7C001E
3C003E
3E003C
1E007C
0F0078
0F00F0
0781F0
0781E0
03C3E0
03E3C0
01E7C0
00F780
00FF00
007F00
7FFFFE
7FFFFE
7FFFFE
003C00
003C00
003C00
003C00
003C00
003C00
003C00
003C00
003C00
003C00
003C00
003C00
003C00
ENDCHAR
STARTCHAR 04B1
ENCODING 1201
SWIDTH 495 0
DWIDTH 22 0
BBX 21 32 1 -9
BITMAP
F000F8
F000F0
F800F0
7801E0
7801E0
3C01E0
3C03C0
3C03C0
1E03C0
1E0780
1E0780
0F0F00
0F0F00
078F00
079E00
079E00
039E00
03FC00
03FC00
01F800
01F800
00F800
00F000
7FFFE0
7FFFE0
7FFFE0
00F000
00F000
00F000
00F000
00F000
00F000
ENDCHAR
STARTCHAR 04B2
ENCODING 1202
SWIDTH 652 0
DWIDTH 29 0
BBX 28 41 1 -9
BITMAP
7C0001E0
3E0003E0
3E0007C0
1F000F80
0F800F00
0F801F00
07C03E00
03E07C00
01F07800
01F0F800
00F9F000
007FE000
007FC000
003FC000
001F8000
001F8000
001F8000
003FC000
007FE000
00FBE000
00F9F000
01F0F800
03E0FC00
07C07C00
07C03E00
0F801F00
1F001F00
1F000F80
3E0007F0
7C0007F0
F80003F0
F80001F0
00000070
00000070
00000070
00000070
00000070
00000070
00000070
00000070
00000070
ENDCHAR
STARTCHAR 04B3
ENCODING 1203
SWIDTH 495 0
DWIDTH 22 0
BBX 21 30 1 -7
BITMAP
F801F0
7C03E0
3E03C0
3E07C0
1F0F80
0F0F00
079E00
07FE00
03FC00
01F800
01F800
01F800
01FC00
03FC00
07FE00
079F00
0F0F00
1F0F80
3E07C0
3C03C0
7C03F8
F801F8
F000F8
000038
000038
000038
000038
000038
000038
000038
ENDCHAR
STARTCHAR 04B8
ENCODING 1208
SWIDTH 652 0
DWIDTH 29 0
BBX 24 32 2 0
BITMAP
F0000F
F0000F
F0000F
F0000F
F0000F
F0000F
F0000F
F0000F
F0180F
F0180F
F0180F
F0180F
F0180F
F8180F
F8180F
7C180F
7E183F
3F9FFF
3FFFFF
0FFFEF
03FF0F
00180F
00180F
00180F
00180F
00180F
00180F
00000F
00000F
00000F
00000F
00000F
ENDCHAR
STARTCHAR 04B9
ENCODING 1209
SWIDTH 517 0
DWIDTH 23 0
BBX 19 23 1 0
BITMAP
F001E0
F001E0
F001E0
F001E0
F001E0
F061E0
F061E0
7861E0
7861E0
7861E0
7C61E0
3FFFE0
1FFFE0
0FFFE0
03F1E0
0061E0
0061E0
0061E0
0061E0
0001E0
0001E0
0001E0
0001E0
ENDCHAR
STARTCHAR 04BA
ENCODING 1210
SWIDTH 652 0
DWIDTH 29 0
BBX 25 32 3 0
BITMAP
F8000000
F8000000
F8000000
F8000000
F8000000
F8000000
F8000000
F8000000
F8000000
F8000000
F8000000
F83FC000
FBFFF800
FFFFFC00
FFFFFE00
FF003E00
F8001F00
F8000F00
F8000F00
F8000F80
F8000F80
F8000F80
F8000F80
F8000780
F8000780
F8000780
F8000780
F8000780
F8000780
F8000780
F8000780
F8000780
ENDCHAR
STARTCHAR 04BB
ENCODING 1211
SWIDTH 517 0
DWIDTH 23 0
BBX 19 23 3 0
BITMAP
F00000
F00000
F00000
F00000
F00000
F00000
F00000
F00000
F1F800
FFFE00
FFFF80
FFBF80
F007C0
F003C0
F003C0
F001E0
F001E0
F001E0
F001E0
F001E0
F001E0
F001E0
F001E0
ENDCHAR
STARTCHAR 04D8
ENCODING 1240
SWIDTH 742 0
DWIDTH 33 0
BBX 29 33 2 -1
BITMAP
003FF000
01FFFC00
03FFFF00
07FC7F80
0FC00FC0
1F8007C0
1F0003E0
3E0001F0
3E0000F0
0C0000F0
000000F8
00000078
00000078
00000078
FFFFFFF8
FFFFFFF8
FFFFFFF8
F8000078
F8000078
F8000078
78000078
780000F8
780000F8
7C0000F0
3C0001F0
3E0003E0
1F0003E0
1F800FC0
0FE03F80
07FFFF00
01FFFE00
007FF800
00020000
ENDCHAR
STARTCHAR 04D9
ENCODING 1241
SWIDTH 540 0
DWIDTH 24 0
BBX 21 25 2 -1
BITMAP
003000
07FE00
1FFF80
3FFFC0
7E07E0
7C01F0
F800F0
F000F0
000078
000078
000078
FFFFF8
FFFFF8
FFFFF8
FFFFF8
F00078
F000F8
7800F0
7800F0
7C01E0
3E03E0
1FFFC0
0FFF80
07FE00
002000
ENDCHAR
STARTCHAR 04E8
ENCODING 1256
SWIDTH 765 0
DWIDTH 34 0
BBX 31 33 2 -1
BITMAP
003FF800
00FFFE00
03FFFF00
07F83FC0
0FC00FE0
1F8003E0
1E0001F0
3E0000F8
7C0000F8
7C000078
7800007C
7800003C
F800003C
F800003C
FFFFFFFC
FFFFFFFC
FFFFFFFE
FFFFFFFC
F800003C
F800003C
7800003C
7800007C
7C00007C
7C000078
3E0000F8
3E0001F0
1F0003E0
0FC007E0
07F01FC0
03FFFF80
01FFFE00
003FF800
00030000
ENDCHAR
STARTCHAR 04E9
ENCODING 1257
SWIDTH 540 0
DWIDTH 24 0
BBX 22 24 1 -1
BITMAP
001000
03FF00
07FFC0
1FFFE0
1F03F0
3E00F0
3C0078
780078
78003C
78003C
7FFFFC
FFFFFC
FFFFFC
F8003C
78003C
78003C
78007C
780078
3C0078
3E00F0
1F03F0
1FFFE0
07FFC0
03FF00
ENDCHAR
STARTCHAR 05B0
ENCODING 1456
SWIDTH 315 0
DWIDTH 14 0
BBX 3 8 6 -9
BITMAP
E0
E0
E0
C0
00
E0
E0
E0
ENDCHAR
STARTCHAR 05B1
ENCODING 1457
SWIDTH 315 0
DWIDTH 14 0
BBX 13 8 1 -9
BITMAP
E738
E738
E738
4230
0000
3838
3C78
3838
ENDCHAR
STARTCHAR 05B2
ENCODING 1458
SWIDTH 315 0
DWIDTH 14 0
BBX 13 8 1 -9
BITMAP
FE30
FE78
FE78
0030
0000
0070
0078
0070
ENDCHAR
STARTCHAR 05B3
ENCODING 1459
SWIDTH 315 0
DWIDTH 14 0
BBX 13 8 1 -9
BITMAP
FE30
FE78
FE78
1830
1800
1870
0078
0070
ENDCHAR
STARTCHAR 05B4
ENCODING 1460
SWIDTH 315 0
DWIDTH 14 0
BBX 3 4 6 -8
BITMAP
40
E0
E0
E0
ENDCHAR
STARTCHAR 05B5
ENCODING 1461
SWIDTH 315 0
DWIDTH 14 0
BBX 9 4 3 -8
BITMAP
4100
E380
E780
E380
ENDCHAR
STARTCHAR 05B6
ENCODING 1462
SWIDTH 315 0
DWIDTH 14 0
BBX 9 8 3 -9
BITMAP
E300
E780
E380
4300
0000
1C00
1C00
1C00
ENDCHAR
STARTCHAR 05B7
ENCODING 1463
SWIDTH 315 0
DWIDTH 14 0
BBX 9 2 3 -7
BITMAP
FF80
FF80
ENDCHAR
STARTCHAR 05B8
ENCODING 1464
SWIDTH 315 0
DWIDTH 14 0
BBX 9 6 3 -9
BITMAP
FF80
FF80
FF80
1C00
1C00
1C00
ENDCHAR
STARTCHAR 05B9
ENCODING 1465
SWIDTH 315 0
DWIDTH 14 0
BBX 3 3 6 26
BITMAP
E0
E0
E0
ENDCHAR
STARTCHAR 05BB
ENCODING 1467
SWIDTH 315 0
DWIDTH 14 0
BBX 14 8 0 -9
BITMAP
6000
F000
F100
6380
0380
039C
001C
001C
ENDCHAR
STARTCHAR 05BC
ENCODING 1468
SWIDTH 315 0
DWIDTH 14 0
BBX 3 3 6 11
BITMAP
E0
E0
E0
ENDCHAR
STARTCHAR 05BD
ENCODING 1469
SWIDTH 315 0
DWIDTH 14 0
BBX 3 8 6 -9
BITMAP
E0
E0
E0
E0
E0
E0
E0
E0
ENDCHAR
STARTCHAR 05BE
ENCODING 1470
SWIDTH 382 0
DWIDTH 17 0
BBX 11 3 3 20
BITMAP
FFE0
FFE0
FFE0
ENDCHAR
STARTCHAR 05BF
ENCODING 1471
SWIDTH 315 0
DWIDTH 14 0
BBX 9 2 3 27
BITMAP
FF80
FF80
ENDCHAR
STARTCHAR 05C0
ENCODING 1472
SWIDTH 270 0
DWIDTH 12 0
BBX 3 28 5 0
BITMAP
E0
E0
E0
E0
E0
E0
E0
E0
E0
E0
E0
E0
E0
E0
E0
E0
E0
E0
E0
E0
E0
E0
E0
E0
E0
E0
E0
E0
ENDCHAR
STARTCHAR 05C1
ENCODING 1473
SWIDTH 315 0
DWIDTH 14 0
BBX 4 3 17 26
BITMAP
E0
F0
E0
ENDCHAR
STARTCHAR 05C2
ENCODING 1474
SWIDTH 315 0
DWIDTH 14 0
BBX 3 3 -5 26
BITMAP
E0
E0
E0
ENDCHAR
STARTCHAR 05C3
ENCODING 1475
SWIDTH 270 0
DWIDTH 12 0
BBX 4 23 4 0
BITMAP
F0
F0
F0
F0
00
00
00
00
00
00
00
00
00
00
00
00
00
00
00
F0
F0
F0
F0
ENDCHAR
STARTCHAR 05D0
ENCODING 1488
SWIDTH 562 0
DWIDTH 25 0
BBX 21 23 2 0
BITMAP
7C00F0
7E00F0
3E00F0
1F00F0
0F80F0
0F81F0
07C1F0
03E1E0
0FF1E0
1FF3E0
1FFFC0
3E7F80
3C7F00
7C3E00
7C1F00
781F80
780F80
7807C0
7803E0
7803E0
7801F0
F800F8
F800F8
ENDCHAR
STARTCHAR 05D1
ENCODING 1489
SWIDTH 540 0
DWIDTH 24 0
BBX 22 23 1 0
BITMAP
FFF000
7FFE00
7FFF00
60FF80
001F80
0007C0
0007C0
0003C0
0003C0
0003C0
0003C0
0003C0
0003C0
0003C0
0003C0
0003C0
0003C0
0003C0
0003C0
0003C0
FFFFFC
FFFFFC
FFFFFC
ENDCHAR
STARTCHAR 05D2
ENCODING 1490
SWIDTH 382 0
DWIDTH 17 0
BBX 15 23 1 0
BITMAP
3FC0
3FE0
3FF0
03F0
00F8
0078
0078
0078
0078
0078
0078
0078
0078
0078
01F8
07F8
1FF8
1FBC
3E3C
7C3C
783C
F81E
F01E
ENDCHAR
STARTCHAR 05D3
ENCODING 1491
SWIDTH 495 0
DWIDTH 22 0
BBX 21 23 1 0
BITMAP
FFFFF8
FFFFF8
FFFFF8
000780
000780
000780
000780
000780
000780
000780
000780
000780
000780
000780
000780
000780
000780
000780
000780
000780
000780
000780
000780
ENDCHAR
STARTCHAR 05D4
ENCODING 1492
SWIDTH 585 0
DWIDTH 26 0
BBX 21 23 3 0
BITMAP
FFFC00
FFFF80
FFFFC0
703FE0
0003E0
0001F0
0000F0
0000F0
0000F0
0000F8
7800F8
7800F8
7800F8
7800F8
7800F8
7800F8
7800F8
7800F8
7800F8
7800F8
7800F8
7800F8
7800F8
ENDCHAR
STARTCHAR 05D5
ENCODING 1493
SWIDTH 225 0
DWIDTH 10 0
BBX 5 23 3 0
BITMAP
F8
F8
F8
F8
F8
F8
F8
F8
F8
F8
F8
F8
F8
F8
F8
F8
F8
F8
F8
F8
F8
F8
F8
ENDCHAR
STARTCHAR 05D6
ENCODING 1494
SWIDTH 360 0
DWIDTH 16 0
BBX 14 23 2 0
BITMAP
FFFC
FFFC
FFFC
03E0
0780
0F00
0F00
1E00
1E00
1E00
1E00
1E00
1E00
1E00
1E00
1E00
1F00
1F00
0F00
0F00
0F00
0F00
0F00
ENDCHAR
STARTCHAR 05D7
ENCODING 1495
SWIDTH 585 0
DWIDTH 26 0
BBX 20 23 3 0
BITMAP
FFFE00
FFFF80
FFFFC0
FC1FE0
F803E0
F801F0
F800F0
F800F0
F800F0
F800F0
F800F0
F800F0
F800F0
F800F0
F800F0
F800F0
F800F0
F800F0
F800F0
F800F0
F800F0
F800F0
F800F0
ENDCHAR
STARTCHAR 05D8
ENCODING 1496
SWIDTH 585 0
DWIDTH 26 0
BBX 21 25 3 -1
BITMAP
000200
F01FC0
F03FE0
F07FE0
F071F0
F060F0
F000F0
F000F0
F000F8
F000F8
F000F8
F000F8
F000F8
F000F8
F000F8
F000F0
F000F0
7800F0
7800F0
7C01E0
3E03E0
1FFFC0
0FFF80
07FE00
006000
ENDCHAR
STARTCHAR 05D9
ENCODING 1497
SWIDTH 225 0
DWIDTH 10 0
BBX 5 12 3 11
BITMAP
F8
F8
F8
F8
F8
F8
F8
F8
F8
F8
F8
F8
ENDCHAR
STARTCHAR 05DA
ENCODING 1498
SWIDTH 495 0
DWIDTH 22 0
BBX 18 32 1 -9
BITMAP
FFF000
FFFC00
FFFF00
E0FF80
001F80
0007C0
0007C0
0003C0
0003C0
0003C0
0003C0
0003C0
0003C0
0003C0
0003C0
0003C0
0003C0
0003C0
0003C0
0003C0
0003C0
0003C0
0003C0
0003C0
0003C0
0003C0
0003C0
0003C0
0003C0
0003C0
0003C0
0003C0
ENDCHAR
STARTCHAR 05DB
ENCODING 1499
SWIDTH 450 0
DWIDTH 20 0
BBX 17 23 2 0
BITMAP
FFC000
FFF000
FFF800
C3FC00
007E00
003E00
001F00
001F00
000F00
000F00
000F00
000F80
000F80
000F00
000F00
001F00
001F00
003E00
007E00
E7FC00
FFF800
FFE000
FF8000
ENDCHAR
STARTCHAR 05DC
ENCODING 1500
SWIDTH 450 0
DWIDTH 20 0
BBX 17 32 1 0
BITMAP
F00000
F00000
F00000
F00000
F00000
F00000
F00000
F00000
F00000
FFFF80
FFFF80
FFFF80
000780
000780
000780
000780
000780
000780
000780
000F00
001F00
001E00
003E00
007C00
007800
00F800
00F000
00F000
00F000
00F000
00F000
00F000
ENDCHAR
STARTCHAR 05DD
ENCODING 1501
SWIDTH 585 0
DWIDTH 26 0
BBX 20 23 3 0
BITMAP
FFFE00
FFFF80
FFFFC0
FC1FE0
F803E0
F801F0
F800F0
F800F0
F800F0
F800F0
F800F0
F800F0
F800F0
F800F0
F800F0
F800F0
F800F0
F800F0
F800F0
F800F0
FFFFF0
FFFFF0
FFFFF0
ENDCHAR
STARTCHAR 05DE
ENCODING 1502
SWIDTH 585 0
DWIDTH 26 0
BBX 22 23 2 0
BITMAP
F03F80
F0FFC0
79FFE0
7BF3F0
7BC0F0
3F8078
3F8078
1F0078
1F0078
1E0078
1E007C
1E007C
1E007C
3C007C
3C007C
3C007C
3C007C
3C007C
78007C
78007C
783FFC
783FFC
783FFC
ENDCHAR
STARTCHAR 05DF
ENCODING 1503
SWIDTH 225 0
DWIDTH 10 0
BBX 5 32 3 -9
BITMAP
F8
F8
F8
F8
F8
F8
F8
F8
F8
F8
F8
F8
F8
F8
F8
F8
F8
F8
F8
F8
F8
F8
F8
F8
F8
F8
F8
F8
F8
F8
F8
F8
ENDCHAR
STARTCHAR 05E0
ENCODING 1504
SWIDTH 337 0
DWIDTH 15 0
BBX 11 23 1 0
BITMAP
7F00
7FC0
7FC0
07E0
03E0
01E0
01E0
01E0
01E0
01E0
01E0
01E0
01E0
01E0
01E0
01E0
01E0
01E0
01E0
01E0
FFE0
FFE0
FFE0
ENDCHAR
STARTCHAR 05E1
ENCODING 1505
SWIDTH 562 0
DWIDTH 25 0
BBX 22 25 2 -1
BITMAP
007000
03FF00
0FFF80
1FFFC0
3F03E0
3E01F0
7C00F0
7800F8
F80078
F80078
F80078
F8007C
F0007C
F0007C
F80078
F80078
F80078
7800F8
7C00F0
3E01F0
3F03E0
1FFFC0
0FFF80
03FF00
007000
ENDCHAR
STARTCHAR 05E2
ENCODING 1506
SWIDTH 517 0
DWIDTH 23 0
BBX 20 25 1 -2
BITMAP
3C01F0
3C01F0
3E01F0
1E01E0
1E01E0
1E01E0
1E01E0
1F01E0
0F01E0
0F01E0
0F01E0
0F01E0
0F01E0
0781E0
0783C0
0783C0
0787C0
078F80
03DF00
03FF00
07FC00
FFF800
FFE000
FF0000
E00000
ENDCHAR
STARTCHAR 05E3
ENCODING 1507
SWIDTH 562 0
DWIDTH 25 0
BBX 20 32 2 -9
BITMAP
3FFC00
FFFF00
FFFFC0
F81FC0
F003E0
F001E0
F001F0
F000F0
F000F0
F000F0
F000F0
7800F0
7F80F0
7F80F0
3F80F0
0200F0
0000F0
0000F0
0000F0
0000F0
0000F0
0000F0
0000F0
0000F0
0000F0
0000F0
0000F0
0000F0
0000F0
0000F0
0000F0
0000F0
ENDCHAR
STARTCHAR 05E4
ENCODING 1508
SWIDTH 540 0
DWIDTH 24 0
BBX 19 23 3 0
BITMAP
7FF800
FFFE00
FFFF00
F03F80
F00FC0
F007C0
F003E0
F003E0
F001E0
F001E0
FF01E0
7F01E0
3F01E0
0601E0
0003E0
0003E0
0007C0
000FC0
801F80
F0FF00
FFFE00
FFFC00
7FF000
ENDCHAR
STARTCHAR 05E5
ENCODING 1509
SWIDTH 450 0
DWIDTH 20 0
BBX 18 32 1 -9
BITMAP
F007C0
F807C0
7807C0
7C0780
3C0780
3E0780
1E0780
1F0780
0F0F80
0F8F00
079F00
07FE00
03FC00
03F800
03E000
03E000
03E000
03E000
03E000
03E000
03E000
03E000
03E000
03E000
03E000
03E000
03E000
03E000
03E000
03E000
03E000
03E000
ENDCHAR
STARTCHAR 05E6
ENCODING 1510
SWIDTH 472 0
DWIDTH 21 0
BBX 18 23 1 0
BITMAP
F003C0
F807C0
7C07C0
7C07C0
3E07C0
1E07C0
1F0780
0F8780
078F80
07DF00
03FE00
01FC00
01F800
00F000
007800
007C00
003C00
001E00
001F00
000F00
FFFF80
FFFF80
FFFF80
ENDCHAR
STARTCHAR 05E7
ENCODING 1511
SWIDTH 540 0
DWIDTH 24 0
BBX 19 32 3 -9
BITMAP
FFFFE0
FFFFE0
FFFFE0
0001E0
0001E0
0001E0
0001E0
0001E0
0001E0
0003E0
7803C0
7807C0
780F80
780F00
781F00
781E00
783E00
783C00
783C00
783C00
783C00
783C00
783C00
780000
780000
780000
780000
780000
780000
780000
780000
780000
ENDCHAR
STARTCHAR 05E8
ENCODING 1512
SWIDTH 495 0
DWIDTH 22 0
BBX 18 23 1 0
BITMAP
FFF000
FFFE00
FFFF00
E0FF80
001F80
0007C0
0007C0
0003C0
0003C0
0003C0
0003C0
0003C0
0003C0
0003C0
0003C0
0003C0
0003C0
0003C0
0003C0
0003C0
0003C0
0003C0
0003C0
ENDCHAR
STARTCHAR 05E9
ENCODING 1513
SWIDTH 675 0
DWIDTH 30 0
BBX 27 24 2 -1
BITMAP
F01F03E0
F01E03E0
F01E03C0
F01E03C0
F01E03C0
F81E03C0
F81E03C0
F81E03C0
F81E03C0
783E03C0
787C07C0
7BFC07C0
7FF80780
7FF00780
7F800780
3C000F80
3C000F00
3E001F00
1F003E00
0FC0FE00
07FFFC00
03FFF000
01FFE000
000E0000
ENDCHAR
STARTCHAR 05EA
ENCODING 1514
SWIDTH 630 0
DWIDTH 28 0
BBX 24 23 1 0
BITMAP
7FFFC0
7FFFF8
7FFFFC
7BC1FE
03C03E
03C01F
03C00F
03C00F
03C00F
03C00F
03C00F
03C00F
03C00F
03C00F
03C00F
03C00F
03C00F
03C00F
07C00F
0FC00F
FF800F
FF800F
FF000F
ENDCHAR
STARTCHAR 05F0
ENCODING 1520
SWIDTH 472 0
DWIDTH 21 0
BBX 16 23 3 0
BITMAP
F81F
F81F
F81F
F81F
F81F
F81F
F81F
F81F
F81F
F81F
F81F
F81F
F81F
F81F
F81F
F81F
F81F
F81F
F81F
F81F
F81F
F81F
F81F
ENDCHAR
STARTCHAR 05F1
ENCODING 1521
SWIDTH 472 0
DWIDTH 21 0
BBX 16 23 3 0
BITMAP
F81F
F81F
F81F
F81F
F81F
F81F
F81F
F81F
F81F
F81F
F81F
F81F
001F
001F
001F
001F
001F
001F
001F
001F
001F
001F
001F
ENDCHAR
STARTCHAR 05F2
ENCODING 1522
SWIDTH 472 0
DWIDTH 21 0
BBX 16 12 3 11
BITMAP
F81F
F81F
F81F
F81F
F81F
F81F
F81F
F81F
F81F
F81F
F81F
F81F
ENDCHAR
STARTCHAR 05F3
ENCODING 1523
SWIDTH 225 0
DWIDTH 10 0
BBX 6 8 2 15
BITMAP
3C
3C
78
78
70
70
E0
E0
ENDCHAR
STARTCHAR 05F4
ENCODING 1524
SWIDTH 405 0
DWIDTH 18 0
BBX 14 8 2 15
BITMAP
3C3C
3C3C
7878
7878
7070
7070
E0F0
E0E0
ENDCHAR
STARTCHAR 060C
ENCODING 1548
SWIDTH 315 0
DWIDTH 14 0
BBX 7 14 4 6
BITMAP
08
18
30
60
60
C0
C0
E0
FC
FC
FE
FE
7C
38
ENDCHAR
STARTCHAR 061B
ENCODING 1563
SWIDTH 315 0
DWIDTH 14 0
BBX 7 21 3 6
BITMAP
0C
18
38
30
60
60
60
F8
FE
7E
7E
7E
3E
08
00
00
1C
3E
3E
3E
1C
ENDCHAR
STARTCHAR 061F
ENCODING 1567
SWIDTH 337 0
DWIDTH 15 0
BBX 13 26 1 6
BITMAP
0100
1FE0
3C30
7838
7878
78F8
F8F8
FCF8
7C70
7E00
7E00
3F00
1F00
0F00
0700
0300
0100
0100
0100
0000
0000
0780
0F80
0FC0
0780
0700
ENDCHAR
STARTCHAR 0621
ENCODING 1569
SWIDTH 405 0
DWIDTH 18 0
BBX 13 15 3 3
BITMAP
0700
1F80
1FC0
3FC0
6080
6000
E000
F038
FFF8
FFF0
3FC0
1E00
3800
3000
2000
ENDCHAR
STARTCHAR 0622
ENCODING 1570
SWIDTH 202 0
DWIDTH 9 0
BBX 9 31 0 6
BITMAP
2000
FF80
0600
0000
0000
0800
0C00
0C00
1C00
1C00
1C00
0C00
0C00
0C00
0E00
0E00
0E00
0E00
0E00
0E00
0600
0600
0600
0600
0600
0600
0600
0600
0600
0400
0400
ENDCHAR
STARTCHAR 0623
ENCODING 1571
SWIDTH 202 0
DWIDTH 9 0
BBX 5 33 2 6
BITMAP
18
78
40
60
38
E0
00
20
30
30
70
70
70
30
30
30
38
38
38
38
38
38
18
18
18
18
18
18
18
18
18
10
10
ENDCHAR
STARTCHAR 0624
ENCODING 1572
SWIDTH 427 0
DWIDTH 19 0
BBX 18 28 3 -3
BITMAP
002000
00F000
008000
018000
00F000
00C000
010000
000000
000700
000F80
001F80
001B80
0031C0
0030C0
0038C0
003FC0
001FC0
000FC0
0003C0
000080
000180
000380
000700
000F00
001E00
007C00
FFF800
1FF000
ENDCHAR
STARTCHAR 0625
ENCODING 1573
SWIDTH 202 0
DWIDTH 9 0
BBX 6 36 1 -3
BITMAP
10
18
18
38
38
38
18
18
18
1C
1C
1C
1C
1C
1C
0C
0C
0C
0C
0C
0C
0C
0C
0C
08
08
00
00
00
00
38
68
40
7C
38
C0
ENDCHAR
STARTCHAR 0626
ENCODING 1574
SWIDTH 630 0
DWIDTH 28 0
BBX 26 27 1 -2
BITMAP
08000000
1C000000
24000000
60000000
3E000200
38000F80
40001FC0
00003FC0
000070C0
0000C040
10008000
10018000
20010000
20030000
4003FF00
4003FF80
4003FF80
C000FF80
C0000100
C0000700
C0001F00
E0007E00
F803FC00
7FFFF800
7FFFF000
3FFF8000
07F80000
ENDCHAR
STARTCHAR 0627
ENCODING 1575
SWIDTH 202 0
DWIDTH 9 0
BBX 4 26 3 7
BITMAP
40
60
60
E0
E0
E0
60
60
60
70
70
70
70
70
70
30
30
30
30
30
30
30
30
30
20
20
ENDCHAR
STARTCHAR 0628
ENCODING 1576
SWIDTH 697 0
DWIDTH 31 0
BBX 30 23 3 -2
BITMAP
00000010
20000018
40000038
4000003C
8000001C
8000001C
8000000C
C000000C
E000000C
F000000C
FE00000C
7FFFFFFC
3FFFFFFC
1FFFFFFC
00FFFFFC
00000000
00000000
00000000
00020000
00078000
00078000
00078000
00010000
ENDCHAR
STARTCHAR 0629
ENCODING 1577
SWIDTH 270 0
DWIDTH 12 0
BBX 12 22 0 6
BITMAP
0380
03C0
77C0
7980
F800
3000
0000
0000
0000
0400
0F00
0F80
1FE0
1FF0
19F0
1070
3030
3030
38F0
3FE0
3FE0
1F80
ENDCHAR
STARTCHAR 062A
ENCODING 1578
SWIDTH 697 0
DWIDTH 31 0
BBX 30 22 3 6
BITMAP
00008000
0000E000
0011F000
001DE000
003E6000
003C0000
000C0000
00000010
20000018
40000038
4000003C
8000001C
8000001C
8000000C
C000000C
E000000C
F000000C
FE00000C
7FFFFFFC
3FFFFFFC
1FFFFFFC
00FFFFFC
ENDCHAR
STARTCHAR 062B
ENCODING 1579
SWIDTH 697 0
DWIDTH 31 0
BBX 30 26 3 6
BITMAP
00080000
000E0000
001F0000
001E0000
00048000
0000E000
0011F000
001DE000
003E6000
003C0000
000C0000
00000010
20000018
40000038
4000003C
8000001C
8000001C
8000000C
C000000C
E000000C
F000000C
FE00000C
7FFFFFFC
3FFFFFFC
1FFFFFFC
00FFFFFC
ENDCHAR
STARTCHAR 062C
ENCODING 1580
SWIDTH 562 0
DWIDTH 25 0
BBX 21 28 1 -9
BITMAP
0FFE08
3FFFF8
3FFFF8
7FFFF0
007FC0
01F800
03C000
070000
0C0000
180000
300000
600000
400C00
401F00
C01E00
C00E00
C00000
C00000
C00000
E00000
600000
780000
7C0000
3F8000
1FFC00
0FFFF8
07FFF0
00FFC0
ENDCHAR
STARTCHAR 062D
ENCODING 1581
SWIDTH 562 0
DWIDTH 25 0
BBX 21 28 1 -9
BITMAP
0FFE08
3FFFF8
3FFFF8
7FFFF0
007FC0
01F800
03C000
070000
0C0000
180000
300000
600000
400000
400000
C00000
C00000
C00000
C00000
C00000
E00000
600000
780000
7C0000
3F8000
1FFC00
0FFFF8
07FFF0
00FFC0
ENDCHAR
STARTCHAR 062E
ENCODING 1582
SWIDTH 562 0
DWIDTH 25 0
BBX 21 37 1 -9
BITMAP
003000
007C00
007800
003800
000000
000000
000000
000000
000000
0FFE08
3FFFF8
3FFFF8
7FFFF0
007FC0
01F800
03C000
070000
0C0000
180000
300000
600000
400000
400000
C00000
C00000
C00000
C00000
C00000
E00000
600000
780000
7C0000
3F8000
1FFC00
0FFFF8
07FFF0
00FFC0
ENDCHAR
STARTCHAR 062F
ENCODING 1583
SWIDTH 337 0
DWIDTH 15 0
BBX 13 18 4 7
BITMAP
0300
0380
03C0
03C0
01E0
0060
0070
0030
0030
0010
0010
0010
8010
8018
FFF8
FFF8
FFF8
3FF8
ENDCHAR
STARTCHAR 0630
ENCODING 1584
SWIDTH 337 0
DWIDTH 15 0
BBX 13 28 4 6
BITMAP
1000
1C00
3E00
3C00
0800
0000
0000
0000
0000
0000
0300
0380
03C0
03C0
01E0
0060
0070
0030
0030
0010
0010
0010
8010
8018
FFF8
FFF8
FFF8
3FF8
ENDCHAR
STARTCHAR 0631
ENCODING 1585
SWIDTH 472 0
DWIDTH 21 0
BBX 20 23 3 -4
BITMAP
000080
0000C0
0000E0
0000E0
0000F0
000070
000030
000030
000030
000010
000010
000030
000030
000070
000070
0000F0
0001E0
0003C0
000F80
003F00
FFFE00
1FFC00
03F000
ENDCHAR
STARTCHAR 0632
ENCODING 1586
SWIDTH 472 0
DWIDTH 21 0
BBX 20 32 3 -4
BITMAP
000600
000F80
000F00
000700
000000
000000
000000
000000
000000
000080
0000C0
0000E0
0000E0
0000F0
000070
000030
000030
000030
000010
000010
000030
000030
000070
000070
0000F0
0001E0
0003C0
000F80
003F00
FFFE00
1FFC00
03F000
ENDCHAR
STARTCHAR 0633
ENCODING 1587
SWIDTH 810 0
DWIDTH 36 0
BBX 35 21 3 -2
BITMAP
0000100000
00001800C0
00003808E0
1000380860
10003C0860
20001C0C20
20000C0C20
40000C1E20
40000FFFE0
40000FFFE0
C0000FFFE0
C0000F80E0
C0000C0000
C0000C0000
C000180000
E000780000
F001F00000
FFFFE00000
7FFFC00000
3FFF800000
0FFC000000
ENDCHAR
STARTCHAR 0634
ENCODING 1588
SWIDTH 810 0
DWIDTH 36 0
BBX 35 35 3 -3
BITMAP
0000004000
0000007000
000000F800
000000F000
0000003600
0000000700
0000004F80
000000F700
000000F100
000000E000
0000002000
0000000000
0000000000
0000000000
0000100000
00001800C0
00003808E0
1000380860
10003C0860
20001C0C20
20000C0C20
40000C1E20
40000FFFE0
40000FFFE0
C0000FFFE0
C0000F80E0
C0000C0000
C0000C0000
C000180000
E000780000
F001F00000
FFFFE00000
7FFFC00000
3FFF800000
0FFC000000
ENDCHAR
STARTCHAR 0635
ENCODING 1589
SWIDTH 1080 0
DWIDTH 48 0
BBX 47 21 3 -2
BITMAP
0000100003F0
000018000FFC
000038003FFC
100038007FFE
10003C01F03E
20001C03C00E
20000C0F000E
40000C7C003E
40000FFFFFFE
40000FFFFFFE
C0000FFFFFFE
C0000FFFFFFE
C00008000000
C00008000000
C00018000000
E00070000000
F001F0000000
FFFFE0000000
7FFFC0000000
3FFF80000000
0FFE00000000
ENDCHAR
STARTCHAR 0636
ENCODING 1590
SWIDTH 1080 0
DWIDTH 48 0
BBX 47 29 3 -3
BITMAP
000000060000
0000000F8000
0000000F0000
000000070000
000000000000
000000000000
000000000000
000000000000
0000100003F0
000018000FFC
000038003FFC
100038007FFE
10003C01F03E
20001C03C00E
20000C0F000E
40000C7C003E
40000FFFFFFE
40000FFFFFFE
C0000FFFFFFE
C0000FFFFFFE
C00008000000
C00008000000
C00018000000
E00070000000
F001F0000000
FFFFE0000000
7FFFC0000000
3FFF80000000
0FFE00000000
ENDCHAR
STARTCHAR 0637
ENCODING 1591
SWIDTH 562 0
DWIDTH 25 0
BBX 27 29 0 6
BITMAP
01000000
01C00000
01F00000
01F00000
01F00000
00F00000
00C00000
00600000
00600000
00600000
00600000
00700000
00300000
00300000
00300000
00300000
00300000
00301F00
0030FFC0
0033FFE0
002FFFE0
003F01E0
003C00E0
00F000E0
03C003E0
FFFFFFE0
FFFFFFE0
FFFFFFE0
FFFFFFE0
ENDCHAR
STARTCHAR 0638
ENCODING 1592
SWIDTH 562 0
DWIDTH 25 0
BBX 27 29 0 6
BITMAP
01000000
01C00000
01F00000
01F00000
01F00000
00F00000
00C00000
00607000
00607800
0060F800
00603000
00700000
00300000
00300000
00300000
00300000
00300000
00301F00
0030FFC0
0033FFE0
002FFFE0
003F01E0
003C00E0
00F000E0
03C003E0
FFFFFFE0
FFFFFFE0
FFFFFFE0
FFFFFFE0
ENDCHAR
STARTCHAR 0639
ENCODING 1593
SWIDTH 540 0
DWIDTH 24 0
BBX 21 33 1 -9
BITMAP
038000
1FE000
3FF800
7E0000
700000
C00000
C00000
C001C0
F007C0
FC1F80
7FFF00
3FFC00
1FE000
078000
0F0000
1C0000
380000
700000
600000
400000
C00000
C00000
C00000
C00000
C00000
E00000
F00000
780000
7E0000
3FFE00
1FFFF8
0FFFE0
01FFC0
ENDCHAR
STARTCHAR 063A
ENCODING 1594
SWIDTH 540 0
DWIDTH 24 0
BBX 21 42 1 -9
BITMAP
020000
038000
07C000
078000
010000
000000
000000
000000
000000
038000
1FE000
3FF800
7E0000
700000
C00000
C00000
C001C0
F007C0
FC1F80
7FFF00
3FFC00
1FE000
078000
0F0000
1C0000
380000
700000
600000
400000
C00000
C00000
C00000
C00000
C00000
E00000
F00000
780000
7E0000
3FFE00
1FFFF8
0FFFE0
01FFC0
ENDCHAR
STARTCHAR 0640
ENCODING 1600
SWIDTH 202 0
DWIDTH 9 0
BBX 11 4 0 6
BITMAP
FFE0
FFE0
FFE0
FFE0
ENDCHAR
STARTCHAR 0641
ENCODING 1601
SWIDTH 787 0
DWIDTH 35 0
BBX 35 24 2 6
BITMAP
0000003000
0000003C00
0000007C00
0000003800
0000000800
0000000000
0000000000
0000000000
0000000000
2000000780
2000000F80
2000001FC0
4000001FC0
40000039C0
40000038C0
C0000038C0
E000003CE0
E000001FE0
7800000FE0
7F800003E0
3FFFFFFFE0
1FFFFFFFE0
07FFFFFFE0
003FFFFFE0
ENDCHAR
STARTCHAR 0642
ENCODING 1602
SWIDTH 562 0
DWIDTH 25 0
BBX 24 33 3 -3
BITMAP
000030
00007C
000678
000FB8
000F00
000700
000000
000000
000000
000000
000030
00007C
0000FE
0001FE
00018E
00018F
300187
2003FF
2001FF
6001FF
4000FF
400001
C00001
C00001
C00003
C00003
C00007
E0000F
F8007E
7FFFFE
3FFFF8
1FFFF0
07FF80
ENDCHAR
STARTCHAR 0643
ENCODING 1603
SWIDTH 585 0
DWIDTH 26 0
BBX 26 28 2 6
BITMAP
00000400
00000600
00000F80
00000F80
00000F80
00000780
00008780
00038300
00038300
00040300
00080300
00080300
001FC380
001FC180
0001C180
2000C180
2000C180
20038180
41FF01C0
400001C0
400000C0
E00000C0
700000C0
7C0000C0
7FFFFFC0
3FFFFFC0
1FFFFFC0
00FFFFC0
ENDCHAR
STARTCHAR 0644
ENCODING 1604
SWIDTH 495 0
DWIDTH 22 0
BBX 21 34 3 0
BITMAP
000080
0000C0
0000F8
0000F8
0000F8
000070
000070
000060
000060
000060
000060
000030
000030
000030
000030
000030
100030
100030
200018
200018
600018
400018
400018
400018
C00018
C00018
C00018
E00038
F000F0
FC07F0
7FFFE0
3FFFC0
1FFF80
01F800
ENDCHAR
STARTCHAR 0645
ENCODING 1605
SWIDTH 337 0
DWIDTH 15 0
BBX 15 25 2 -9
BITMAP
03C0
07E0
0FF0
0CF8
187C
003C
03FE
1FFE
3FFE
7FFE
7800
E000
C000
C000
C000
6000
6000
6000
3000
3000
3000
3000
1000
1000
1000
ENDCHAR
STARTCHAR 0646
ENCODING 1606
SWIDTH 517 0
DWIDTH 23 0
BBX 22 28 3 -3
BITMAP
002000
003800
007C00
007800
001800
000000
000000
000010
000018
000018
10003C
10003C
20001C
20000C
60000C
40000C
40000C
40000C
C0000C
C0000C
C0000C
C0001C
E00078
F001F8
7FFFF0
7FFFE0
3FFFC0
0FFF00
ENDCHAR
STARTCHAR 0647
ENCODING 1607
SWIDTH 270 0
DWIDTH 12 0
BBX 11 13 1 6
BITMAP
1800
1C00
3F00
3F80
3FC0
23E0
60E0
4060
E0C0
E1C0
FFC0
FF80
7F00
ENDCHAR
STARTCHAR 0648
ENCODING 1608
SWIDTH 427 0
DWIDTH 19 0
BBX 18 20 3 -3
BITMAP
000700
000F80
001F80
001B80
0031C0
0030C0
0038C0
003FC0
001FC0
000FC0
0003C0
000080
000180
000380
000700
000F00
001E00
007C00
FFF800
1FF000
ENDCHAR
STARTCHAR 0649
ENCODING 1609
SWIDTH 630 0
DWIDTH 28 0
BBX 26 23 1 -2
BITMAP
00000200
00000F80
00001FC0
00003FC0
000070C0
0000C040
10008000
10018000
20010000
20030000
4003FF00
4003FF80
4003FF80
C000FF80
C0000100
C0000700
C0001F00
E0007E00
F803FC00
7FFFF800
7FFFF000
3FFF8000
07F80000
ENDCHAR
STARTCHAR 064A
ENCODING 1610
SWIDTH 630 0
DWIDTH 28 0
BBX 26 30 1 -9
BITMAP
00000200
00000F80
00001FC0
00003FC0
000070C0
0000C040
10008000
10018000
20010000
20030000
4003FF00
4003FF80
4003FF80
C000FF80
C0000100
C0000700
C0001F00
E0007E00
F803FC00
7FFFF800
7FFFF000
3FFF8000
07F80000
00020000
00038000
0047C000
00778000
00F90000
00F00000
00300000
ENDCHAR
STARTCHAR 064B
ENCODING 1611
SWIDTH 180 0
DWIDTH 8 0
BBX 7 7 2 28
BITMAP
0E
38
E0
06
3C
F0
80
ENDCHAR
STARTCHAR 064C
ENCODING 1612
SWIDTH 225 0
DWIDTH 10 0
BBX 9 8 2 27
BITMAP
0700
0580
CD00
EF00
A700
2700
7900
7000
ENDCHAR
STARTCHAR 064D
ENCODING 1613
SWIDTH 180 0
DWIDTH 8 0
BBX 7 7 2 -6
BITMAP
02
1C
78
C2
0C
78
E0
ENDCHAR
STARTCHAR 064E
ENCODING 1614
SWIDTH 180 0
DWIDTH 8 0
BBX 7 4 2 30
BITMAP
06
3C
F0
80
ENDCHAR
STARTCHAR 064F
ENCODING 1615
SWIDTH 202 0
DWIDTH 9 0
BBX 7 9 2 27
BITMAP
0E
1E
12
1A
1E
0E
1A
30
E0
ENDCHAR
STARTCHAR 0650
ENCODING 1616
SWIDTH 180 0
DWIDTH 8 0
BBX 7 4 2 0
BITMAP
0E
3C
E0
80
ENDCHAR
STARTCHAR 0651
ENCODING 1617
SWIDTH 202 0
DWIDTH 9 0
BBX 7 6 2 28
BITMAP
12
92
9E
BE
EC
E0
ENDCHAR
STARTCHAR 0652
ENCODING 1618
SWIDTH 157 0
DWIDTH 7 0
BBX 5 7 2 27
BITMAP
20
78
98
88
88
F8
F0
ENDCHAR
STARTCHAR 0660
ENCODING 1632
SWIDTH 517 0
DWIDTH 23 0
BBX 7 10 8 10
BITMAP
20
30
78
7E
7E
FE
FC
7C
1C
0C
ENDCHAR
STARTCHAR 0661
ENCODING 1633
SWIDTH 517 0
DWIDTH 23 0
BBX 8 26 7 6
BITMAP
40
60
60
F0
F8
F8
7C
3C
3C
1E
1E
0E
0E
06
06
07
07
03
02
02
02
02
02
02
02
02
ENDCHAR
STARTCHAR 0662
ENCODING 1634
SWIDTH 517 0
DWIDTH 23 0
BBX 13 26 4 6
BITMAP
4008
6008
7008
F818
FE38
7FF8
3FF8
3FF0
1FE0
0F00
0F00
0700
0780
0380
0380
0380
0180
0180
01C0
01C0
00C0
00C0
00C0
00C0
0040
0040
ENDCHAR
STARTCHAR 0663
ENCODING 1635
SWIDTH 517 0
DWIDTH 23 0
BBX 18 26 3 6
BITMAP
001040
401040
6038C0
F07FC0
FFFFC0
FFFF80
FFFF80
7F8600
3C0000
3C0000
1E0000
0E0000
0E0000
070000
070000
070000
030000
030000
030000
030000
030000
030000
030000
030000
030000
020000
ENDCHAR
STARTCHAR 0664
ENCODING 1636
SWIDTH 517 0
DWIDTH 23 0
BBX 11 25 7 7
BITMAP
0100
0300
0F00
1F00
3800
2000
6000
E000
FC00
FF00
FF80
7F00
1E00
0400
0800
1800
3000
6000
7000
FC00
FFE0
FFC0
7FC0
3FC0
0380
ENDCHAR
STARTCHAR 0665
ENCODING 1637
SWIDTH 517 0
DWIDTH 23 0
BBX 15 17 4 11
BITMAP
0180
07E0
0FF0
1FF8
1FFC
30FE
203E
600E
4006
4002
C002
E006
F00C
FFFC
FFF8
7FF0
1FC0
ENDCHAR
STARTCHAR 0666
ENCODING 1638
SWIDTH 517 0
DWIDTH 23 0
BBX 14 25 4 7
BITMAP
8000
8000
E0E0
FFE0
FFE0
FFE0
FFE0
3E40
0040
0040
0040
0060
0060
0060
0060
0060
0070
0070
0078
007C
003C
003C
001C
001C
0008
ENDCHAR
STARTCHAR 0667
ENCODING 1639
SWIDTH 517 0
DWIDTH 23 0
BBX 17 24 3 7
BITMAP
800080
C00080
E00180
F00380
F00380
F80780
F80700
7C0700
3C0E00
1E0C00
1E1C00
0F1800
071800
071000
03B000
03A000
01A000
01A000
01E000
00C000
00C000
00C000
004000
004000
ENDCHAR
STARTCHAR 0668
ENCODING 1640
SWIDTH 517 0
DWIDTH 23 0
BBX 18 25 3 7
BITMAP
008000
008000
008000
00C000
00C000
01C000
01C000
01E000
036000
027000
027000
067000
063800
043C00
0C3C00
1C1E00
181F00
380F80
780FC0
F007C0
F007C0
E003C0
C00180
C00080
800080
ENDCHAR
ENDFONT
